G04 (created by PCBNEW (2013-may-18)-stable) date Sat 04 Apr 2015 12:39:57 AM CEST*
%MOIN*%
G04 Gerber Fmt 3.4, Leading zero omitted, Abs format*
%FSLAX34Y34*%
G01*
G70*
G90*
G04 APERTURE LIST*
%ADD10C,0.00590551*%
%ADD11R,0.094448X0.033448*%
%ADD12R,0.033448X0.094448*%
%ADD13R,0.0787402X0.0708661*%
%ADD14R,0.159748X0.095748*%
%ADD15R,0.055748X0.095748*%
%ADD16R,0.060748X0.035748*%
%ADD17R,0.095748X0.075748*%
%ADD18R,0.075748X0.095748*%
%ADD19R,0.0409449X0.115748*%
%ADD20R,0.115354X0.220866*%
%ADD21R,0.075748X0.075748*%
%ADD22C,0.075748*%
%ADD23R,0.0748031X0.10748*%
%ADD24C,0.114173*%
%ADD25R,0.078648X0.086648*%
%ADD26R,0.236248X0.098448*%
%ADD27C,0.175748*%
%ADD28R,0.115748X0.115748*%
%ADD29C,0.115748*%
G04 APERTURE END LIST*
G54D10*
G54D11*
X83291Y-43539D03*
X83291Y-43224D03*
X83291Y-42909D03*
X83291Y-42594D03*
X83291Y-42279D03*
X83291Y-41964D03*
X83291Y-41649D03*
X83291Y-41334D03*
X83291Y-46062D03*
X89587Y-46062D03*
X89587Y-41334D03*
X83291Y-43857D03*
X83291Y-44172D03*
X83291Y-44487D03*
X83291Y-44802D03*
X83291Y-45117D03*
X83291Y-45432D03*
X83291Y-45747D03*
X89587Y-45747D03*
X89587Y-45432D03*
X89587Y-45117D03*
X89587Y-44802D03*
X89587Y-44487D03*
X89587Y-44172D03*
X89587Y-43857D03*
X89587Y-43539D03*
X89587Y-43224D03*
X89587Y-42909D03*
X89587Y-42594D03*
X89587Y-42279D03*
X89587Y-41964D03*
X89587Y-41649D03*
G54D12*
X84075Y-40546D03*
X84389Y-40546D03*
X84705Y-40546D03*
X85019Y-40546D03*
X85335Y-40546D03*
X85649Y-40546D03*
X86595Y-40546D03*
X87225Y-40546D03*
X87539Y-40546D03*
X85965Y-40546D03*
X86279Y-40546D03*
X86909Y-40546D03*
X87855Y-40546D03*
X88169Y-40546D03*
X88485Y-40546D03*
X88799Y-40546D03*
X84075Y-46846D03*
X84389Y-46846D03*
X84705Y-46846D03*
X85019Y-46846D03*
X85335Y-46846D03*
X85649Y-46846D03*
X85965Y-46846D03*
X86279Y-46846D03*
X86595Y-46846D03*
X86909Y-46846D03*
X87225Y-46846D03*
X87539Y-46846D03*
X87855Y-46846D03*
X88169Y-46846D03*
X88485Y-46846D03*
X88799Y-46846D03*
G54D13*
X92748Y-39362D03*
X89440Y-39362D03*
X92748Y-37590D03*
X89440Y-37590D03*
G54D14*
X91169Y-47782D03*
G54D15*
X91169Y-50382D03*
X92069Y-50382D03*
X90269Y-50382D03*
G54D16*
X89601Y-51891D03*
X87501Y-51891D03*
X89601Y-52391D03*
X89601Y-52891D03*
X89601Y-53391D03*
X87501Y-52391D03*
X87501Y-52891D03*
X87501Y-53391D03*
X81500Y-40391D03*
X81500Y-39891D03*
X81500Y-39391D03*
X81500Y-38891D03*
X81500Y-38391D03*
X81500Y-37891D03*
X81500Y-37391D03*
X81500Y-36891D03*
X79500Y-36891D03*
X79500Y-37391D03*
X79500Y-37891D03*
X79500Y-38391D03*
X79500Y-38891D03*
X79500Y-39391D03*
X79500Y-39891D03*
X79500Y-40391D03*
G54D17*
X90838Y-52129D03*
X90838Y-53429D03*
X84389Y-37869D03*
X84389Y-39169D03*
G54D18*
X88279Y-39000D03*
X86979Y-39000D03*
G54D17*
X92070Y-53433D03*
X92070Y-52133D03*
X86488Y-49488D03*
X86488Y-48188D03*
X84799Y-48208D03*
X84799Y-49508D03*
X83401Y-49508D03*
X83401Y-48208D03*
G54D19*
X83328Y-54940D03*
X83828Y-54940D03*
X84328Y-54940D03*
X84828Y-54940D03*
X82828Y-54940D03*
X82328Y-54940D03*
X81828Y-54940D03*
X81328Y-54940D03*
X87328Y-54940D03*
X87828Y-54940D03*
X88328Y-54940D03*
X88828Y-54940D03*
X89328Y-54940D03*
X89828Y-54940D03*
X90328Y-54940D03*
X90828Y-54940D03*
G54D20*
X80578Y-59584D03*
X91578Y-59584D03*
G54D21*
X88078Y-50783D03*
G54D22*
X88078Y-49783D03*
X88078Y-48783D03*
G54D23*
X79940Y-42452D03*
X79940Y-44838D03*
X78940Y-42452D03*
X80940Y-42452D03*
X80940Y-44838D03*
X78940Y-44838D03*
G54D24*
X81173Y-31814D03*
X89110Y-31814D03*
X81173Y-34791D03*
X89110Y-34791D03*
X91094Y-31814D03*
X91094Y-34791D03*
X87125Y-31814D03*
X87125Y-34791D03*
X81173Y-33303D03*
G54D25*
X92027Y-43220D03*
X90909Y-43220D03*
G54D26*
X85464Y-51566D03*
X81646Y-51566D03*
G54D27*
X93700Y-59448D03*
X78346Y-59448D03*
X93700Y-28740D03*
X78346Y-28740D03*
G54D18*
X90818Y-41751D03*
X92118Y-41751D03*
G54D28*
X87783Y-28488D03*
G54D29*
X85783Y-28488D03*
X83783Y-28488D03*
M02*
