G04 (created by PCBNEW (2013-may-18)-stable) date Sat 04 Apr 2015 12:39:56 AM CEST*
%MOIN*%
G04 Gerber Fmt 3.4, Leading zero omitted, Abs format*
%FSLAX34Y34*%
G01*
G70*
G90*
G04 APERTURE LIST*
%ADD10C,0.00590551*%
%ADD11C,0.011811*%
%ADD12R,0.06X0.06*%
%ADD13C,0.06*%
%ADD14C,0.0984252*%
%ADD15C,0.16*%
%ADD16R,0.1X0.1*%
%ADD17C,0.1*%
%ADD18C,0.0708661*%
%ADD19C,0.0314961*%
%ADD20C,0.0177165*%
%ADD21C,0.01*%
G04 APERTURE END LIST*
G54D10*
G54D11*
X86958Y-58762D02*
X86761Y-59353D01*
X86564Y-58762D01*
X86395Y-59325D02*
X86311Y-59353D01*
X86170Y-59353D01*
X86114Y-59325D01*
X86086Y-59296D01*
X86058Y-59240D01*
X86058Y-59184D01*
X86086Y-59128D01*
X86114Y-59100D01*
X86170Y-59071D01*
X86283Y-59043D01*
X86339Y-59015D01*
X86367Y-58987D01*
X86395Y-58931D01*
X86395Y-58875D01*
X86367Y-58818D01*
X86339Y-58790D01*
X86283Y-58762D01*
X86142Y-58762D01*
X86058Y-58790D01*
X85467Y-59296D02*
X85496Y-59325D01*
X85580Y-59353D01*
X85636Y-59353D01*
X85721Y-59325D01*
X85777Y-59268D01*
X85805Y-59212D01*
X85833Y-59100D01*
X85833Y-59015D01*
X85805Y-58903D01*
X85777Y-58847D01*
X85721Y-58790D01*
X85636Y-58762D01*
X85580Y-58762D01*
X85496Y-58790D01*
X85467Y-58818D01*
X85214Y-59353D02*
X85214Y-58762D01*
X84989Y-58762D01*
X84933Y-58790D01*
X84905Y-58818D01*
X84877Y-58875D01*
X84877Y-58959D01*
X84905Y-59015D01*
X84933Y-59043D01*
X84989Y-59071D01*
X85214Y-59071D01*
X89067Y-60298D02*
X89348Y-60298D01*
X89348Y-59707D01*
X88898Y-60129D02*
X88617Y-60129D01*
X88955Y-60298D02*
X88758Y-59707D01*
X88561Y-60298D01*
X88448Y-59707D02*
X88111Y-59707D01*
X88280Y-60298D02*
X88280Y-59707D01*
X87577Y-60241D02*
X87605Y-60269D01*
X87689Y-60298D01*
X87745Y-60298D01*
X87830Y-60269D01*
X87886Y-60213D01*
X87914Y-60157D01*
X87942Y-60044D01*
X87942Y-59960D01*
X87914Y-59848D01*
X87886Y-59791D01*
X87830Y-59735D01*
X87745Y-59707D01*
X87689Y-59707D01*
X87605Y-59735D01*
X87577Y-59763D01*
X87323Y-60298D02*
X87323Y-59707D01*
X87323Y-59988D02*
X86986Y-59988D01*
X86986Y-60298D02*
X86986Y-59707D01*
X86705Y-60298D02*
X86705Y-59707D01*
X86424Y-60298D02*
X86424Y-59707D01*
X86086Y-60298D01*
X86086Y-59707D01*
X85496Y-59735D02*
X85552Y-59707D01*
X85636Y-59707D01*
X85721Y-59735D01*
X85777Y-59791D01*
X85805Y-59848D01*
X85833Y-59960D01*
X85833Y-60044D01*
X85805Y-60157D01*
X85777Y-60213D01*
X85721Y-60269D01*
X85636Y-60298D01*
X85580Y-60298D01*
X85496Y-60269D01*
X85467Y-60241D01*
X85467Y-60044D01*
X85580Y-60044D01*
X85355Y-60354D02*
X84905Y-60354D01*
X84427Y-60298D02*
X84624Y-60016D01*
X84764Y-60298D02*
X84764Y-59707D01*
X84539Y-59707D01*
X84483Y-59735D01*
X84455Y-59763D01*
X84427Y-59820D01*
X84427Y-59904D01*
X84455Y-59960D01*
X84483Y-59988D01*
X84539Y-60016D01*
X84764Y-60016D01*
X84174Y-59988D02*
X83977Y-59988D01*
X83893Y-60298D02*
X84174Y-60298D01*
X84174Y-59707D01*
X83893Y-59707D01*
X83358Y-60298D02*
X83640Y-60298D01*
X83640Y-59707D01*
X83190Y-60129D02*
X82908Y-60129D01*
X83246Y-60298D02*
X83049Y-59707D01*
X82852Y-60298D01*
X82543Y-60016D02*
X82543Y-60298D01*
X82740Y-59707D02*
X82543Y-60016D01*
X82346Y-59707D01*
G54D12*
X88078Y-50783D03*
G54D13*
X88078Y-49783D03*
X88078Y-48783D03*
G54D14*
X81173Y-31814D03*
X89110Y-31814D03*
X81173Y-34791D03*
X89110Y-34791D03*
X91094Y-31814D03*
X91094Y-34791D03*
X87125Y-31814D03*
X87125Y-34791D03*
X81173Y-33303D03*
G54D15*
X93700Y-59448D03*
X78346Y-59448D03*
X93700Y-28740D03*
X78346Y-28740D03*
G54D16*
X87783Y-28488D03*
G54D17*
X85783Y-28488D03*
X83783Y-28488D03*
G54D18*
X91299Y-51259D03*
X86791Y-54929D03*
X81870Y-53834D03*
X84393Y-34145D03*
X90161Y-40590D03*
X89696Y-47011D03*
X87858Y-41799D03*
X79948Y-47145D03*
X81181Y-48377D03*
X82874Y-47059D03*
X81838Y-45846D03*
X86909Y-42944D03*
X85606Y-41625D03*
X82917Y-38787D03*
X80917Y-41314D03*
X90704Y-49279D03*
X85649Y-36720D03*
X85681Y-39015D03*
X85712Y-50381D03*
X86129Y-45539D03*
X85468Y-54944D03*
X85468Y-57389D03*
X82897Y-39885D03*
X87090Y-44295D03*
X82433Y-40677D03*
X87098Y-45208D03*
G54D19*
X89385Y-53173D02*
X86279Y-53173D01*
X91299Y-51259D02*
X89385Y-53173D01*
X86791Y-54929D02*
X86775Y-54913D01*
X86775Y-54913D02*
X86775Y-53669D01*
X86775Y-53669D02*
X86279Y-53173D01*
X82531Y-53173D02*
X81870Y-53834D01*
X86279Y-53173D02*
X82531Y-53173D01*
X83551Y-33303D02*
X81173Y-33303D01*
X84393Y-34145D02*
X83551Y-33303D01*
X88952Y-41799D02*
X87858Y-41799D01*
X90161Y-40590D02*
X88952Y-41799D01*
X89696Y-47011D02*
X87850Y-45165D01*
X87850Y-45165D02*
X87850Y-41807D01*
X87850Y-41807D02*
X87858Y-41799D01*
X80917Y-44968D02*
X80960Y-44968D01*
X79980Y-47114D02*
X79984Y-47114D01*
X79948Y-47145D02*
X79980Y-47114D01*
X81555Y-48377D02*
X81181Y-48377D01*
X82874Y-47059D02*
X81555Y-48377D01*
X80960Y-44968D02*
X81838Y-45846D01*
G54D20*
X86909Y-42929D02*
X86909Y-42944D01*
X85606Y-41625D02*
X86909Y-42929D01*
G54D19*
X80917Y-41314D02*
X80917Y-44968D01*
X79984Y-47114D02*
X78763Y-48334D01*
G54D20*
X82874Y-38830D02*
X82917Y-38787D01*
X81862Y-38830D02*
X82874Y-38830D01*
X80937Y-39755D02*
X81862Y-38830D01*
X80937Y-41295D02*
X80937Y-39755D01*
X80917Y-41314D02*
X80937Y-41295D01*
G54D19*
X78763Y-48334D02*
X78763Y-55913D01*
X78763Y-55913D02*
X80240Y-57389D01*
X80240Y-57389D02*
X85468Y-57389D01*
G54D20*
X90704Y-49279D02*
X89251Y-47826D01*
X89251Y-47826D02*
X88417Y-47826D01*
X88417Y-47826D02*
X86129Y-45539D01*
X85649Y-38984D02*
X85649Y-36720D01*
X85681Y-39015D02*
X85649Y-38984D01*
X85712Y-50381D02*
X86129Y-49964D01*
X86129Y-49964D02*
X86129Y-45539D01*
G54D19*
X85468Y-54944D02*
X85468Y-57389D01*
G54D20*
X82897Y-40102D02*
X82897Y-39885D01*
X87090Y-44295D02*
X82897Y-40102D01*
X82566Y-40677D02*
X82433Y-40677D01*
X87098Y-45208D02*
X82566Y-40677D01*
G54D10*
G36*
X94543Y-60905D02*
X91903Y-60905D01*
X91903Y-51140D01*
X91836Y-50978D01*
X91836Y-34644D01*
X91836Y-31667D01*
X91723Y-31395D01*
X91515Y-31186D01*
X91242Y-31072D01*
X90947Y-31072D01*
X90674Y-31185D01*
X90465Y-31394D01*
X90352Y-31666D01*
X90352Y-31961D01*
X90464Y-32234D01*
X90673Y-32443D01*
X90946Y-32556D01*
X91241Y-32557D01*
X91514Y-32444D01*
X91723Y-32235D01*
X91836Y-31963D01*
X91836Y-31667D01*
X91836Y-34644D01*
X91723Y-34371D01*
X91515Y-34162D01*
X91242Y-34049D01*
X90947Y-34049D01*
X90674Y-34161D01*
X90465Y-34370D01*
X90352Y-34643D01*
X90352Y-34938D01*
X90464Y-35211D01*
X90673Y-35420D01*
X90946Y-35533D01*
X91241Y-35533D01*
X91514Y-35420D01*
X91723Y-35212D01*
X91836Y-34939D01*
X91836Y-34644D01*
X91836Y-50978D01*
X91811Y-50917D01*
X91641Y-50747D01*
X91419Y-50655D01*
X91179Y-50655D01*
X90957Y-50747D01*
X90787Y-50917D01*
X90765Y-50968D01*
X90765Y-40470D01*
X90674Y-40248D01*
X90504Y-40078D01*
X90282Y-39986D01*
X90041Y-39986D01*
X89852Y-40064D01*
X89852Y-34644D01*
X89852Y-31667D01*
X89739Y-31395D01*
X89531Y-31186D01*
X89258Y-31072D01*
X88963Y-31072D01*
X88690Y-31185D01*
X88533Y-31342D01*
X88533Y-28938D01*
X88533Y-27938D01*
X88495Y-27846D01*
X88425Y-27776D01*
X88333Y-27738D01*
X88233Y-27738D01*
X87233Y-27738D01*
X87142Y-27776D01*
X87071Y-27846D01*
X87033Y-27938D01*
X87033Y-28037D01*
X87033Y-29037D01*
X87071Y-29129D01*
X87141Y-29200D01*
X87233Y-29238D01*
X87332Y-29238D01*
X88332Y-29238D01*
X88424Y-29200D01*
X88495Y-29129D01*
X88533Y-29038D01*
X88533Y-28938D01*
X88533Y-31342D01*
X88481Y-31394D01*
X88368Y-31666D01*
X88367Y-31961D01*
X88480Y-32234D01*
X88689Y-32443D01*
X88961Y-32556D01*
X89257Y-32557D01*
X89530Y-32444D01*
X89739Y-32235D01*
X89852Y-31963D01*
X89852Y-31667D01*
X89852Y-34644D01*
X89739Y-34371D01*
X89531Y-34162D01*
X89258Y-34049D01*
X88963Y-34049D01*
X88690Y-34161D01*
X88481Y-34370D01*
X88368Y-34643D01*
X88367Y-34938D01*
X88480Y-35211D01*
X88689Y-35420D01*
X88961Y-35533D01*
X89257Y-35533D01*
X89530Y-35420D01*
X89739Y-35212D01*
X89852Y-34939D01*
X89852Y-34644D01*
X89852Y-40064D01*
X89819Y-40077D01*
X89649Y-40247D01*
X89557Y-40469D01*
X89557Y-40618D01*
X88783Y-41391D01*
X88305Y-41391D01*
X88201Y-41287D01*
X87979Y-41194D01*
X87868Y-41194D01*
X87868Y-34644D01*
X87868Y-31667D01*
X87755Y-31395D01*
X87546Y-31186D01*
X87274Y-31072D01*
X86979Y-31072D01*
X86706Y-31185D01*
X86533Y-31357D01*
X86533Y-28339D01*
X86419Y-28063D01*
X86208Y-27852D01*
X85933Y-27738D01*
X85634Y-27738D01*
X85359Y-27851D01*
X85148Y-28062D01*
X85033Y-28338D01*
X85033Y-28636D01*
X85147Y-28912D01*
X85358Y-29123D01*
X85633Y-29238D01*
X85931Y-29238D01*
X86207Y-29124D01*
X86418Y-28913D01*
X86533Y-28638D01*
X86533Y-28339D01*
X86533Y-31357D01*
X86497Y-31394D01*
X86383Y-31666D01*
X86383Y-31961D01*
X86496Y-32234D01*
X86705Y-32443D01*
X86977Y-32556D01*
X87272Y-32557D01*
X87545Y-32444D01*
X87754Y-32235D01*
X87867Y-31963D01*
X87868Y-31667D01*
X87868Y-34644D01*
X87755Y-34371D01*
X87546Y-34162D01*
X87274Y-34049D01*
X86979Y-34049D01*
X86706Y-34161D01*
X86497Y-34370D01*
X86383Y-34643D01*
X86383Y-34938D01*
X86496Y-35211D01*
X86705Y-35420D01*
X86977Y-35533D01*
X87272Y-35533D01*
X87545Y-35420D01*
X87754Y-35212D01*
X87867Y-34939D01*
X87868Y-34644D01*
X87868Y-41194D01*
X87738Y-41194D01*
X87516Y-41286D01*
X87346Y-41456D01*
X87254Y-41678D01*
X87253Y-41918D01*
X87345Y-42141D01*
X87442Y-42238D01*
X87442Y-43792D01*
X87433Y-43783D01*
X87211Y-43691D01*
X86970Y-43690D01*
X86966Y-43692D01*
X84998Y-41724D01*
X84998Y-34025D01*
X84906Y-33803D01*
X84736Y-33633D01*
X84533Y-33549D01*
X84533Y-28339D01*
X84419Y-28063D01*
X84208Y-27852D01*
X83933Y-27738D01*
X83634Y-27738D01*
X83359Y-27851D01*
X83148Y-28062D01*
X83033Y-28338D01*
X83033Y-28636D01*
X83147Y-28912D01*
X83358Y-29123D01*
X83633Y-29238D01*
X83931Y-29238D01*
X84207Y-29124D01*
X84418Y-28913D01*
X84533Y-28638D01*
X84533Y-28339D01*
X84533Y-33549D01*
X84514Y-33541D01*
X84365Y-33541D01*
X83839Y-33015D01*
X83707Y-32926D01*
X83551Y-32895D01*
X83551Y-32895D01*
X81915Y-32895D01*
X81915Y-31667D01*
X81802Y-31395D01*
X81594Y-31186D01*
X81321Y-31072D01*
X81026Y-31072D01*
X80753Y-31185D01*
X80544Y-31394D01*
X80431Y-31666D01*
X80430Y-31961D01*
X80543Y-32234D01*
X80752Y-32443D01*
X81024Y-32556D01*
X81320Y-32557D01*
X81593Y-32444D01*
X81802Y-32235D01*
X81915Y-31963D01*
X81915Y-31667D01*
X81915Y-32895D01*
X81807Y-32895D01*
X81802Y-32883D01*
X81594Y-32674D01*
X81321Y-32561D01*
X81026Y-32560D01*
X80753Y-32673D01*
X80544Y-32882D01*
X80431Y-33154D01*
X80430Y-33450D01*
X80543Y-33722D01*
X80752Y-33931D01*
X81024Y-34045D01*
X81320Y-34045D01*
X81593Y-33932D01*
X81802Y-33724D01*
X81807Y-33710D01*
X83382Y-33710D01*
X83789Y-34117D01*
X83789Y-34265D01*
X83881Y-34487D01*
X84050Y-34657D01*
X84272Y-34749D01*
X84513Y-34750D01*
X84735Y-34658D01*
X84905Y-34488D01*
X84997Y-34266D01*
X84998Y-34025D01*
X84998Y-41724D01*
X83436Y-40162D01*
X83501Y-40006D01*
X83502Y-39766D01*
X83410Y-39543D01*
X83240Y-39373D01*
X83018Y-39281D01*
X82777Y-39281D01*
X82555Y-39373D01*
X82385Y-39543D01*
X82293Y-39765D01*
X82293Y-40005D01*
X82320Y-40072D01*
X82313Y-40072D01*
X82091Y-40164D01*
X81921Y-40334D01*
X81915Y-40347D01*
X81915Y-34644D01*
X81802Y-34371D01*
X81594Y-34162D01*
X81321Y-34049D01*
X81026Y-34049D01*
X80753Y-34161D01*
X80544Y-34370D01*
X80431Y-34643D01*
X80430Y-34938D01*
X80543Y-35211D01*
X80752Y-35420D01*
X81024Y-35533D01*
X81320Y-35533D01*
X81593Y-35420D01*
X81802Y-35212D01*
X81915Y-34939D01*
X81915Y-34644D01*
X81915Y-40347D01*
X81828Y-40556D01*
X81828Y-40796D01*
X81920Y-41019D01*
X82090Y-41189D01*
X82312Y-41281D01*
X82552Y-41281D01*
X82651Y-41240D01*
X86495Y-45084D01*
X86494Y-45087D01*
X86493Y-45328D01*
X86585Y-45550D01*
X86755Y-45720D01*
X86977Y-45812D01*
X87218Y-45813D01*
X87440Y-45721D01*
X87610Y-45551D01*
X87625Y-45516D01*
X89092Y-46983D01*
X89092Y-47131D01*
X89184Y-47353D01*
X89354Y-47523D01*
X89576Y-47616D01*
X89816Y-47616D01*
X90038Y-47524D01*
X90208Y-47354D01*
X90301Y-47132D01*
X90301Y-46892D01*
X90209Y-46669D01*
X90039Y-46499D01*
X89817Y-46407D01*
X89668Y-46407D01*
X88257Y-44996D01*
X88257Y-42254D01*
X88305Y-42206D01*
X88952Y-42206D01*
X88952Y-42206D01*
X88952Y-42206D01*
X89108Y-42175D01*
X89240Y-42087D01*
X90133Y-41194D01*
X90281Y-41194D01*
X90503Y-41103D01*
X90673Y-40933D01*
X90765Y-40711D01*
X90765Y-40470D01*
X90765Y-50968D01*
X90694Y-51139D01*
X90694Y-51287D01*
X89217Y-52765D01*
X88628Y-52765D01*
X88628Y-49674D01*
X88545Y-49472D01*
X88390Y-49317D01*
X88308Y-49283D01*
X88389Y-49250D01*
X88544Y-49095D01*
X88628Y-48893D01*
X88628Y-48674D01*
X88545Y-48472D01*
X88390Y-48317D01*
X88188Y-48233D01*
X87969Y-48233D01*
X87767Y-48316D01*
X87612Y-48471D01*
X87528Y-48673D01*
X87528Y-48892D01*
X87612Y-49094D01*
X87766Y-49249D01*
X87848Y-49283D01*
X87767Y-49316D01*
X87612Y-49471D01*
X87528Y-49673D01*
X87528Y-49892D01*
X87612Y-50094D01*
X87750Y-50233D01*
X87728Y-50233D01*
X87636Y-50271D01*
X87566Y-50342D01*
X87528Y-50433D01*
X87528Y-50670D01*
X87591Y-50733D01*
X88028Y-50733D01*
X88028Y-50725D01*
X88128Y-50725D01*
X88128Y-50733D01*
X88566Y-50733D01*
X88628Y-50670D01*
X88628Y-50433D01*
X88590Y-50342D01*
X88520Y-50271D01*
X88428Y-50233D01*
X88406Y-50233D01*
X88544Y-50095D01*
X88628Y-49893D01*
X88628Y-49674D01*
X88628Y-52765D01*
X88628Y-52765D01*
X88628Y-51132D01*
X88628Y-50895D01*
X88566Y-50833D01*
X88128Y-50833D01*
X88128Y-51270D01*
X88191Y-51333D01*
X88329Y-51333D01*
X88428Y-51333D01*
X88520Y-51295D01*
X88590Y-51224D01*
X88628Y-51132D01*
X88628Y-52765D01*
X88028Y-52765D01*
X88028Y-51270D01*
X88028Y-50833D01*
X87591Y-50833D01*
X87528Y-50895D01*
X87528Y-51132D01*
X87566Y-51224D01*
X87636Y-51295D01*
X87728Y-51333D01*
X87828Y-51333D01*
X87966Y-51333D01*
X88028Y-51270D01*
X88028Y-52765D01*
X86279Y-52765D01*
X86279Y-52765D01*
X86279Y-52765D01*
X82531Y-52765D01*
X82531Y-52765D01*
X82500Y-52771D01*
X82375Y-52796D01*
X82243Y-52885D01*
X82243Y-52885D01*
X81898Y-53230D01*
X81750Y-53230D01*
X81528Y-53322D01*
X81358Y-53491D01*
X81265Y-53713D01*
X81265Y-53954D01*
X81357Y-54176D01*
X81527Y-54346D01*
X81749Y-54438D01*
X81989Y-54439D01*
X82211Y-54347D01*
X82382Y-54177D01*
X82474Y-53955D01*
X82474Y-53806D01*
X82700Y-53580D01*
X86110Y-53580D01*
X86368Y-53838D01*
X86368Y-54497D01*
X86279Y-54586D01*
X86187Y-54808D01*
X86186Y-55048D01*
X86278Y-55271D01*
X86448Y-55441D01*
X86670Y-55533D01*
X86911Y-55533D01*
X87133Y-55441D01*
X87303Y-55271D01*
X87395Y-55049D01*
X87395Y-54809D01*
X87303Y-54587D01*
X87183Y-54466D01*
X87183Y-53669D01*
X87183Y-53669D01*
X87183Y-53669D01*
X87165Y-53580D01*
X89385Y-53580D01*
X89385Y-53580D01*
X89385Y-53580D01*
X89541Y-53549D01*
X89673Y-53461D01*
X91271Y-51864D01*
X91418Y-51864D01*
X91641Y-51772D01*
X91811Y-51602D01*
X91903Y-51380D01*
X91903Y-51140D01*
X91903Y-60905D01*
X89798Y-60905D01*
X89798Y-60781D01*
X89798Y-58273D01*
X81981Y-58273D01*
X81981Y-60781D01*
X89798Y-60781D01*
X89798Y-60905D01*
X85700Y-60905D01*
X85681Y-60901D01*
X85661Y-60905D01*
X77523Y-60905D01*
X77523Y-60110D01*
X77750Y-60338D01*
X78136Y-60498D01*
X78554Y-60499D01*
X78940Y-60339D01*
X79236Y-60044D01*
X79396Y-59658D01*
X79396Y-59240D01*
X79237Y-58854D01*
X78942Y-58559D01*
X78556Y-58399D01*
X78138Y-58398D01*
X77752Y-58558D01*
X77523Y-58786D01*
X77523Y-29402D01*
X77750Y-29629D01*
X78136Y-29789D01*
X78554Y-29790D01*
X78940Y-29630D01*
X79236Y-29335D01*
X79396Y-28949D01*
X79396Y-28532D01*
X79237Y-28146D01*
X78942Y-27850D01*
X78556Y-27690D01*
X78138Y-27689D01*
X77752Y-27849D01*
X77523Y-28077D01*
X77523Y-27204D01*
X94543Y-27204D01*
X94543Y-28097D01*
X94296Y-27850D01*
X93910Y-27690D01*
X93492Y-27689D01*
X93106Y-27849D01*
X92811Y-28144D01*
X92650Y-28530D01*
X92650Y-28948D01*
X92810Y-29334D01*
X93105Y-29629D01*
X93491Y-29789D01*
X93908Y-29790D01*
X94294Y-29630D01*
X94543Y-29382D01*
X94543Y-58806D01*
X94296Y-58559D01*
X93910Y-58399D01*
X93492Y-58398D01*
X93106Y-58558D01*
X92811Y-58853D01*
X92650Y-59239D01*
X92650Y-59656D01*
X92810Y-60042D01*
X93105Y-60338D01*
X93491Y-60498D01*
X93908Y-60499D01*
X94294Y-60339D01*
X94543Y-60091D01*
X94543Y-60905D01*
X94543Y-60905D01*
G37*
G54D21*
X94543Y-60905D02*
X91903Y-60905D01*
X91903Y-51140D01*
X91836Y-50978D01*
X91836Y-34644D01*
X91836Y-31667D01*
X91723Y-31395D01*
X91515Y-31186D01*
X91242Y-31072D01*
X90947Y-31072D01*
X90674Y-31185D01*
X90465Y-31394D01*
X90352Y-31666D01*
X90352Y-31961D01*
X90464Y-32234D01*
X90673Y-32443D01*
X90946Y-32556D01*
X91241Y-32557D01*
X91514Y-32444D01*
X91723Y-32235D01*
X91836Y-31963D01*
X91836Y-31667D01*
X91836Y-34644D01*
X91723Y-34371D01*
X91515Y-34162D01*
X91242Y-34049D01*
X90947Y-34049D01*
X90674Y-34161D01*
X90465Y-34370D01*
X90352Y-34643D01*
X90352Y-34938D01*
X90464Y-35211D01*
X90673Y-35420D01*
X90946Y-35533D01*
X91241Y-35533D01*
X91514Y-35420D01*
X91723Y-35212D01*
X91836Y-34939D01*
X91836Y-34644D01*
X91836Y-50978D01*
X91811Y-50917D01*
X91641Y-50747D01*
X91419Y-50655D01*
X91179Y-50655D01*
X90957Y-50747D01*
X90787Y-50917D01*
X90765Y-50968D01*
X90765Y-40470D01*
X90674Y-40248D01*
X90504Y-40078D01*
X90282Y-39986D01*
X90041Y-39986D01*
X89852Y-40064D01*
X89852Y-34644D01*
X89852Y-31667D01*
X89739Y-31395D01*
X89531Y-31186D01*
X89258Y-31072D01*
X88963Y-31072D01*
X88690Y-31185D01*
X88533Y-31342D01*
X88533Y-28938D01*
X88533Y-27938D01*
X88495Y-27846D01*
X88425Y-27776D01*
X88333Y-27738D01*
X88233Y-27738D01*
X87233Y-27738D01*
X87142Y-27776D01*
X87071Y-27846D01*
X87033Y-27938D01*
X87033Y-28037D01*
X87033Y-29037D01*
X87071Y-29129D01*
X87141Y-29200D01*
X87233Y-29238D01*
X87332Y-29238D01*
X88332Y-29238D01*
X88424Y-29200D01*
X88495Y-29129D01*
X88533Y-29038D01*
X88533Y-28938D01*
X88533Y-31342D01*
X88481Y-31394D01*
X88368Y-31666D01*
X88367Y-31961D01*
X88480Y-32234D01*
X88689Y-32443D01*
X88961Y-32556D01*
X89257Y-32557D01*
X89530Y-32444D01*
X89739Y-32235D01*
X89852Y-31963D01*
X89852Y-31667D01*
X89852Y-34644D01*
X89739Y-34371D01*
X89531Y-34162D01*
X89258Y-34049D01*
X88963Y-34049D01*
X88690Y-34161D01*
X88481Y-34370D01*
X88368Y-34643D01*
X88367Y-34938D01*
X88480Y-35211D01*
X88689Y-35420D01*
X88961Y-35533D01*
X89257Y-35533D01*
X89530Y-35420D01*
X89739Y-35212D01*
X89852Y-34939D01*
X89852Y-34644D01*
X89852Y-40064D01*
X89819Y-40077D01*
X89649Y-40247D01*
X89557Y-40469D01*
X89557Y-40618D01*
X88783Y-41391D01*
X88305Y-41391D01*
X88201Y-41287D01*
X87979Y-41194D01*
X87868Y-41194D01*
X87868Y-34644D01*
X87868Y-31667D01*
X87755Y-31395D01*
X87546Y-31186D01*
X87274Y-31072D01*
X86979Y-31072D01*
X86706Y-31185D01*
X86533Y-31357D01*
X86533Y-28339D01*
X86419Y-28063D01*
X86208Y-27852D01*
X85933Y-27738D01*
X85634Y-27738D01*
X85359Y-27851D01*
X85148Y-28062D01*
X85033Y-28338D01*
X85033Y-28636D01*
X85147Y-28912D01*
X85358Y-29123D01*
X85633Y-29238D01*
X85931Y-29238D01*
X86207Y-29124D01*
X86418Y-28913D01*
X86533Y-28638D01*
X86533Y-28339D01*
X86533Y-31357D01*
X86497Y-31394D01*
X86383Y-31666D01*
X86383Y-31961D01*
X86496Y-32234D01*
X86705Y-32443D01*
X86977Y-32556D01*
X87272Y-32557D01*
X87545Y-32444D01*
X87754Y-32235D01*
X87867Y-31963D01*
X87868Y-31667D01*
X87868Y-34644D01*
X87755Y-34371D01*
X87546Y-34162D01*
X87274Y-34049D01*
X86979Y-34049D01*
X86706Y-34161D01*
X86497Y-34370D01*
X86383Y-34643D01*
X86383Y-34938D01*
X86496Y-35211D01*
X86705Y-35420D01*
X86977Y-35533D01*
X87272Y-35533D01*
X87545Y-35420D01*
X87754Y-35212D01*
X87867Y-34939D01*
X87868Y-34644D01*
X87868Y-41194D01*
X87738Y-41194D01*
X87516Y-41286D01*
X87346Y-41456D01*
X87254Y-41678D01*
X87253Y-41918D01*
X87345Y-42141D01*
X87442Y-42238D01*
X87442Y-43792D01*
X87433Y-43783D01*
X87211Y-43691D01*
X86970Y-43690D01*
X86966Y-43692D01*
X84998Y-41724D01*
X84998Y-34025D01*
X84906Y-33803D01*
X84736Y-33633D01*
X84533Y-33549D01*
X84533Y-28339D01*
X84419Y-28063D01*
X84208Y-27852D01*
X83933Y-27738D01*
X83634Y-27738D01*
X83359Y-27851D01*
X83148Y-28062D01*
X83033Y-28338D01*
X83033Y-28636D01*
X83147Y-28912D01*
X83358Y-29123D01*
X83633Y-29238D01*
X83931Y-29238D01*
X84207Y-29124D01*
X84418Y-28913D01*
X84533Y-28638D01*
X84533Y-28339D01*
X84533Y-33549D01*
X84514Y-33541D01*
X84365Y-33541D01*
X83839Y-33015D01*
X83707Y-32926D01*
X83551Y-32895D01*
X83551Y-32895D01*
X81915Y-32895D01*
X81915Y-31667D01*
X81802Y-31395D01*
X81594Y-31186D01*
X81321Y-31072D01*
X81026Y-31072D01*
X80753Y-31185D01*
X80544Y-31394D01*
X80431Y-31666D01*
X80430Y-31961D01*
X80543Y-32234D01*
X80752Y-32443D01*
X81024Y-32556D01*
X81320Y-32557D01*
X81593Y-32444D01*
X81802Y-32235D01*
X81915Y-31963D01*
X81915Y-31667D01*
X81915Y-32895D01*
X81807Y-32895D01*
X81802Y-32883D01*
X81594Y-32674D01*
X81321Y-32561D01*
X81026Y-32560D01*
X80753Y-32673D01*
X80544Y-32882D01*
X80431Y-33154D01*
X80430Y-33450D01*
X80543Y-33722D01*
X80752Y-33931D01*
X81024Y-34045D01*
X81320Y-34045D01*
X81593Y-33932D01*
X81802Y-33724D01*
X81807Y-33710D01*
X83382Y-33710D01*
X83789Y-34117D01*
X83789Y-34265D01*
X83881Y-34487D01*
X84050Y-34657D01*
X84272Y-34749D01*
X84513Y-34750D01*
X84735Y-34658D01*
X84905Y-34488D01*
X84997Y-34266D01*
X84998Y-34025D01*
X84998Y-41724D01*
X83436Y-40162D01*
X83501Y-40006D01*
X83502Y-39766D01*
X83410Y-39543D01*
X83240Y-39373D01*
X83018Y-39281D01*
X82777Y-39281D01*
X82555Y-39373D01*
X82385Y-39543D01*
X82293Y-39765D01*
X82293Y-40005D01*
X82320Y-40072D01*
X82313Y-40072D01*
X82091Y-40164D01*
X81921Y-40334D01*
X81915Y-40347D01*
X81915Y-34644D01*
X81802Y-34371D01*
X81594Y-34162D01*
X81321Y-34049D01*
X81026Y-34049D01*
X80753Y-34161D01*
X80544Y-34370D01*
X80431Y-34643D01*
X80430Y-34938D01*
X80543Y-35211D01*
X80752Y-35420D01*
X81024Y-35533D01*
X81320Y-35533D01*
X81593Y-35420D01*
X81802Y-35212D01*
X81915Y-34939D01*
X81915Y-34644D01*
X81915Y-40347D01*
X81828Y-40556D01*
X81828Y-40796D01*
X81920Y-41019D01*
X82090Y-41189D01*
X82312Y-41281D01*
X82552Y-41281D01*
X82651Y-41240D01*
X86495Y-45084D01*
X86494Y-45087D01*
X86493Y-45328D01*
X86585Y-45550D01*
X86755Y-45720D01*
X86977Y-45812D01*
X87218Y-45813D01*
X87440Y-45721D01*
X87610Y-45551D01*
X87625Y-45516D01*
X89092Y-46983D01*
X89092Y-47131D01*
X89184Y-47353D01*
X89354Y-47523D01*
X89576Y-47616D01*
X89816Y-47616D01*
X90038Y-47524D01*
X90208Y-47354D01*
X90301Y-47132D01*
X90301Y-46892D01*
X90209Y-46669D01*
X90039Y-46499D01*
X89817Y-46407D01*
X89668Y-46407D01*
X88257Y-44996D01*
X88257Y-42254D01*
X88305Y-42206D01*
X88952Y-42206D01*
X88952Y-42206D01*
X88952Y-42206D01*
X89108Y-42175D01*
X89240Y-42087D01*
X90133Y-41194D01*
X90281Y-41194D01*
X90503Y-41103D01*
X90673Y-40933D01*
X90765Y-40711D01*
X90765Y-40470D01*
X90765Y-50968D01*
X90694Y-51139D01*
X90694Y-51287D01*
X89217Y-52765D01*
X88628Y-52765D01*
X88628Y-49674D01*
X88545Y-49472D01*
X88390Y-49317D01*
X88308Y-49283D01*
X88389Y-49250D01*
X88544Y-49095D01*
X88628Y-48893D01*
X88628Y-48674D01*
X88545Y-48472D01*
X88390Y-48317D01*
X88188Y-48233D01*
X87969Y-48233D01*
X87767Y-48316D01*
X87612Y-48471D01*
X87528Y-48673D01*
X87528Y-48892D01*
X87612Y-49094D01*
X87766Y-49249D01*
X87848Y-49283D01*
X87767Y-49316D01*
X87612Y-49471D01*
X87528Y-49673D01*
X87528Y-49892D01*
X87612Y-50094D01*
X87750Y-50233D01*
X87728Y-50233D01*
X87636Y-50271D01*
X87566Y-50342D01*
X87528Y-50433D01*
X87528Y-50670D01*
X87591Y-50733D01*
X88028Y-50733D01*
X88028Y-50725D01*
X88128Y-50725D01*
X88128Y-50733D01*
X88566Y-50733D01*
X88628Y-50670D01*
X88628Y-50433D01*
X88590Y-50342D01*
X88520Y-50271D01*
X88428Y-50233D01*
X88406Y-50233D01*
X88544Y-50095D01*
X88628Y-49893D01*
X88628Y-49674D01*
X88628Y-52765D01*
X88628Y-52765D01*
X88628Y-51132D01*
X88628Y-50895D01*
X88566Y-50833D01*
X88128Y-50833D01*
X88128Y-51270D01*
X88191Y-51333D01*
X88329Y-51333D01*
X88428Y-51333D01*
X88520Y-51295D01*
X88590Y-51224D01*
X88628Y-51132D01*
X88628Y-52765D01*
X88028Y-52765D01*
X88028Y-51270D01*
X88028Y-50833D01*
X87591Y-50833D01*
X87528Y-50895D01*
X87528Y-51132D01*
X87566Y-51224D01*
X87636Y-51295D01*
X87728Y-51333D01*
X87828Y-51333D01*
X87966Y-51333D01*
X88028Y-51270D01*
X88028Y-52765D01*
X86279Y-52765D01*
X86279Y-52765D01*
X86279Y-52765D01*
X82531Y-52765D01*
X82531Y-52765D01*
X82500Y-52771D01*
X82375Y-52796D01*
X82243Y-52885D01*
X82243Y-52885D01*
X81898Y-53230D01*
X81750Y-53230D01*
X81528Y-53322D01*
X81358Y-53491D01*
X81265Y-53713D01*
X81265Y-53954D01*
X81357Y-54176D01*
X81527Y-54346D01*
X81749Y-54438D01*
X81989Y-54439D01*
X82211Y-54347D01*
X82382Y-54177D01*
X82474Y-53955D01*
X82474Y-53806D01*
X82700Y-53580D01*
X86110Y-53580D01*
X86368Y-53838D01*
X86368Y-54497D01*
X86279Y-54586D01*
X86187Y-54808D01*
X86186Y-55048D01*
X86278Y-55271D01*
X86448Y-55441D01*
X86670Y-55533D01*
X86911Y-55533D01*
X87133Y-55441D01*
X87303Y-55271D01*
X87395Y-55049D01*
X87395Y-54809D01*
X87303Y-54587D01*
X87183Y-54466D01*
X87183Y-53669D01*
X87183Y-53669D01*
X87183Y-53669D01*
X87165Y-53580D01*
X89385Y-53580D01*
X89385Y-53580D01*
X89385Y-53580D01*
X89541Y-53549D01*
X89673Y-53461D01*
X91271Y-51864D01*
X91418Y-51864D01*
X91641Y-51772D01*
X91811Y-51602D01*
X91903Y-51380D01*
X91903Y-51140D01*
X91903Y-60905D01*
X89798Y-60905D01*
X89798Y-60781D01*
X89798Y-58273D01*
X81981Y-58273D01*
X81981Y-60781D01*
X89798Y-60781D01*
X89798Y-60905D01*
X85700Y-60905D01*
X85681Y-60901D01*
X85661Y-60905D01*
X77523Y-60905D01*
X77523Y-60110D01*
X77750Y-60338D01*
X78136Y-60498D01*
X78554Y-60499D01*
X78940Y-60339D01*
X79236Y-60044D01*
X79396Y-59658D01*
X79396Y-59240D01*
X79237Y-58854D01*
X78942Y-58559D01*
X78556Y-58399D01*
X78138Y-58398D01*
X77752Y-58558D01*
X77523Y-58786D01*
X77523Y-29402D01*
X77750Y-29629D01*
X78136Y-29789D01*
X78554Y-29790D01*
X78940Y-29630D01*
X79236Y-29335D01*
X79396Y-28949D01*
X79396Y-28532D01*
X79237Y-28146D01*
X78942Y-27850D01*
X78556Y-27690D01*
X78138Y-27689D01*
X77752Y-27849D01*
X77523Y-28077D01*
X77523Y-27204D01*
X94543Y-27204D01*
X94543Y-28097D01*
X94296Y-27850D01*
X93910Y-27690D01*
X93492Y-27689D01*
X93106Y-27849D01*
X92811Y-28144D01*
X92650Y-28530D01*
X92650Y-28948D01*
X92810Y-29334D01*
X93105Y-29629D01*
X93491Y-29789D01*
X93908Y-29790D01*
X94294Y-29630D01*
X94543Y-29382D01*
X94543Y-58806D01*
X94296Y-58559D01*
X93910Y-58399D01*
X93492Y-58398D01*
X93106Y-58558D01*
X92811Y-58853D01*
X92650Y-59239D01*
X92650Y-59656D01*
X92810Y-60042D01*
X93105Y-60338D01*
X93491Y-60498D01*
X93908Y-60499D01*
X94294Y-60339D01*
X94543Y-60091D01*
X94543Y-60905D01*
M02*
