M48
;DRILL file {Pcbnew (2013-may-18)-stable} date Thu 02 Apr 2015 10:01:27 PM CEST
;FORMAT={-:-/ absolute / metric / decimal}
FMAT,2
METRIC,TZ
T1C1.000
T2C1.016
T3C1.300
T4C1.524
T5C3.048
%
G90
G05
M71
T1
X203.07Y-119.75
X205.53Y-104.94
X206.2Y-122.88
X207.87Y-116.45
X207.95Y-136.74
X209.38Y-103.32
X210.5Y-119.53
X210.56Y-101.31
X210.61Y-98.52
X214.36Y-86.73
X217.09Y-139.56
X217.09Y-145.77
X217.44Y-105.73
X217.55Y-93.27
X217.63Y-99.1
X217.71Y-127.97
X218.77Y-115.67
X220.45Y-139.52
X220.75Y-109.08
X221.21Y-112.51
X221.23Y-114.83
X223.16Y-106.17
X227.83Y-119.41
X229.01Y-103.1
X230.39Y-125.17
X231.9Y-130.2
T2
X223.72Y-123.91
X223.72Y-126.45
X223.72Y-128.99
T3
X206.18Y-80.81
X206.18Y-84.59
X206.18Y-88.37
X221.3Y-80.81
X221.3Y-88.37
X226.34Y-80.81
X226.34Y-88.37
X231.38Y-80.81
X231.38Y-88.37
T4
X212.81Y-72.36
X217.89Y-72.36
X222.97Y-72.36
T5
X199.Y-73.
X199.Y-151.
X238.Y-73.
X238.Y-151.
T0
M30
