G04 (created by PCBNEW (2013-may-18)-stable) date Sat 04 Apr 2015 12:39:56 AM CEST*
%MOIN*%
G04 Gerber Fmt 3.4, Leading zero omitted, Abs format*
%FSLAX34Y34*%
G01*
G70*
G90*
G04 APERTURE LIST*
%ADD10C,0.00590551*%
%ADD11R,0.0787X0.0177*%
%ADD12R,0.0177X0.0787*%
%ADD13R,0.0629921X0.0551181*%
%ADD14R,0.144X0.08*%
%ADD15R,0.04X0.08*%
%ADD16R,0.045X0.02*%
%ADD17R,0.08X0.06*%
%ADD18R,0.06X0.08*%
%ADD19R,0.0251968X0.1*%
%ADD20R,0.0996063X0.205118*%
%ADD21R,0.06X0.06*%
%ADD22C,0.06*%
%ADD23R,0.0590551X0.0917323*%
%ADD24C,0.0984252*%
%ADD25R,0.0629X0.0709*%
%ADD26R,0.2205X0.0827*%
%ADD27C,0.16*%
%ADD28R,0.1X0.1*%
%ADD29C,0.1*%
%ADD30C,0.0708661*%
%ADD31C,0.0314961*%
%ADD32C,0.0177165*%
%ADD33C,0.0787402*%
%ADD34C,0.01*%
G04 APERTURE END LIST*
G54D10*
G54D11*
X83291Y-43539D03*
X83291Y-43224D03*
X83291Y-42909D03*
X83291Y-42594D03*
X83291Y-42279D03*
X83291Y-41964D03*
X83291Y-41649D03*
X83291Y-41334D03*
X83291Y-46062D03*
X89587Y-46062D03*
X89587Y-41334D03*
X83291Y-43857D03*
X83291Y-44172D03*
X83291Y-44487D03*
X83291Y-44802D03*
X83291Y-45117D03*
X83291Y-45432D03*
X83291Y-45747D03*
X89587Y-45747D03*
X89587Y-45432D03*
X89587Y-45117D03*
X89587Y-44802D03*
X89587Y-44487D03*
X89587Y-44172D03*
X89587Y-43857D03*
X89587Y-43539D03*
X89587Y-43224D03*
X89587Y-42909D03*
X89587Y-42594D03*
X89587Y-42279D03*
X89587Y-41964D03*
X89587Y-41649D03*
G54D12*
X84075Y-40546D03*
X84389Y-40546D03*
X84705Y-40546D03*
X85019Y-40546D03*
X85335Y-40546D03*
X85649Y-40546D03*
X86595Y-40546D03*
X87225Y-40546D03*
X87539Y-40546D03*
X85965Y-40546D03*
X86279Y-40546D03*
X86909Y-40546D03*
X87855Y-40546D03*
X88169Y-40546D03*
X88485Y-40546D03*
X88799Y-40546D03*
X84075Y-46846D03*
X84389Y-46846D03*
X84705Y-46846D03*
X85019Y-46846D03*
X85335Y-46846D03*
X85649Y-46846D03*
X85965Y-46846D03*
X86279Y-46846D03*
X86595Y-46846D03*
X86909Y-46846D03*
X87225Y-46846D03*
X87539Y-46846D03*
X87855Y-46846D03*
X88169Y-46846D03*
X88485Y-46846D03*
X88799Y-46846D03*
G54D13*
X92748Y-39362D03*
X89440Y-39362D03*
X92748Y-37590D03*
X89440Y-37590D03*
G54D14*
X91169Y-47782D03*
G54D15*
X91169Y-50382D03*
X92069Y-50382D03*
X90269Y-50382D03*
G54D16*
X89601Y-51891D03*
X87501Y-51891D03*
X89601Y-52391D03*
X89601Y-52891D03*
X89601Y-53391D03*
X87501Y-52391D03*
X87501Y-52891D03*
X87501Y-53391D03*
X81500Y-40391D03*
X81500Y-39891D03*
X81500Y-39391D03*
X81500Y-38891D03*
X81500Y-38391D03*
X81500Y-37891D03*
X81500Y-37391D03*
X81500Y-36891D03*
X79500Y-36891D03*
X79500Y-37391D03*
X79500Y-37891D03*
X79500Y-38391D03*
X79500Y-38891D03*
X79500Y-39391D03*
X79500Y-39891D03*
X79500Y-40391D03*
G54D17*
X90838Y-52129D03*
X90838Y-53429D03*
X84389Y-37869D03*
X84389Y-39169D03*
G54D18*
X88279Y-39000D03*
X86979Y-39000D03*
G54D17*
X92070Y-53433D03*
X92070Y-52133D03*
X86488Y-49488D03*
X86488Y-48188D03*
X84799Y-48208D03*
X84799Y-49508D03*
X83401Y-49508D03*
X83401Y-48208D03*
G54D19*
X83328Y-54940D03*
X83828Y-54940D03*
X84328Y-54940D03*
X84828Y-54940D03*
X82828Y-54940D03*
X82328Y-54940D03*
X81828Y-54940D03*
X81328Y-54940D03*
X87328Y-54940D03*
X87828Y-54940D03*
X88328Y-54940D03*
X88828Y-54940D03*
X89328Y-54940D03*
X89828Y-54940D03*
X90328Y-54940D03*
X90828Y-54940D03*
G54D20*
X80578Y-59584D03*
X91578Y-59584D03*
G54D21*
X88078Y-50783D03*
G54D22*
X88078Y-49783D03*
X88078Y-48783D03*
G54D23*
X79940Y-42452D03*
X79940Y-44838D03*
X78940Y-42452D03*
X80940Y-42452D03*
X80940Y-44838D03*
X78940Y-44838D03*
G54D24*
X81173Y-31814D03*
X89110Y-31814D03*
X81173Y-34791D03*
X89110Y-34791D03*
X91094Y-31814D03*
X91094Y-34791D03*
X87125Y-31814D03*
X87125Y-34791D03*
X81173Y-33303D03*
G54D25*
X92027Y-43220D03*
X90909Y-43220D03*
G54D26*
X85464Y-51566D03*
X81646Y-51566D03*
G54D27*
X93700Y-59448D03*
X78346Y-59448D03*
X93700Y-28740D03*
X78346Y-28740D03*
G54D18*
X90818Y-41751D03*
X92118Y-41751D03*
G54D28*
X87783Y-28488D03*
G54D29*
X85783Y-28488D03*
X83783Y-28488D03*
G54D30*
X91299Y-51259D03*
X86791Y-54929D03*
X81870Y-53834D03*
X84393Y-34145D03*
X90161Y-40590D03*
X89696Y-47011D03*
X87858Y-41799D03*
X79948Y-47145D03*
X81181Y-48377D03*
X82874Y-47059D03*
X81838Y-45846D03*
X86909Y-42944D03*
X85606Y-41625D03*
X82917Y-38787D03*
X80917Y-41314D03*
X90704Y-49279D03*
X85649Y-36720D03*
X85681Y-39015D03*
X85712Y-50381D03*
X86129Y-45539D03*
X85468Y-54944D03*
X85468Y-57389D03*
X82897Y-39885D03*
X87090Y-44295D03*
X82433Y-40677D03*
X87098Y-45208D03*
G54D31*
X90838Y-52129D02*
X90838Y-51720D01*
X90838Y-51720D02*
X91299Y-51259D01*
X87328Y-54940D02*
X86803Y-54940D01*
X86803Y-54940D02*
X86791Y-54929D01*
X87828Y-54940D02*
X87328Y-54940D01*
X88328Y-54940D02*
X87828Y-54940D01*
X81828Y-54940D02*
X81328Y-54940D01*
X81828Y-53875D02*
X81828Y-54940D01*
X81870Y-53834D02*
X81828Y-53875D01*
X81828Y-54940D02*
X82328Y-54940D01*
X90838Y-52129D02*
X90838Y-51763D01*
X90269Y-51194D02*
X90269Y-50382D01*
X90838Y-51763D02*
X90269Y-51194D01*
X82328Y-54940D02*
X81828Y-54940D01*
X81173Y-33303D02*
X79118Y-33303D01*
X78582Y-33838D02*
X78582Y-37157D01*
X79118Y-33303D02*
X78582Y-33838D01*
X84389Y-37869D02*
X84389Y-34149D01*
X84389Y-34149D02*
X84393Y-34145D01*
X87501Y-52891D02*
X80049Y-52891D01*
X79590Y-48653D02*
X79661Y-48724D01*
X79590Y-52433D02*
X79590Y-48653D01*
X80049Y-52891D02*
X79590Y-52433D01*
X83401Y-49508D02*
X80445Y-49508D01*
X78051Y-43342D02*
X78940Y-42452D01*
X78051Y-47114D02*
X78051Y-43342D01*
X80445Y-49508D02*
X79661Y-48724D01*
X79661Y-48724D02*
X78051Y-47114D01*
G54D32*
X85335Y-46846D02*
X85335Y-43424D01*
X87704Y-41385D02*
X87855Y-41235D01*
X87374Y-41385D02*
X87704Y-41385D01*
X85335Y-43424D02*
X87374Y-41385D01*
G54D31*
X78940Y-42452D02*
X78940Y-41299D01*
X78940Y-41299D02*
X78582Y-40940D01*
X78582Y-40940D02*
X78582Y-37157D01*
X78848Y-36891D02*
X79500Y-36891D01*
X78582Y-37157D02*
X78848Y-36891D01*
X90830Y-41751D02*
X90830Y-41267D01*
X90161Y-40598D02*
X90161Y-40590D01*
X90830Y-41267D02*
X90161Y-40598D01*
G54D32*
X87855Y-40546D02*
X87855Y-41235D01*
X87855Y-41235D02*
X87855Y-41795D01*
G54D31*
X92069Y-49317D02*
X91381Y-48629D01*
X91381Y-48629D02*
X90480Y-48629D01*
X90480Y-48629D02*
X89696Y-47846D01*
X89696Y-47846D02*
X89696Y-47011D01*
X92069Y-49317D02*
X92069Y-50382D01*
G54D32*
X87855Y-41795D02*
X87858Y-41799D01*
G54D31*
X88279Y-38508D02*
X88279Y-39000D01*
G54D32*
X88279Y-39000D02*
X88185Y-39000D01*
X87855Y-39330D02*
X87855Y-40546D01*
X88185Y-39000D02*
X87855Y-39330D01*
G54D31*
X92070Y-52062D02*
X92070Y-50384D01*
X92070Y-50384D02*
X92069Y-50382D01*
X87641Y-37869D02*
X88279Y-38508D01*
X84389Y-37869D02*
X87641Y-37869D01*
G54D32*
X79940Y-42452D02*
X79940Y-43086D01*
X82428Y-41649D02*
X83291Y-41649D01*
X81901Y-42177D02*
X82428Y-41649D01*
X81901Y-43000D02*
X81901Y-42177D01*
X81582Y-43318D02*
X81901Y-43000D01*
X80173Y-43318D02*
X81582Y-43318D01*
X79940Y-43086D02*
X80173Y-43318D01*
X78940Y-44838D02*
X78940Y-44070D01*
X82669Y-41964D02*
X83291Y-41964D01*
X82350Y-42283D02*
X82669Y-41964D01*
X82350Y-43259D02*
X82350Y-42283D01*
X81944Y-43665D02*
X82350Y-43259D01*
X79346Y-43665D02*
X81944Y-43665D01*
X78940Y-44070D02*
X79346Y-43665D01*
G54D31*
X81181Y-48377D02*
X79948Y-47145D01*
X82874Y-46881D02*
X82874Y-47059D01*
X81838Y-45846D02*
X82874Y-46881D01*
G54D32*
X84389Y-40546D02*
X84389Y-40999D01*
X86129Y-43724D02*
X86129Y-45539D01*
X86909Y-42944D02*
X86129Y-43724D01*
X85015Y-41625D02*
X85606Y-41625D01*
X84389Y-40999D02*
X85015Y-41625D01*
X83983Y-38763D02*
X84389Y-39169D01*
X82940Y-38763D02*
X83983Y-38763D01*
X82917Y-38787D02*
X82940Y-38763D01*
X80940Y-41338D02*
X80917Y-41314D01*
X91169Y-50382D02*
X91169Y-49744D01*
X91169Y-49744D02*
X90704Y-49279D01*
X86979Y-39000D02*
X85696Y-39000D01*
X88629Y-36779D02*
X89440Y-37590D01*
X85708Y-36779D02*
X88629Y-36779D01*
X85649Y-36720D02*
X85708Y-36779D01*
X85696Y-39000D02*
X85681Y-39015D01*
X86488Y-49488D02*
X86488Y-49606D01*
X86488Y-49606D02*
X85712Y-50381D01*
X85649Y-46020D02*
X85649Y-46846D01*
X86129Y-45539D02*
X85649Y-46020D01*
X80940Y-42452D02*
X80940Y-41338D01*
X84389Y-39169D02*
X84389Y-40546D01*
X84389Y-40546D02*
X84389Y-40546D01*
X86979Y-39000D02*
X87133Y-39000D01*
X87577Y-40546D02*
X87539Y-40546D01*
X87577Y-39443D02*
X87577Y-40546D01*
X87133Y-39000D02*
X87577Y-39443D01*
G54D31*
X90828Y-54940D02*
X90328Y-54940D01*
X90328Y-54940D02*
X89828Y-54940D01*
X84828Y-54940D02*
X85464Y-54940D01*
X85464Y-54940D02*
X85468Y-54944D01*
X90328Y-56820D02*
X90328Y-54940D01*
X85468Y-57389D02*
X85484Y-57405D01*
X85484Y-57405D02*
X89744Y-57405D01*
X89744Y-57405D02*
X90328Y-56820D01*
X84328Y-54940D02*
X84828Y-54940D01*
X83828Y-54940D02*
X84328Y-54940D01*
G54D32*
X84799Y-48208D02*
X84909Y-48208D01*
X85661Y-46859D02*
X85649Y-46846D01*
X85661Y-47456D02*
X85661Y-46859D01*
X84909Y-48208D02*
X85661Y-47456D01*
X88078Y-49783D02*
X88078Y-49685D01*
X87225Y-48067D02*
X87225Y-46846D01*
X87570Y-48413D02*
X87225Y-48067D01*
X87570Y-49177D02*
X87570Y-48413D01*
X88078Y-49685D02*
X87570Y-49177D01*
X88078Y-48783D02*
X88078Y-48460D01*
X87539Y-47920D02*
X87539Y-46846D01*
X88078Y-48460D02*
X87539Y-47920D01*
X89587Y-45117D02*
X87913Y-45117D01*
X82891Y-39891D02*
X81500Y-39891D01*
X82897Y-39885D02*
X82891Y-39891D01*
X87913Y-45117D02*
X87090Y-44295D01*
X89587Y-45432D02*
X87322Y-45432D01*
X82147Y-40391D02*
X81500Y-40391D01*
X82433Y-40677D02*
X82147Y-40391D01*
X87322Y-45432D02*
X87098Y-45208D01*
G54D33*
X91094Y-34791D02*
X91094Y-31814D01*
X91094Y-31814D02*
X91094Y-29976D01*
X89606Y-28488D02*
X87783Y-28488D01*
X91094Y-29976D02*
X89606Y-28488D01*
G54D32*
X81173Y-31814D02*
X81688Y-31814D01*
X80155Y-40391D02*
X79500Y-40391D01*
X80500Y-40047D02*
X80155Y-40391D01*
X80500Y-36559D02*
X80500Y-40047D01*
X81043Y-36015D02*
X80500Y-36559D01*
X81704Y-36015D02*
X81043Y-36015D01*
X82413Y-35307D02*
X81704Y-36015D01*
X82413Y-32539D02*
X82413Y-35307D01*
X81688Y-31814D02*
X82413Y-32539D01*
X81173Y-34791D02*
X80708Y-34791D01*
X80005Y-39891D02*
X79500Y-39891D01*
X80098Y-39799D02*
X80005Y-39891D01*
X80098Y-35401D02*
X80098Y-39799D01*
X80708Y-34791D02*
X80098Y-35401D01*
X89440Y-39362D02*
X89200Y-39362D01*
X88169Y-39838D02*
X88169Y-40546D01*
X88287Y-39720D02*
X88169Y-39838D01*
X88842Y-39720D02*
X88287Y-39720D01*
X89200Y-39362D02*
X88842Y-39720D01*
G54D31*
X92748Y-39362D02*
X89440Y-39362D01*
G54D32*
X89328Y-54940D02*
X89328Y-56202D01*
X83328Y-56135D02*
X83328Y-54940D01*
X83637Y-56444D02*
X83328Y-56135D01*
X89086Y-56444D02*
X83637Y-56444D01*
X89328Y-56202D02*
X89086Y-56444D01*
X89601Y-52891D02*
X89147Y-52891D01*
X89328Y-53998D02*
X89328Y-54940D01*
X89078Y-53748D02*
X89328Y-53998D01*
X89078Y-52960D02*
X89078Y-53748D01*
X89147Y-52891D02*
X89078Y-52960D01*
X88828Y-54940D02*
X88828Y-54179D01*
X82828Y-54147D02*
X82828Y-54940D01*
X83035Y-53940D02*
X82828Y-54147D01*
X88590Y-53940D02*
X83035Y-53940D01*
X88828Y-54179D02*
X88590Y-53940D01*
X89601Y-52391D02*
X89120Y-52391D01*
X88828Y-54159D02*
X88828Y-54940D01*
X88779Y-54110D02*
X88828Y-54159D01*
X88779Y-52732D02*
X88779Y-54110D01*
X89120Y-52391D02*
X88779Y-52732D01*
G54D33*
X87125Y-34791D02*
X87125Y-31814D01*
X87125Y-31814D02*
X84614Y-31814D01*
X83783Y-30984D02*
X83783Y-28488D01*
X84614Y-31814D02*
X83783Y-30984D01*
X89110Y-34791D02*
X89110Y-31814D01*
X89110Y-31814D02*
X89110Y-31448D01*
X85783Y-30039D02*
X85783Y-28488D01*
X85984Y-30240D02*
X85783Y-30039D01*
X87901Y-30240D02*
X85984Y-30240D01*
X89110Y-31448D02*
X87901Y-30240D01*
G54D32*
X90909Y-43220D02*
X89591Y-43220D01*
X89591Y-43220D02*
X89587Y-43224D01*
X81646Y-51566D02*
X82783Y-51566D01*
X84799Y-50051D02*
X84799Y-49508D01*
X84409Y-50440D02*
X84799Y-50051D01*
X83909Y-50440D02*
X84409Y-50440D01*
X82783Y-51566D02*
X83909Y-50440D01*
X84799Y-49508D02*
X85153Y-49508D01*
X85965Y-47601D02*
X85965Y-46846D01*
X85708Y-47858D02*
X85965Y-47601D01*
X85708Y-48952D02*
X85708Y-47858D01*
X85153Y-49508D02*
X85708Y-48952D01*
X85464Y-51566D02*
X85673Y-51566D01*
X87271Y-48972D02*
X86488Y-48188D01*
X87271Y-49968D02*
X87271Y-48972D01*
X85673Y-51566D02*
X87271Y-49968D01*
X86488Y-48188D02*
X86488Y-47787D01*
X86279Y-47578D02*
X86279Y-46846D01*
X86488Y-47787D02*
X86279Y-47578D01*
X87501Y-51891D02*
X87501Y-51727D01*
X88169Y-47999D02*
X88169Y-46846D01*
X88688Y-48519D02*
X88169Y-47999D01*
X88688Y-51259D02*
X88688Y-48519D01*
X88547Y-51401D02*
X88688Y-51259D01*
X87826Y-51401D02*
X88547Y-51401D01*
X87501Y-51727D02*
X87826Y-51401D01*
X87501Y-53391D02*
X87946Y-53391D01*
X88485Y-47855D02*
X88485Y-46846D01*
X88988Y-48358D02*
X88485Y-47855D01*
X88988Y-51381D02*
X88988Y-48358D01*
X88350Y-52019D02*
X88988Y-51381D01*
X88350Y-52988D02*
X88350Y-52019D01*
X87946Y-53391D02*
X88350Y-52988D01*
X92027Y-43220D02*
X92027Y-41854D01*
X92027Y-41854D02*
X92130Y-41751D01*
X79940Y-44838D02*
X79940Y-44334D01*
X82381Y-44487D02*
X83291Y-44487D01*
X81905Y-44011D02*
X82381Y-44487D01*
X80263Y-44011D02*
X81905Y-44011D01*
X79940Y-44334D02*
X80263Y-44011D01*
G54D31*
X83401Y-48208D02*
X82724Y-48208D01*
X80940Y-46425D02*
X80940Y-44838D01*
X82724Y-48208D02*
X80940Y-46425D01*
G54D32*
X83401Y-48208D02*
X83653Y-48208D01*
X85019Y-47469D02*
X85019Y-46846D01*
X84937Y-47551D02*
X85019Y-47469D01*
X84311Y-47551D02*
X84937Y-47551D01*
X83653Y-48208D02*
X84311Y-47551D01*
G54D10*
G36*
X83905Y-47477D02*
X83725Y-47658D01*
X82952Y-47658D01*
X82860Y-47696D01*
X82824Y-47732D01*
X81348Y-46256D01*
X81348Y-45521D01*
X81377Y-45509D01*
X81448Y-45439D01*
X81486Y-45347D01*
X81486Y-45247D01*
X81486Y-44350D01*
X81765Y-44350D01*
X82142Y-44727D01*
X82251Y-44800D01*
X82251Y-44800D01*
X82381Y-44826D01*
X82647Y-44826D01*
X82647Y-44940D01*
X82655Y-44960D01*
X82647Y-44979D01*
X82647Y-45078D01*
X82647Y-45255D01*
X82655Y-45275D01*
X82647Y-45294D01*
X82647Y-45393D01*
X82647Y-45570D01*
X82655Y-45590D01*
X82647Y-45609D01*
X82647Y-45708D01*
X82647Y-45885D01*
X82655Y-45905D01*
X82647Y-45924D01*
X82647Y-46023D01*
X82647Y-46200D01*
X82685Y-46292D01*
X82755Y-46363D01*
X82847Y-46401D01*
X82947Y-46401D01*
X83734Y-46401D01*
X83738Y-46399D01*
X83736Y-46403D01*
X83736Y-46502D01*
X83736Y-47289D01*
X83774Y-47381D01*
X83844Y-47452D01*
X83905Y-47477D01*
X83905Y-47477D01*
G37*
G54D34*
X83905Y-47477D02*
X83725Y-47658D01*
X82952Y-47658D01*
X82860Y-47696D01*
X82824Y-47732D01*
X81348Y-46256D01*
X81348Y-45521D01*
X81377Y-45509D01*
X81448Y-45439D01*
X81486Y-45347D01*
X81486Y-45247D01*
X81486Y-44350D01*
X81765Y-44350D01*
X82142Y-44727D01*
X82251Y-44800D01*
X82251Y-44800D01*
X82381Y-44826D01*
X82647Y-44826D01*
X82647Y-44940D01*
X82655Y-44960D01*
X82647Y-44979D01*
X82647Y-45078D01*
X82647Y-45255D01*
X82655Y-45275D01*
X82647Y-45294D01*
X82647Y-45393D01*
X82647Y-45570D01*
X82655Y-45590D01*
X82647Y-45609D01*
X82647Y-45708D01*
X82647Y-45885D01*
X82655Y-45905D01*
X82647Y-45924D01*
X82647Y-46023D01*
X82647Y-46200D01*
X82685Y-46292D01*
X82755Y-46363D01*
X82847Y-46401D01*
X82947Y-46401D01*
X83734Y-46401D01*
X83738Y-46399D01*
X83736Y-46403D01*
X83736Y-46502D01*
X83736Y-47289D01*
X83774Y-47381D01*
X83844Y-47452D01*
X83905Y-47477D01*
G54D10*
G36*
X87090Y-41190D02*
X85095Y-43185D01*
X85022Y-43295D01*
X84996Y-43424D01*
X84996Y-46203D01*
X84880Y-46203D01*
X84862Y-46211D01*
X84843Y-46203D01*
X84743Y-46203D01*
X84566Y-46203D01*
X84547Y-46211D01*
X84527Y-46203D01*
X84427Y-46203D01*
X84250Y-46203D01*
X84232Y-46211D01*
X84213Y-46203D01*
X84113Y-46203D01*
X83936Y-46203D01*
X83932Y-46204D01*
X83934Y-46201D01*
X83934Y-46101D01*
X83934Y-45924D01*
X83926Y-45905D01*
X83934Y-45886D01*
X83934Y-45786D01*
X83934Y-45609D01*
X83926Y-45590D01*
X83934Y-45571D01*
X83934Y-45471D01*
X83934Y-45294D01*
X83926Y-45275D01*
X83934Y-45256D01*
X83934Y-45156D01*
X83934Y-44979D01*
X83926Y-44960D01*
X83934Y-44941D01*
X83934Y-44841D01*
X83934Y-44664D01*
X83926Y-44645D01*
X83934Y-44626D01*
X83934Y-44526D01*
X83934Y-44349D01*
X83926Y-44330D01*
X83934Y-44311D01*
X83934Y-44211D01*
X83934Y-44034D01*
X83926Y-44015D01*
X83934Y-43996D01*
X83934Y-43896D01*
X83934Y-43719D01*
X83925Y-43698D01*
X83934Y-43678D01*
X83934Y-43578D01*
X83934Y-43401D01*
X83926Y-43382D01*
X83934Y-43363D01*
X83934Y-43263D01*
X83934Y-43086D01*
X83926Y-43067D01*
X83934Y-43048D01*
X83934Y-42948D01*
X83934Y-42771D01*
X83926Y-42752D01*
X83934Y-42733D01*
X83934Y-42633D01*
X83934Y-42456D01*
X83926Y-42437D01*
X83934Y-42418D01*
X83934Y-42318D01*
X83934Y-42141D01*
X83926Y-42122D01*
X83934Y-42103D01*
X83934Y-42003D01*
X83934Y-41826D01*
X83926Y-41807D01*
X83934Y-41788D01*
X83934Y-41688D01*
X83934Y-41511D01*
X83926Y-41492D01*
X83934Y-41473D01*
X83934Y-41373D01*
X83934Y-41196D01*
X83930Y-41187D01*
X83936Y-41190D01*
X84036Y-41190D01*
X84213Y-41190D01*
X84232Y-41182D01*
X84250Y-41190D01*
X84282Y-41190D01*
X84344Y-41127D01*
X84344Y-41112D01*
X84375Y-41082D01*
X84389Y-41046D01*
X84404Y-41081D01*
X84433Y-41110D01*
X84433Y-41127D01*
X84495Y-41190D01*
X84527Y-41190D01*
X84546Y-41182D01*
X84566Y-41190D01*
X84666Y-41190D01*
X84843Y-41190D01*
X84861Y-41182D01*
X84880Y-41190D01*
X84980Y-41190D01*
X85157Y-41190D01*
X85176Y-41182D01*
X85196Y-41190D01*
X85296Y-41190D01*
X85473Y-41190D01*
X85491Y-41182D01*
X85510Y-41190D01*
X85610Y-41190D01*
X85787Y-41190D01*
X85806Y-41182D01*
X85826Y-41190D01*
X85926Y-41190D01*
X86103Y-41190D01*
X86121Y-41182D01*
X86140Y-41190D01*
X86240Y-41190D01*
X86417Y-41190D01*
X86436Y-41182D01*
X86456Y-41190D01*
X86556Y-41190D01*
X86733Y-41190D01*
X86751Y-41182D01*
X86770Y-41190D01*
X86870Y-41190D01*
X87047Y-41190D01*
X87066Y-41182D01*
X87086Y-41190D01*
X87090Y-41190D01*
X87090Y-41190D01*
G37*
G54D34*
X87090Y-41190D02*
X85095Y-43185D01*
X85022Y-43295D01*
X84996Y-43424D01*
X84996Y-46203D01*
X84880Y-46203D01*
X84862Y-46211D01*
X84843Y-46203D01*
X84743Y-46203D01*
X84566Y-46203D01*
X84547Y-46211D01*
X84527Y-46203D01*
X84427Y-46203D01*
X84250Y-46203D01*
X84232Y-46211D01*
X84213Y-46203D01*
X84113Y-46203D01*
X83936Y-46203D01*
X83932Y-46204D01*
X83934Y-46201D01*
X83934Y-46101D01*
X83934Y-45924D01*
X83926Y-45905D01*
X83934Y-45886D01*
X83934Y-45786D01*
X83934Y-45609D01*
X83926Y-45590D01*
X83934Y-45571D01*
X83934Y-45471D01*
X83934Y-45294D01*
X83926Y-45275D01*
X83934Y-45256D01*
X83934Y-45156D01*
X83934Y-44979D01*
X83926Y-44960D01*
X83934Y-44941D01*
X83934Y-44841D01*
X83934Y-44664D01*
X83926Y-44645D01*
X83934Y-44626D01*
X83934Y-44526D01*
X83934Y-44349D01*
X83926Y-44330D01*
X83934Y-44311D01*
X83934Y-44211D01*
X83934Y-44034D01*
X83926Y-44015D01*
X83934Y-43996D01*
X83934Y-43896D01*
X83934Y-43719D01*
X83925Y-43698D01*
X83934Y-43678D01*
X83934Y-43578D01*
X83934Y-43401D01*
X83926Y-43382D01*
X83934Y-43363D01*
X83934Y-43263D01*
X83934Y-43086D01*
X83926Y-43067D01*
X83934Y-43048D01*
X83934Y-42948D01*
X83934Y-42771D01*
X83926Y-42752D01*
X83934Y-42733D01*
X83934Y-42633D01*
X83934Y-42456D01*
X83926Y-42437D01*
X83934Y-42418D01*
X83934Y-42318D01*
X83934Y-42141D01*
X83926Y-42122D01*
X83934Y-42103D01*
X83934Y-42003D01*
X83934Y-41826D01*
X83926Y-41807D01*
X83934Y-41788D01*
X83934Y-41688D01*
X83934Y-41511D01*
X83926Y-41492D01*
X83934Y-41473D01*
X83934Y-41373D01*
X83934Y-41196D01*
X83930Y-41187D01*
X83936Y-41190D01*
X84036Y-41190D01*
X84213Y-41190D01*
X84232Y-41182D01*
X84250Y-41190D01*
X84282Y-41190D01*
X84344Y-41127D01*
X84344Y-41112D01*
X84375Y-41082D01*
X84389Y-41046D01*
X84404Y-41081D01*
X84433Y-41110D01*
X84433Y-41127D01*
X84495Y-41190D01*
X84527Y-41190D01*
X84546Y-41182D01*
X84566Y-41190D01*
X84666Y-41190D01*
X84843Y-41190D01*
X84861Y-41182D01*
X84880Y-41190D01*
X84980Y-41190D01*
X85157Y-41190D01*
X85176Y-41182D01*
X85196Y-41190D01*
X85296Y-41190D01*
X85473Y-41190D01*
X85491Y-41182D01*
X85510Y-41190D01*
X85610Y-41190D01*
X85787Y-41190D01*
X85806Y-41182D01*
X85826Y-41190D01*
X85926Y-41190D01*
X86103Y-41190D01*
X86121Y-41182D01*
X86140Y-41190D01*
X86240Y-41190D01*
X86417Y-41190D01*
X86436Y-41182D01*
X86456Y-41190D01*
X86556Y-41190D01*
X86733Y-41190D01*
X86751Y-41182D01*
X86770Y-41190D01*
X86870Y-41190D01*
X87047Y-41190D01*
X87066Y-41182D01*
X87086Y-41190D01*
X87090Y-41190D01*
G54D10*
G36*
X88151Y-51740D02*
X88110Y-51780D01*
X88037Y-51890D01*
X88011Y-52019D01*
X88011Y-52847D01*
X87976Y-52883D01*
X87976Y-52742D01*
X87938Y-52650D01*
X87929Y-52641D01*
X87938Y-52633D01*
X87976Y-52541D01*
X87976Y-52504D01*
X87913Y-52441D01*
X87551Y-52441D01*
X87551Y-52449D01*
X87451Y-52449D01*
X87451Y-52441D01*
X87088Y-52441D01*
X87046Y-52484D01*
X80217Y-52484D01*
X79998Y-52264D01*
X79998Y-49637D01*
X80157Y-49796D01*
X80157Y-49796D01*
X80236Y-49849D01*
X80289Y-49884D01*
X80289Y-49884D01*
X80445Y-49915D01*
X80445Y-49915D01*
X80445Y-49915D01*
X82775Y-49915D01*
X82789Y-49949D01*
X82859Y-50020D01*
X82951Y-50058D01*
X83051Y-50058D01*
X83851Y-50058D01*
X83943Y-50020D01*
X84013Y-49950D01*
X84051Y-49858D01*
X84051Y-49758D01*
X84051Y-49158D01*
X84013Y-49066D01*
X83943Y-48996D01*
X83851Y-48958D01*
X83752Y-48958D01*
X82952Y-48958D01*
X82860Y-48996D01*
X82789Y-49066D01*
X82775Y-49100D01*
X80614Y-49100D01*
X79949Y-48436D01*
X79949Y-48436D01*
X79878Y-48365D01*
X79878Y-48365D01*
X79878Y-48365D01*
X78458Y-46945D01*
X78458Y-45463D01*
X78503Y-45509D01*
X78595Y-45547D01*
X78695Y-45547D01*
X79285Y-45547D01*
X79377Y-45509D01*
X79440Y-45446D01*
X79503Y-45509D01*
X79595Y-45547D01*
X79695Y-45547D01*
X80285Y-45547D01*
X80377Y-45509D01*
X80440Y-45446D01*
X80503Y-45509D01*
X80533Y-45521D01*
X80533Y-46425D01*
X80533Y-46425D01*
X80564Y-46581D01*
X80652Y-46713D01*
X82435Y-48496D01*
X82435Y-48496D01*
X82515Y-48549D01*
X82568Y-48584D01*
X82568Y-48584D01*
X82724Y-48615D01*
X82724Y-48615D01*
X82724Y-48615D01*
X82775Y-48615D01*
X82789Y-48649D01*
X82859Y-48720D01*
X82951Y-48758D01*
X83051Y-48758D01*
X83851Y-48758D01*
X83943Y-48720D01*
X84013Y-48650D01*
X84051Y-48558D01*
X84051Y-48458D01*
X84051Y-48289D01*
X84197Y-48143D01*
X84211Y-48158D01*
X84749Y-48158D01*
X84749Y-48150D01*
X84849Y-48150D01*
X84849Y-48158D01*
X84857Y-48158D01*
X84857Y-48258D01*
X84849Y-48258D01*
X84849Y-48695D01*
X84911Y-48758D01*
X85149Y-48758D01*
X85249Y-48758D01*
X85341Y-48720D01*
X85370Y-48690D01*
X85370Y-48812D01*
X85224Y-48958D01*
X85149Y-48958D01*
X84749Y-48958D01*
X84749Y-48695D01*
X84749Y-48258D01*
X84211Y-48258D01*
X84149Y-48320D01*
X84149Y-48557D01*
X84187Y-48649D01*
X84257Y-48720D01*
X84349Y-48758D01*
X84448Y-48758D01*
X84686Y-48758D01*
X84749Y-48695D01*
X84749Y-48958D01*
X84349Y-48958D01*
X84257Y-48996D01*
X84187Y-49066D01*
X84149Y-49158D01*
X84149Y-49257D01*
X84149Y-49857D01*
X84187Y-49949D01*
X84257Y-50020D01*
X84323Y-50047D01*
X84269Y-50102D01*
X83909Y-50102D01*
X83909Y-50102D01*
X83779Y-50128D01*
X83670Y-50201D01*
X83670Y-50201D01*
X82910Y-50961D01*
X82890Y-50941D01*
X82798Y-50903D01*
X82699Y-50903D01*
X80494Y-50903D01*
X80402Y-50941D01*
X80331Y-51011D01*
X80293Y-51103D01*
X80293Y-51202D01*
X80293Y-52029D01*
X80331Y-52121D01*
X80401Y-52192D01*
X80493Y-52230D01*
X80593Y-52230D01*
X82798Y-52230D01*
X82890Y-52192D01*
X82960Y-52122D01*
X82998Y-52030D01*
X82998Y-51930D01*
X82998Y-51822D01*
X83022Y-51806D01*
X84049Y-50779D01*
X84409Y-50779D01*
X84539Y-50753D01*
X84539Y-50753D01*
X84648Y-50680D01*
X85038Y-50290D01*
X85112Y-50180D01*
X85136Y-50058D01*
X85248Y-50058D01*
X85340Y-50020D01*
X85411Y-49950D01*
X85449Y-49858D01*
X85449Y-49758D01*
X85449Y-49690D01*
X85838Y-49302D01*
X85838Y-49376D01*
X85900Y-49438D01*
X86438Y-49438D01*
X86438Y-49001D01*
X86375Y-48938D01*
X86137Y-48938D01*
X86047Y-48938D01*
X86047Y-48738D01*
X86137Y-48738D01*
X86559Y-48738D01*
X86759Y-48938D01*
X86600Y-48938D01*
X86538Y-49001D01*
X86538Y-49438D01*
X86546Y-49438D01*
X86546Y-49538D01*
X86538Y-49538D01*
X86538Y-49976D01*
X86600Y-50038D01*
X86722Y-50038D01*
X86438Y-50323D01*
X86438Y-49976D01*
X86438Y-49538D01*
X85900Y-49538D01*
X85838Y-49601D01*
X85838Y-49838D01*
X85876Y-49930D01*
X85946Y-50000D01*
X86038Y-50038D01*
X86137Y-50038D01*
X86375Y-50038D01*
X86438Y-49976D01*
X86438Y-50323D01*
X85857Y-50903D01*
X84312Y-50903D01*
X84220Y-50941D01*
X84149Y-51011D01*
X84111Y-51103D01*
X84111Y-51202D01*
X84111Y-52029D01*
X84149Y-52121D01*
X84219Y-52192D01*
X84311Y-52230D01*
X84411Y-52230D01*
X86616Y-52230D01*
X86708Y-52192D01*
X86778Y-52122D01*
X86816Y-52030D01*
X86816Y-51930D01*
X86816Y-51103D01*
X86778Y-51012D01*
X86742Y-50976D01*
X87511Y-50207D01*
X87584Y-50098D01*
X87584Y-50098D01*
X87593Y-50050D01*
X87612Y-50094D01*
X87750Y-50233D01*
X87728Y-50233D01*
X87636Y-50271D01*
X87566Y-50342D01*
X87528Y-50433D01*
X87528Y-50670D01*
X87591Y-50733D01*
X88028Y-50733D01*
X88028Y-50725D01*
X88128Y-50725D01*
X88128Y-50733D01*
X88136Y-50733D01*
X88136Y-50833D01*
X88128Y-50833D01*
X88128Y-50841D01*
X88028Y-50841D01*
X88028Y-50833D01*
X87591Y-50833D01*
X87528Y-50895D01*
X87528Y-51132D01*
X87554Y-51195D01*
X87261Y-51487D01*
X87225Y-51542D01*
X87225Y-51542D01*
X87134Y-51579D01*
X87064Y-51649D01*
X87026Y-51741D01*
X87026Y-51841D01*
X87026Y-52041D01*
X87064Y-52133D01*
X87072Y-52141D01*
X87064Y-52150D01*
X87026Y-52242D01*
X87026Y-52279D01*
X87088Y-52341D01*
X87451Y-52341D01*
X87451Y-52333D01*
X87551Y-52333D01*
X87551Y-52341D01*
X87913Y-52341D01*
X87976Y-52279D01*
X87976Y-52242D01*
X87938Y-52150D01*
X87929Y-52141D01*
X87937Y-52133D01*
X87976Y-52041D01*
X87976Y-51942D01*
X87976Y-51742D01*
X87975Y-51740D01*
X88151Y-51740D01*
X88151Y-51740D01*
G37*
G54D34*
X88151Y-51740D02*
X88110Y-51780D01*
X88037Y-51890D01*
X88011Y-52019D01*
X88011Y-52847D01*
X87976Y-52883D01*
X87976Y-52742D01*
X87938Y-52650D01*
X87929Y-52641D01*
X87938Y-52633D01*
X87976Y-52541D01*
X87976Y-52504D01*
X87913Y-52441D01*
X87551Y-52441D01*
X87551Y-52449D01*
X87451Y-52449D01*
X87451Y-52441D01*
X87088Y-52441D01*
X87046Y-52484D01*
X80217Y-52484D01*
X79998Y-52264D01*
X79998Y-49637D01*
X80157Y-49796D01*
X80157Y-49796D01*
X80236Y-49849D01*
X80289Y-49884D01*
X80289Y-49884D01*
X80445Y-49915D01*
X80445Y-49915D01*
X80445Y-49915D01*
X82775Y-49915D01*
X82789Y-49949D01*
X82859Y-50020D01*
X82951Y-50058D01*
X83051Y-50058D01*
X83851Y-50058D01*
X83943Y-50020D01*
X84013Y-49950D01*
X84051Y-49858D01*
X84051Y-49758D01*
X84051Y-49158D01*
X84013Y-49066D01*
X83943Y-48996D01*
X83851Y-48958D01*
X83752Y-48958D01*
X82952Y-48958D01*
X82860Y-48996D01*
X82789Y-49066D01*
X82775Y-49100D01*
X80614Y-49100D01*
X79949Y-48436D01*
X79949Y-48436D01*
X79878Y-48365D01*
X79878Y-48365D01*
X79878Y-48365D01*
X78458Y-46945D01*
X78458Y-45463D01*
X78503Y-45509D01*
X78595Y-45547D01*
X78695Y-45547D01*
X79285Y-45547D01*
X79377Y-45509D01*
X79440Y-45446D01*
X79503Y-45509D01*
X79595Y-45547D01*
X79695Y-45547D01*
X80285Y-45547D01*
X80377Y-45509D01*
X80440Y-45446D01*
X80503Y-45509D01*
X80533Y-45521D01*
X80533Y-46425D01*
X80533Y-46425D01*
X80564Y-46581D01*
X80652Y-46713D01*
X82435Y-48496D01*
X82435Y-48496D01*
X82515Y-48549D01*
X82568Y-48584D01*
X82568Y-48584D01*
X82724Y-48615D01*
X82724Y-48615D01*
X82724Y-48615D01*
X82775Y-48615D01*
X82789Y-48649D01*
X82859Y-48720D01*
X82951Y-48758D01*
X83051Y-48758D01*
X83851Y-48758D01*
X83943Y-48720D01*
X84013Y-48650D01*
X84051Y-48558D01*
X84051Y-48458D01*
X84051Y-48289D01*
X84197Y-48143D01*
X84211Y-48158D01*
X84749Y-48158D01*
X84749Y-48150D01*
X84849Y-48150D01*
X84849Y-48158D01*
X84857Y-48158D01*
X84857Y-48258D01*
X84849Y-48258D01*
X84849Y-48695D01*
X84911Y-48758D01*
X85149Y-48758D01*
X85249Y-48758D01*
X85341Y-48720D01*
X85370Y-48690D01*
X85370Y-48812D01*
X85224Y-48958D01*
X85149Y-48958D01*
X84749Y-48958D01*
X84749Y-48695D01*
X84749Y-48258D01*
X84211Y-48258D01*
X84149Y-48320D01*
X84149Y-48557D01*
X84187Y-48649D01*
X84257Y-48720D01*
X84349Y-48758D01*
X84448Y-48758D01*
X84686Y-48758D01*
X84749Y-48695D01*
X84749Y-48958D01*
X84349Y-48958D01*
X84257Y-48996D01*
X84187Y-49066D01*
X84149Y-49158D01*
X84149Y-49257D01*
X84149Y-49857D01*
X84187Y-49949D01*
X84257Y-50020D01*
X84323Y-50047D01*
X84269Y-50102D01*
X83909Y-50102D01*
X83909Y-50102D01*
X83779Y-50128D01*
X83670Y-50201D01*
X83670Y-50201D01*
X82910Y-50961D01*
X82890Y-50941D01*
X82798Y-50903D01*
X82699Y-50903D01*
X80494Y-50903D01*
X80402Y-50941D01*
X80331Y-51011D01*
X80293Y-51103D01*
X80293Y-51202D01*
X80293Y-52029D01*
X80331Y-52121D01*
X80401Y-52192D01*
X80493Y-52230D01*
X80593Y-52230D01*
X82798Y-52230D01*
X82890Y-52192D01*
X82960Y-52122D01*
X82998Y-52030D01*
X82998Y-51930D01*
X82998Y-51822D01*
X83022Y-51806D01*
X84049Y-50779D01*
X84409Y-50779D01*
X84539Y-50753D01*
X84539Y-50753D01*
X84648Y-50680D01*
X85038Y-50290D01*
X85112Y-50180D01*
X85136Y-50058D01*
X85248Y-50058D01*
X85340Y-50020D01*
X85411Y-49950D01*
X85449Y-49858D01*
X85449Y-49758D01*
X85449Y-49690D01*
X85838Y-49302D01*
X85838Y-49376D01*
X85900Y-49438D01*
X86438Y-49438D01*
X86438Y-49001D01*
X86375Y-48938D01*
X86137Y-48938D01*
X86047Y-48938D01*
X86047Y-48738D01*
X86137Y-48738D01*
X86559Y-48738D01*
X86759Y-48938D01*
X86600Y-48938D01*
X86538Y-49001D01*
X86538Y-49438D01*
X86546Y-49438D01*
X86546Y-49538D01*
X86538Y-49538D01*
X86538Y-49976D01*
X86600Y-50038D01*
X86722Y-50038D01*
X86438Y-50323D01*
X86438Y-49976D01*
X86438Y-49538D01*
X85900Y-49538D01*
X85838Y-49601D01*
X85838Y-49838D01*
X85876Y-49930D01*
X85946Y-50000D01*
X86038Y-50038D01*
X86137Y-50038D01*
X86375Y-50038D01*
X86438Y-49976D01*
X86438Y-50323D01*
X85857Y-50903D01*
X84312Y-50903D01*
X84220Y-50941D01*
X84149Y-51011D01*
X84111Y-51103D01*
X84111Y-51202D01*
X84111Y-52029D01*
X84149Y-52121D01*
X84219Y-52192D01*
X84311Y-52230D01*
X84411Y-52230D01*
X86616Y-52230D01*
X86708Y-52192D01*
X86778Y-52122D01*
X86816Y-52030D01*
X86816Y-51930D01*
X86816Y-51103D01*
X86778Y-51012D01*
X86742Y-50976D01*
X87511Y-50207D01*
X87584Y-50098D01*
X87584Y-50098D01*
X87593Y-50050D01*
X87612Y-50094D01*
X87750Y-50233D01*
X87728Y-50233D01*
X87636Y-50271D01*
X87566Y-50342D01*
X87528Y-50433D01*
X87528Y-50670D01*
X87591Y-50733D01*
X88028Y-50733D01*
X88028Y-50725D01*
X88128Y-50725D01*
X88128Y-50733D01*
X88136Y-50733D01*
X88136Y-50833D01*
X88128Y-50833D01*
X88128Y-50841D01*
X88028Y-50841D01*
X88028Y-50833D01*
X87591Y-50833D01*
X87528Y-50895D01*
X87528Y-51132D01*
X87554Y-51195D01*
X87261Y-51487D01*
X87225Y-51542D01*
X87225Y-51542D01*
X87134Y-51579D01*
X87064Y-51649D01*
X87026Y-51741D01*
X87026Y-51841D01*
X87026Y-52041D01*
X87064Y-52133D01*
X87072Y-52141D01*
X87064Y-52150D01*
X87026Y-52242D01*
X87026Y-52279D01*
X87088Y-52341D01*
X87451Y-52341D01*
X87451Y-52333D01*
X87551Y-52333D01*
X87551Y-52341D01*
X87913Y-52341D01*
X87976Y-52279D01*
X87976Y-52242D01*
X87938Y-52150D01*
X87929Y-52141D01*
X87937Y-52133D01*
X87976Y-52041D01*
X87976Y-51942D01*
X87976Y-51742D01*
X87975Y-51740D01*
X88151Y-51740D01*
G54D10*
G36*
X88952Y-43698D02*
X88943Y-43719D01*
X88943Y-43818D01*
X88943Y-43995D01*
X88951Y-44015D01*
X88943Y-44034D01*
X88943Y-44133D01*
X88943Y-44310D01*
X88951Y-44330D01*
X88943Y-44349D01*
X88943Y-44448D01*
X88943Y-44625D01*
X88951Y-44645D01*
X88943Y-44664D01*
X88943Y-44763D01*
X88943Y-44779D01*
X88053Y-44779D01*
X87693Y-44419D01*
X87694Y-44416D01*
X87694Y-44175D01*
X87603Y-43953D01*
X87433Y-43783D01*
X87211Y-43691D01*
X86970Y-43690D01*
X86748Y-43782D01*
X86578Y-43952D01*
X86486Y-44174D01*
X86486Y-44414D01*
X86577Y-44637D01*
X86696Y-44755D01*
X86586Y-44865D01*
X86494Y-45087D01*
X86493Y-45328D01*
X86585Y-45550D01*
X86755Y-45720D01*
X86977Y-45812D01*
X87218Y-45813D01*
X87320Y-45770D01*
X87322Y-45771D01*
X87322Y-45771D01*
X87322Y-45771D01*
X88943Y-45771D01*
X88943Y-45885D01*
X88951Y-45905D01*
X88943Y-45924D01*
X88943Y-46023D01*
X88943Y-46200D01*
X88945Y-46206D01*
X88937Y-46203D01*
X88837Y-46203D01*
X88660Y-46203D01*
X88642Y-46211D01*
X88623Y-46203D01*
X88523Y-46203D01*
X88346Y-46203D01*
X88327Y-46211D01*
X88307Y-46203D01*
X88207Y-46203D01*
X88030Y-46203D01*
X88012Y-46211D01*
X87993Y-46203D01*
X87893Y-46203D01*
X87716Y-46203D01*
X87697Y-46211D01*
X87677Y-46203D01*
X87577Y-46203D01*
X87400Y-46203D01*
X87382Y-46211D01*
X87363Y-46203D01*
X87263Y-46203D01*
X87086Y-46203D01*
X87067Y-46211D01*
X87047Y-46203D01*
X86947Y-46203D01*
X86770Y-46203D01*
X86752Y-46211D01*
X86733Y-46203D01*
X86633Y-46203D01*
X86456Y-46203D01*
X86437Y-46211D01*
X86417Y-46203D01*
X86317Y-46203D01*
X86140Y-46203D01*
X86122Y-46211D01*
X86103Y-46203D01*
X86003Y-46203D01*
X85826Y-46203D01*
X85807Y-46211D01*
X85787Y-46203D01*
X85755Y-46203D01*
X85699Y-46260D01*
X85699Y-46203D01*
X85673Y-46203D01*
X85673Y-43565D01*
X87273Y-41965D01*
X87345Y-42141D01*
X87515Y-42311D01*
X87737Y-42403D01*
X87977Y-42403D01*
X88200Y-42311D01*
X88370Y-42141D01*
X88462Y-41919D01*
X88462Y-41679D01*
X88370Y-41457D01*
X88201Y-41287D01*
X88193Y-41284D01*
X88193Y-41235D01*
X88193Y-41190D01*
X88307Y-41190D01*
X88326Y-41182D01*
X88346Y-41190D01*
X88446Y-41190D01*
X88623Y-41190D01*
X88641Y-41182D01*
X88660Y-41190D01*
X88760Y-41190D01*
X88937Y-41190D01*
X88947Y-41185D01*
X88943Y-41196D01*
X88943Y-41295D01*
X88943Y-41472D01*
X88951Y-41492D01*
X88943Y-41511D01*
X88943Y-41610D01*
X88943Y-41787D01*
X88951Y-41807D01*
X88943Y-41826D01*
X88943Y-41925D01*
X88943Y-42102D01*
X88951Y-42122D01*
X88943Y-42141D01*
X88943Y-42240D01*
X88943Y-42417D01*
X88951Y-42437D01*
X88943Y-42456D01*
X88943Y-42555D01*
X88943Y-42732D01*
X88951Y-42752D01*
X88943Y-42771D01*
X88943Y-42870D01*
X88943Y-43047D01*
X88951Y-43067D01*
X88943Y-43086D01*
X88943Y-43185D01*
X88943Y-43362D01*
X88951Y-43382D01*
X88943Y-43401D01*
X88943Y-43500D01*
X88943Y-43677D01*
X88952Y-43698D01*
X88952Y-43698D01*
G37*
G54D34*
X88952Y-43698D02*
X88943Y-43719D01*
X88943Y-43818D01*
X88943Y-43995D01*
X88951Y-44015D01*
X88943Y-44034D01*
X88943Y-44133D01*
X88943Y-44310D01*
X88951Y-44330D01*
X88943Y-44349D01*
X88943Y-44448D01*
X88943Y-44625D01*
X88951Y-44645D01*
X88943Y-44664D01*
X88943Y-44763D01*
X88943Y-44779D01*
X88053Y-44779D01*
X87693Y-44419D01*
X87694Y-44416D01*
X87694Y-44175D01*
X87603Y-43953D01*
X87433Y-43783D01*
X87211Y-43691D01*
X86970Y-43690D01*
X86748Y-43782D01*
X86578Y-43952D01*
X86486Y-44174D01*
X86486Y-44414D01*
X86577Y-44637D01*
X86696Y-44755D01*
X86586Y-44865D01*
X86494Y-45087D01*
X86493Y-45328D01*
X86585Y-45550D01*
X86755Y-45720D01*
X86977Y-45812D01*
X87218Y-45813D01*
X87320Y-45770D01*
X87322Y-45771D01*
X87322Y-45771D01*
X87322Y-45771D01*
X88943Y-45771D01*
X88943Y-45885D01*
X88951Y-45905D01*
X88943Y-45924D01*
X88943Y-46023D01*
X88943Y-46200D01*
X88945Y-46206D01*
X88937Y-46203D01*
X88837Y-46203D01*
X88660Y-46203D01*
X88642Y-46211D01*
X88623Y-46203D01*
X88523Y-46203D01*
X88346Y-46203D01*
X88327Y-46211D01*
X88307Y-46203D01*
X88207Y-46203D01*
X88030Y-46203D01*
X88012Y-46211D01*
X87993Y-46203D01*
X87893Y-46203D01*
X87716Y-46203D01*
X87697Y-46211D01*
X87677Y-46203D01*
X87577Y-46203D01*
X87400Y-46203D01*
X87382Y-46211D01*
X87363Y-46203D01*
X87263Y-46203D01*
X87086Y-46203D01*
X87067Y-46211D01*
X87047Y-46203D01*
X86947Y-46203D01*
X86770Y-46203D01*
X86752Y-46211D01*
X86733Y-46203D01*
X86633Y-46203D01*
X86456Y-46203D01*
X86437Y-46211D01*
X86417Y-46203D01*
X86317Y-46203D01*
X86140Y-46203D01*
X86122Y-46211D01*
X86103Y-46203D01*
X86003Y-46203D01*
X85826Y-46203D01*
X85807Y-46211D01*
X85787Y-46203D01*
X85755Y-46203D01*
X85699Y-46260D01*
X85699Y-46203D01*
X85673Y-46203D01*
X85673Y-43565D01*
X87273Y-41965D01*
X87345Y-42141D01*
X87515Y-42311D01*
X87737Y-42403D01*
X87977Y-42403D01*
X88200Y-42311D01*
X88370Y-42141D01*
X88462Y-41919D01*
X88462Y-41679D01*
X88370Y-41457D01*
X88201Y-41287D01*
X88193Y-41284D01*
X88193Y-41235D01*
X88193Y-41190D01*
X88307Y-41190D01*
X88326Y-41182D01*
X88346Y-41190D01*
X88446Y-41190D01*
X88623Y-41190D01*
X88641Y-41182D01*
X88660Y-41190D01*
X88760Y-41190D01*
X88937Y-41190D01*
X88947Y-41185D01*
X88943Y-41196D01*
X88943Y-41295D01*
X88943Y-41472D01*
X88951Y-41492D01*
X88943Y-41511D01*
X88943Y-41610D01*
X88943Y-41787D01*
X88951Y-41807D01*
X88943Y-41826D01*
X88943Y-41925D01*
X88943Y-42102D01*
X88951Y-42122D01*
X88943Y-42141D01*
X88943Y-42240D01*
X88943Y-42417D01*
X88951Y-42437D01*
X88943Y-42456D01*
X88943Y-42555D01*
X88943Y-42732D01*
X88951Y-42752D01*
X88943Y-42771D01*
X88943Y-42870D01*
X88943Y-43047D01*
X88951Y-43067D01*
X88943Y-43086D01*
X88943Y-43185D01*
X88943Y-43362D01*
X88951Y-43382D01*
X88943Y-43401D01*
X88943Y-43500D01*
X88943Y-43677D01*
X88952Y-43698D01*
G54D10*
G36*
X88990Y-56062D02*
X88946Y-56106D01*
X85204Y-56106D01*
X85204Y-55391D01*
X85204Y-55053D01*
X85142Y-54990D01*
X84878Y-54990D01*
X84878Y-55628D01*
X84941Y-55690D01*
X85004Y-55690D01*
X85096Y-55653D01*
X85166Y-55582D01*
X85204Y-55490D01*
X85204Y-55391D01*
X85204Y-56106D01*
X84778Y-56106D01*
X84778Y-55628D01*
X84778Y-54990D01*
X84642Y-54990D01*
X84515Y-54990D01*
X84378Y-54990D01*
X84378Y-55628D01*
X84441Y-55690D01*
X84504Y-55690D01*
X84578Y-55660D01*
X84653Y-55690D01*
X84716Y-55690D01*
X84778Y-55628D01*
X84778Y-56106D01*
X84278Y-56106D01*
X84278Y-55628D01*
X84278Y-54990D01*
X84142Y-54990D01*
X84015Y-54990D01*
X83878Y-54990D01*
X83878Y-55628D01*
X83941Y-55690D01*
X84004Y-55690D01*
X84078Y-55660D01*
X84153Y-55690D01*
X84216Y-55690D01*
X84278Y-55628D01*
X84278Y-56106D01*
X83778Y-56106D01*
X83667Y-55995D01*
X83667Y-55690D01*
X83716Y-55690D01*
X83778Y-55628D01*
X83778Y-54990D01*
X83770Y-54990D01*
X83770Y-54890D01*
X83778Y-54890D01*
X83778Y-54883D01*
X83878Y-54883D01*
X83878Y-54890D01*
X84015Y-54890D01*
X84142Y-54890D01*
X84278Y-54890D01*
X84278Y-54883D01*
X84378Y-54883D01*
X84378Y-54890D01*
X84515Y-54890D01*
X84642Y-54890D01*
X84778Y-54890D01*
X84778Y-54883D01*
X84878Y-54883D01*
X84878Y-54890D01*
X85142Y-54890D01*
X85204Y-54828D01*
X85204Y-54490D01*
X85204Y-54390D01*
X85166Y-54299D01*
X85146Y-54279D01*
X87010Y-54279D01*
X86990Y-54299D01*
X86970Y-54349D01*
X86912Y-54324D01*
X86671Y-54324D01*
X86449Y-54416D01*
X86279Y-54586D01*
X86187Y-54808D01*
X86186Y-55048D01*
X86278Y-55271D01*
X86448Y-55441D01*
X86670Y-55533D01*
X86911Y-55533D01*
X86961Y-55512D01*
X86990Y-55582D01*
X87060Y-55652D01*
X87152Y-55690D01*
X87252Y-55690D01*
X87504Y-55690D01*
X87578Y-55660D01*
X87652Y-55690D01*
X87752Y-55690D01*
X88004Y-55690D01*
X88078Y-55660D01*
X88152Y-55690D01*
X88252Y-55690D01*
X88504Y-55690D01*
X88578Y-55660D01*
X88652Y-55690D01*
X88752Y-55690D01*
X88990Y-55690D01*
X88990Y-56062D01*
X88990Y-56062D01*
G37*
G54D34*
X88990Y-56062D02*
X88946Y-56106D01*
X85204Y-56106D01*
X85204Y-55391D01*
X85204Y-55053D01*
X85142Y-54990D01*
X84878Y-54990D01*
X84878Y-55628D01*
X84941Y-55690D01*
X85004Y-55690D01*
X85096Y-55653D01*
X85166Y-55582D01*
X85204Y-55490D01*
X85204Y-55391D01*
X85204Y-56106D01*
X84778Y-56106D01*
X84778Y-55628D01*
X84778Y-54990D01*
X84642Y-54990D01*
X84515Y-54990D01*
X84378Y-54990D01*
X84378Y-55628D01*
X84441Y-55690D01*
X84504Y-55690D01*
X84578Y-55660D01*
X84653Y-55690D01*
X84716Y-55690D01*
X84778Y-55628D01*
X84778Y-56106D01*
X84278Y-56106D01*
X84278Y-55628D01*
X84278Y-54990D01*
X84142Y-54990D01*
X84015Y-54990D01*
X83878Y-54990D01*
X83878Y-55628D01*
X83941Y-55690D01*
X84004Y-55690D01*
X84078Y-55660D01*
X84153Y-55690D01*
X84216Y-55690D01*
X84278Y-55628D01*
X84278Y-56106D01*
X83778Y-56106D01*
X83667Y-55995D01*
X83667Y-55690D01*
X83716Y-55690D01*
X83778Y-55628D01*
X83778Y-54990D01*
X83770Y-54990D01*
X83770Y-54890D01*
X83778Y-54890D01*
X83778Y-54883D01*
X83878Y-54883D01*
X83878Y-54890D01*
X84015Y-54890D01*
X84142Y-54890D01*
X84278Y-54890D01*
X84278Y-54883D01*
X84378Y-54883D01*
X84378Y-54890D01*
X84515Y-54890D01*
X84642Y-54890D01*
X84778Y-54890D01*
X84778Y-54883D01*
X84878Y-54883D01*
X84878Y-54890D01*
X85142Y-54890D01*
X85204Y-54828D01*
X85204Y-54490D01*
X85204Y-54390D01*
X85166Y-54299D01*
X85146Y-54279D01*
X87010Y-54279D01*
X86990Y-54299D01*
X86970Y-54349D01*
X86912Y-54324D01*
X86671Y-54324D01*
X86449Y-54416D01*
X86279Y-54586D01*
X86187Y-54808D01*
X86186Y-55048D01*
X86278Y-55271D01*
X86448Y-55441D01*
X86670Y-55533D01*
X86911Y-55533D01*
X86961Y-55512D01*
X86990Y-55582D01*
X87060Y-55652D01*
X87152Y-55690D01*
X87252Y-55690D01*
X87504Y-55690D01*
X87578Y-55660D01*
X87652Y-55690D01*
X87752Y-55690D01*
X88004Y-55690D01*
X88078Y-55660D01*
X88152Y-55690D01*
X88252Y-55690D01*
X88504Y-55690D01*
X88578Y-55660D01*
X88652Y-55690D01*
X88752Y-55690D01*
X88990Y-55690D01*
X88990Y-56062D01*
G54D10*
G36*
X94543Y-60905D02*
X92326Y-60905D01*
X92326Y-60560D01*
X92326Y-58509D01*
X92288Y-58417D01*
X92218Y-58347D01*
X92126Y-58309D01*
X92027Y-58309D01*
X92020Y-58309D01*
X92020Y-53920D01*
X92020Y-53483D01*
X92020Y-53383D01*
X92020Y-52945D01*
X91958Y-52883D01*
X91720Y-52883D01*
X91620Y-52883D01*
X91529Y-52921D01*
X91458Y-52992D01*
X91455Y-52999D01*
X91450Y-52988D01*
X91380Y-52917D01*
X91288Y-52879D01*
X91189Y-52879D01*
X90951Y-52879D01*
X90888Y-52942D01*
X90888Y-53379D01*
X91426Y-53379D01*
X91452Y-53352D01*
X91483Y-53383D01*
X92020Y-53383D01*
X92020Y-53483D01*
X91483Y-53483D01*
X91456Y-53510D01*
X91426Y-53479D01*
X90888Y-53479D01*
X90888Y-53917D01*
X90951Y-53979D01*
X91189Y-53979D01*
X91288Y-53979D01*
X91380Y-53941D01*
X91450Y-53870D01*
X91453Y-53863D01*
X91458Y-53874D01*
X91529Y-53945D01*
X91620Y-53983D01*
X91720Y-53983D01*
X91958Y-53983D01*
X92020Y-53920D01*
X92020Y-58309D01*
X91204Y-58309D01*
X91204Y-55391D01*
X91204Y-54490D01*
X91204Y-54390D01*
X91166Y-54299D01*
X91096Y-54228D01*
X91004Y-54190D01*
X90941Y-54190D01*
X90878Y-54253D01*
X90878Y-54890D01*
X91142Y-54890D01*
X91204Y-54828D01*
X91204Y-54490D01*
X91204Y-55391D01*
X91204Y-55053D01*
X91142Y-54990D01*
X90878Y-54990D01*
X90878Y-55628D01*
X90941Y-55690D01*
X91004Y-55690D01*
X91096Y-55653D01*
X91166Y-55582D01*
X91204Y-55490D01*
X91204Y-55391D01*
X91204Y-58309D01*
X91031Y-58309D01*
X90939Y-58346D01*
X90868Y-58417D01*
X90830Y-58509D01*
X90830Y-58608D01*
X90830Y-60659D01*
X90868Y-60751D01*
X90938Y-60822D01*
X91030Y-60860D01*
X91130Y-60860D01*
X92126Y-60860D01*
X92218Y-60822D01*
X92288Y-60752D01*
X92326Y-60660D01*
X92326Y-60560D01*
X92326Y-60905D01*
X90788Y-60905D01*
X90788Y-53917D01*
X90788Y-53479D01*
X90788Y-53379D01*
X90788Y-52942D01*
X90726Y-52879D01*
X90488Y-52879D01*
X90388Y-52879D01*
X90296Y-52917D01*
X90226Y-52988D01*
X90188Y-53080D01*
X90188Y-53317D01*
X90251Y-53379D01*
X90788Y-53379D01*
X90788Y-53479D01*
X90251Y-53479D01*
X90188Y-53542D01*
X90188Y-53779D01*
X90226Y-53870D01*
X90296Y-53941D01*
X90388Y-53979D01*
X90488Y-53979D01*
X90726Y-53979D01*
X90788Y-53917D01*
X90788Y-60905D01*
X90778Y-60905D01*
X90778Y-55628D01*
X90778Y-54990D01*
X90778Y-54890D01*
X90778Y-54253D01*
X90716Y-54190D01*
X90653Y-54190D01*
X90578Y-54221D01*
X90504Y-54190D01*
X90441Y-54190D01*
X90378Y-54253D01*
X90378Y-54890D01*
X90515Y-54890D01*
X90642Y-54890D01*
X90778Y-54890D01*
X90778Y-54990D01*
X90642Y-54990D01*
X90515Y-54990D01*
X90378Y-54990D01*
X90378Y-55628D01*
X90441Y-55690D01*
X90504Y-55690D01*
X90578Y-55660D01*
X90653Y-55690D01*
X90716Y-55690D01*
X90778Y-55628D01*
X90778Y-60905D01*
X90278Y-60905D01*
X90278Y-55628D01*
X90278Y-54990D01*
X90278Y-54890D01*
X90278Y-54253D01*
X90216Y-54190D01*
X90153Y-54190D01*
X90078Y-54221D01*
X90004Y-54190D01*
X89941Y-54190D01*
X89878Y-54253D01*
X89878Y-54890D01*
X90015Y-54890D01*
X90142Y-54890D01*
X90278Y-54890D01*
X90278Y-54990D01*
X90142Y-54990D01*
X90015Y-54990D01*
X89878Y-54990D01*
X89878Y-55628D01*
X89941Y-55690D01*
X90004Y-55690D01*
X90078Y-55660D01*
X90153Y-55690D01*
X90216Y-55690D01*
X90278Y-55628D01*
X90278Y-60905D01*
X85700Y-60905D01*
X85681Y-60901D01*
X85661Y-60905D01*
X81326Y-60905D01*
X81326Y-60560D01*
X81326Y-58509D01*
X81288Y-58417D01*
X81218Y-58347D01*
X81126Y-58309D01*
X81027Y-58309D01*
X80031Y-58309D01*
X79939Y-58346D01*
X79868Y-58417D01*
X79830Y-58509D01*
X79830Y-58608D01*
X79830Y-60659D01*
X79868Y-60751D01*
X79938Y-60822D01*
X80030Y-60860D01*
X80130Y-60860D01*
X81126Y-60860D01*
X81218Y-60822D01*
X81288Y-60752D01*
X81326Y-60660D01*
X81326Y-60560D01*
X81326Y-60905D01*
X77523Y-60905D01*
X77523Y-60110D01*
X77750Y-60338D01*
X78136Y-60498D01*
X78554Y-60499D01*
X78940Y-60339D01*
X79236Y-60044D01*
X79396Y-59658D01*
X79396Y-59240D01*
X79237Y-58854D01*
X78942Y-58559D01*
X78556Y-58399D01*
X78138Y-58398D01*
X77752Y-58558D01*
X77523Y-58786D01*
X77523Y-29402D01*
X77750Y-29629D01*
X78136Y-29789D01*
X78554Y-29790D01*
X78940Y-29630D01*
X79236Y-29335D01*
X79396Y-28949D01*
X79396Y-28532D01*
X79237Y-28146D01*
X78942Y-27850D01*
X78556Y-27690D01*
X78138Y-27689D01*
X77752Y-27849D01*
X77523Y-28077D01*
X77523Y-27204D01*
X94543Y-27204D01*
X94543Y-28097D01*
X94296Y-27850D01*
X93910Y-27690D01*
X93492Y-27689D01*
X93106Y-27849D01*
X92811Y-28144D01*
X92650Y-28530D01*
X92650Y-28948D01*
X92810Y-29334D01*
X93105Y-29629D01*
X93491Y-29789D01*
X93908Y-29790D01*
X94294Y-29630D01*
X94543Y-29382D01*
X94543Y-58806D01*
X94296Y-58559D01*
X93910Y-58399D01*
X93492Y-58398D01*
X93313Y-58472D01*
X93313Y-39588D01*
X93313Y-39037D01*
X93313Y-37816D01*
X93313Y-37364D01*
X93312Y-37265D01*
X93274Y-37173D01*
X93204Y-37102D01*
X93112Y-37064D01*
X92860Y-37064D01*
X92798Y-37127D01*
X92798Y-37540D01*
X93250Y-37540D01*
X93312Y-37478D01*
X93313Y-37364D01*
X93313Y-37816D01*
X93312Y-37703D01*
X93250Y-37640D01*
X92798Y-37640D01*
X92798Y-38053D01*
X92860Y-38116D01*
X93112Y-38116D01*
X93204Y-38078D01*
X93274Y-38007D01*
X93312Y-37916D01*
X93313Y-37816D01*
X93313Y-39037D01*
X93275Y-38945D01*
X93204Y-38874D01*
X93112Y-38836D01*
X93013Y-38836D01*
X92698Y-38836D01*
X92698Y-38053D01*
X92698Y-37640D01*
X92698Y-37540D01*
X92698Y-37127D01*
X92635Y-37064D01*
X92383Y-37064D01*
X92291Y-37102D01*
X92221Y-37173D01*
X92183Y-37265D01*
X92183Y-37364D01*
X92183Y-37478D01*
X92245Y-37540D01*
X92698Y-37540D01*
X92698Y-37640D01*
X92245Y-37640D01*
X92183Y-37703D01*
X92183Y-37816D01*
X92183Y-37916D01*
X92221Y-38007D01*
X92291Y-38078D01*
X92383Y-38116D01*
X92635Y-38116D01*
X92698Y-38053D01*
X92698Y-38836D01*
X92383Y-38836D01*
X92291Y-38874D01*
X92221Y-38944D01*
X92217Y-38954D01*
X91836Y-38954D01*
X91836Y-34644D01*
X91738Y-34405D01*
X91738Y-32199D01*
X91836Y-31963D01*
X91836Y-31667D01*
X91738Y-31429D01*
X91738Y-29976D01*
X91689Y-29730D01*
X91689Y-29730D01*
X91633Y-29646D01*
X91549Y-29521D01*
X91549Y-29521D01*
X90061Y-28033D01*
X89852Y-27893D01*
X89606Y-27844D01*
X89606Y-27844D01*
X88493Y-27844D01*
X88425Y-27776D01*
X88333Y-27738D01*
X88233Y-27738D01*
X87233Y-27738D01*
X87142Y-27776D01*
X87071Y-27846D01*
X87033Y-27938D01*
X87033Y-28037D01*
X87033Y-29037D01*
X87071Y-29129D01*
X87141Y-29200D01*
X87233Y-29238D01*
X87332Y-29238D01*
X88332Y-29238D01*
X88424Y-29200D01*
X88493Y-29131D01*
X89339Y-29131D01*
X90450Y-30243D01*
X90450Y-31429D01*
X90352Y-31666D01*
X90352Y-31961D01*
X90450Y-32200D01*
X90450Y-34406D01*
X90352Y-34643D01*
X90352Y-34938D01*
X90464Y-35211D01*
X90673Y-35420D01*
X90946Y-35533D01*
X91241Y-35533D01*
X91514Y-35420D01*
X91723Y-35212D01*
X91836Y-34939D01*
X91836Y-34644D01*
X91836Y-38954D01*
X90005Y-38954D01*
X90005Y-37816D01*
X90005Y-37364D01*
X90005Y-37265D01*
X89967Y-37173D01*
X89897Y-37102D01*
X89852Y-37084D01*
X89852Y-34644D01*
X89753Y-34405D01*
X89753Y-32199D01*
X89852Y-31963D01*
X89852Y-31667D01*
X89746Y-31411D01*
X89704Y-31202D01*
X89704Y-31202D01*
X89565Y-30993D01*
X89565Y-30993D01*
X88356Y-29784D01*
X88147Y-29645D01*
X87901Y-29596D01*
X87901Y-29596D01*
X86427Y-29596D01*
X86427Y-28893D01*
X86533Y-28638D01*
X86533Y-28339D01*
X86419Y-28063D01*
X86208Y-27852D01*
X85933Y-27738D01*
X85634Y-27738D01*
X85359Y-27851D01*
X85148Y-28062D01*
X85033Y-28338D01*
X85033Y-28636D01*
X85139Y-28894D01*
X85139Y-30039D01*
X85139Y-30039D01*
X85188Y-30285D01*
X85328Y-30494D01*
X85529Y-30695D01*
X85529Y-30695D01*
X85737Y-30834D01*
X85737Y-30834D01*
X85935Y-30874D01*
X85984Y-30883D01*
X85984Y-30883D01*
X85984Y-30883D01*
X87634Y-30883D01*
X88382Y-31631D01*
X88368Y-31666D01*
X88367Y-31961D01*
X88466Y-32200D01*
X88466Y-34406D01*
X88368Y-34643D01*
X88367Y-34938D01*
X88480Y-35211D01*
X88689Y-35420D01*
X88961Y-35533D01*
X89257Y-35533D01*
X89530Y-35420D01*
X89739Y-35212D01*
X89852Y-34939D01*
X89852Y-34644D01*
X89852Y-37084D01*
X89805Y-37064D01*
X89553Y-37064D01*
X89490Y-37127D01*
X89490Y-37540D01*
X89943Y-37540D01*
X90005Y-37478D01*
X90005Y-37364D01*
X90005Y-37816D01*
X90005Y-37703D01*
X89943Y-37640D01*
X89490Y-37640D01*
X89490Y-38053D01*
X89553Y-38116D01*
X89805Y-38116D01*
X89897Y-38078D01*
X89967Y-38007D01*
X90005Y-37916D01*
X90005Y-37816D01*
X90005Y-38954D01*
X89971Y-38954D01*
X89967Y-38945D01*
X89897Y-38874D01*
X89805Y-38836D01*
X89706Y-38836D01*
X89390Y-38836D01*
X89390Y-38053D01*
X89390Y-37640D01*
X89390Y-37540D01*
X89390Y-37127D01*
X89328Y-37064D01*
X89076Y-37064D01*
X88984Y-37102D01*
X88914Y-37173D01*
X88876Y-37265D01*
X88875Y-37364D01*
X88875Y-37478D01*
X88938Y-37540D01*
X89390Y-37540D01*
X89390Y-37640D01*
X88938Y-37640D01*
X88875Y-37703D01*
X88875Y-37816D01*
X88876Y-37916D01*
X88914Y-38007D01*
X88984Y-38078D01*
X89076Y-38116D01*
X89328Y-38116D01*
X89390Y-38053D01*
X89390Y-38836D01*
X89076Y-38836D01*
X88984Y-38874D01*
X88914Y-38944D01*
X88876Y-39036D01*
X88875Y-39136D01*
X88875Y-39208D01*
X88829Y-39254D01*
X88829Y-38550D01*
X88791Y-38458D01*
X88721Y-38388D01*
X88658Y-38361D01*
X88656Y-38352D01*
X88656Y-38352D01*
X88621Y-38299D01*
X88568Y-38220D01*
X88568Y-38220D01*
X87929Y-37581D01*
X87868Y-37540D01*
X87868Y-34644D01*
X87769Y-34405D01*
X87769Y-32199D01*
X87867Y-31963D01*
X87868Y-31667D01*
X87755Y-31395D01*
X87546Y-31186D01*
X87274Y-31072D01*
X86979Y-31072D01*
X86740Y-31171D01*
X84880Y-31171D01*
X84427Y-30717D01*
X84427Y-28893D01*
X84533Y-28638D01*
X84533Y-28339D01*
X84419Y-28063D01*
X84208Y-27852D01*
X83933Y-27738D01*
X83634Y-27738D01*
X83359Y-27851D01*
X83148Y-28062D01*
X83033Y-28338D01*
X83033Y-28636D01*
X83139Y-28894D01*
X83139Y-30984D01*
X83139Y-30984D01*
X83188Y-31230D01*
X83328Y-31439D01*
X84159Y-32270D01*
X84159Y-32270D01*
X84367Y-32409D01*
X84367Y-32409D01*
X84614Y-32458D01*
X86482Y-32458D01*
X86482Y-34406D01*
X86383Y-34643D01*
X86383Y-34938D01*
X86496Y-35211D01*
X86705Y-35420D01*
X86977Y-35533D01*
X87272Y-35533D01*
X87545Y-35420D01*
X87754Y-35212D01*
X87867Y-34939D01*
X87868Y-34644D01*
X87868Y-37540D01*
X87797Y-37493D01*
X87641Y-37462D01*
X87641Y-37462D01*
X85015Y-37462D01*
X85001Y-37428D01*
X84931Y-37357D01*
X84839Y-37319D01*
X84797Y-37319D01*
X84797Y-34596D01*
X84905Y-34488D01*
X84997Y-34266D01*
X84998Y-34025D01*
X84906Y-33803D01*
X84736Y-33633D01*
X84514Y-33541D01*
X84274Y-33541D01*
X84051Y-33633D01*
X83881Y-33802D01*
X83789Y-34024D01*
X83789Y-34265D01*
X83881Y-34487D01*
X83982Y-34588D01*
X83982Y-37319D01*
X83940Y-37319D01*
X83848Y-37357D01*
X83777Y-37427D01*
X83739Y-37519D01*
X83739Y-37619D01*
X83739Y-38219D01*
X83777Y-38311D01*
X83847Y-38381D01*
X83939Y-38419D01*
X84039Y-38419D01*
X84839Y-38419D01*
X84931Y-38381D01*
X85001Y-38311D01*
X85015Y-38277D01*
X87472Y-38277D01*
X87734Y-38539D01*
X87729Y-38550D01*
X87729Y-38649D01*
X87729Y-38976D01*
X87615Y-39090D01*
X87542Y-39200D01*
X87529Y-39261D01*
X87529Y-38649D01*
X87529Y-38550D01*
X87491Y-38458D01*
X87421Y-38387D01*
X87329Y-38349D01*
X87092Y-38350D01*
X87029Y-38412D01*
X87029Y-38950D01*
X87467Y-38950D01*
X87529Y-38887D01*
X87529Y-38649D01*
X87529Y-39261D01*
X87529Y-39262D01*
X87529Y-39112D01*
X87467Y-39050D01*
X87029Y-39050D01*
X87029Y-39587D01*
X87092Y-39650D01*
X87329Y-39650D01*
X87421Y-39612D01*
X87491Y-39541D01*
X87516Y-39482D01*
X87516Y-39903D01*
X87489Y-39903D01*
X87489Y-39960D01*
X87432Y-39903D01*
X87400Y-39903D01*
X87382Y-39911D01*
X87363Y-39903D01*
X87263Y-39903D01*
X87086Y-39903D01*
X87067Y-39911D01*
X87047Y-39903D01*
X86947Y-39903D01*
X86929Y-39903D01*
X86929Y-39587D01*
X86929Y-39050D01*
X86929Y-38950D01*
X86929Y-38412D01*
X86867Y-38350D01*
X86630Y-38349D01*
X86538Y-38387D01*
X86468Y-38458D01*
X86429Y-38550D01*
X86429Y-38649D01*
X86429Y-38887D01*
X86492Y-38950D01*
X86929Y-38950D01*
X86929Y-39050D01*
X86492Y-39050D01*
X86429Y-39112D01*
X86429Y-39350D01*
X86429Y-39449D01*
X86468Y-39541D01*
X86538Y-39612D01*
X86630Y-39650D01*
X86867Y-39650D01*
X86929Y-39587D01*
X86929Y-39903D01*
X86770Y-39903D01*
X86752Y-39911D01*
X86733Y-39903D01*
X86633Y-39903D01*
X86456Y-39903D01*
X86437Y-39911D01*
X86417Y-39903D01*
X86317Y-39903D01*
X86140Y-39903D01*
X86122Y-39911D01*
X86103Y-39903D01*
X86003Y-39903D01*
X85826Y-39903D01*
X85807Y-39911D01*
X85787Y-39903D01*
X85687Y-39903D01*
X85510Y-39903D01*
X85492Y-39911D01*
X85473Y-39903D01*
X85373Y-39903D01*
X85196Y-39903D01*
X85177Y-39911D01*
X85157Y-39903D01*
X85057Y-39903D01*
X85039Y-39903D01*
X85039Y-39519D01*
X85039Y-38820D01*
X85001Y-38728D01*
X84931Y-38657D01*
X84839Y-38619D01*
X84740Y-38619D01*
X84502Y-38619D01*
X84439Y-38682D01*
X84439Y-39119D01*
X84977Y-39119D01*
X85039Y-39057D01*
X85039Y-38820D01*
X85039Y-39519D01*
X85039Y-39282D01*
X84977Y-39219D01*
X84439Y-39219D01*
X84439Y-39657D01*
X84502Y-39719D01*
X84740Y-39719D01*
X84839Y-39719D01*
X84931Y-39681D01*
X85001Y-39611D01*
X85039Y-39519D01*
X85039Y-39903D01*
X84880Y-39903D01*
X84862Y-39911D01*
X84843Y-39903D01*
X84743Y-39903D01*
X84566Y-39903D01*
X84547Y-39911D01*
X84527Y-39903D01*
X84495Y-39903D01*
X84433Y-39965D01*
X84433Y-39983D01*
X84404Y-40011D01*
X84390Y-40046D01*
X84375Y-40011D01*
X84344Y-39981D01*
X84344Y-39965D01*
X84339Y-39960D01*
X84339Y-39657D01*
X84339Y-39219D01*
X84339Y-39119D01*
X84339Y-38682D01*
X84277Y-38619D01*
X84039Y-38619D01*
X83939Y-38619D01*
X83847Y-38657D01*
X83777Y-38728D01*
X83739Y-38820D01*
X83739Y-39057D01*
X83802Y-39119D01*
X84339Y-39119D01*
X84339Y-39219D01*
X83802Y-39219D01*
X83739Y-39282D01*
X83739Y-39519D01*
X83777Y-39611D01*
X83847Y-39681D01*
X83939Y-39719D01*
X84039Y-39719D01*
X84277Y-39719D01*
X84339Y-39657D01*
X84339Y-39960D01*
X84282Y-39903D01*
X84250Y-39903D01*
X84232Y-39911D01*
X84213Y-39903D01*
X84113Y-39903D01*
X83936Y-39903D01*
X83845Y-39941D01*
X83774Y-40011D01*
X83736Y-40103D01*
X83736Y-40202D01*
X83736Y-40989D01*
X83740Y-40998D01*
X83734Y-40996D01*
X83634Y-40996D01*
X82954Y-40996D01*
X83037Y-40797D01*
X83037Y-40557D01*
X83009Y-40490D01*
X83017Y-40490D01*
X83239Y-40398D01*
X83409Y-40228D01*
X83501Y-40006D01*
X83502Y-39766D01*
X83410Y-39543D01*
X83240Y-39373D01*
X83018Y-39281D01*
X82777Y-39281D01*
X82555Y-39373D01*
X82385Y-39543D01*
X82381Y-39553D01*
X81970Y-39553D01*
X81974Y-39541D01*
X81975Y-39442D01*
X81975Y-39242D01*
X81937Y-39150D01*
X81928Y-39141D01*
X81936Y-39133D01*
X81974Y-39041D01*
X81975Y-38942D01*
X81975Y-38742D01*
X81937Y-38650D01*
X81928Y-38641D01*
X81936Y-38633D01*
X81974Y-38541D01*
X81975Y-38442D01*
X81975Y-38242D01*
X81937Y-38150D01*
X81928Y-38141D01*
X81936Y-38133D01*
X81974Y-38041D01*
X81975Y-37942D01*
X81975Y-37742D01*
X81937Y-37650D01*
X81928Y-37641D01*
X81936Y-37633D01*
X81974Y-37541D01*
X81975Y-37442D01*
X81975Y-37242D01*
X81937Y-37150D01*
X81928Y-37141D01*
X81937Y-37133D01*
X81975Y-37041D01*
X81975Y-36742D01*
X81937Y-36650D01*
X81866Y-36579D01*
X81774Y-36541D01*
X81675Y-36541D01*
X81612Y-36541D01*
X81550Y-36604D01*
X81550Y-36841D01*
X81912Y-36841D01*
X81975Y-36779D01*
X81975Y-36742D01*
X81975Y-37041D01*
X81975Y-37004D01*
X81912Y-36941D01*
X81550Y-36941D01*
X81550Y-36949D01*
X81450Y-36949D01*
X81450Y-36941D01*
X81450Y-36841D01*
X81450Y-36604D01*
X81387Y-36541D01*
X81324Y-36541D01*
X81225Y-36541D01*
X81133Y-36579D01*
X81062Y-36650D01*
X81024Y-36742D01*
X81025Y-36779D01*
X81087Y-36841D01*
X81450Y-36841D01*
X81450Y-36941D01*
X81087Y-36941D01*
X81025Y-37004D01*
X81024Y-37041D01*
X81062Y-37133D01*
X81071Y-37141D01*
X81063Y-37149D01*
X81025Y-37241D01*
X81024Y-37341D01*
X81024Y-37541D01*
X81062Y-37633D01*
X81071Y-37641D01*
X81063Y-37649D01*
X81025Y-37741D01*
X81024Y-37841D01*
X81024Y-38041D01*
X81062Y-38133D01*
X81071Y-38141D01*
X81063Y-38149D01*
X81025Y-38241D01*
X81024Y-38341D01*
X81024Y-38541D01*
X81062Y-38633D01*
X81071Y-38641D01*
X81063Y-38649D01*
X81025Y-38741D01*
X81024Y-38841D01*
X81024Y-39041D01*
X81062Y-39133D01*
X81071Y-39141D01*
X81063Y-39149D01*
X81025Y-39241D01*
X81024Y-39341D01*
X81024Y-39541D01*
X81062Y-39633D01*
X81071Y-39641D01*
X81063Y-39649D01*
X81025Y-39741D01*
X81024Y-39841D01*
X81024Y-40041D01*
X81062Y-40133D01*
X81071Y-40141D01*
X81063Y-40149D01*
X81025Y-40241D01*
X81024Y-40341D01*
X81024Y-40541D01*
X81062Y-40633D01*
X81133Y-40703D01*
X81225Y-40741D01*
X81324Y-40741D01*
X81774Y-40741D01*
X81802Y-40730D01*
X81828Y-40730D01*
X81828Y-40796D01*
X81920Y-41019D01*
X82090Y-41189D01*
X82312Y-41281D01*
X82552Y-41281D01*
X82647Y-41242D01*
X82647Y-41295D01*
X82647Y-41311D01*
X82428Y-41311D01*
X82299Y-41337D01*
X82189Y-41410D01*
X81662Y-41937D01*
X81588Y-42047D01*
X81562Y-42177D01*
X81562Y-42859D01*
X81486Y-42936D01*
X81486Y-42861D01*
X81486Y-42043D01*
X81486Y-41944D01*
X81448Y-41852D01*
X81377Y-41782D01*
X81285Y-41744D01*
X81053Y-41744D01*
X80990Y-41806D01*
X80990Y-42402D01*
X81423Y-42402D01*
X81486Y-42340D01*
X81486Y-42043D01*
X81486Y-42861D01*
X81486Y-42565D01*
X81423Y-42502D01*
X80990Y-42502D01*
X80990Y-42510D01*
X80890Y-42510D01*
X80890Y-42502D01*
X80883Y-42502D01*
X80883Y-42402D01*
X80890Y-42402D01*
X80890Y-41806D01*
X80828Y-41744D01*
X80596Y-41744D01*
X80504Y-41782D01*
X80440Y-41845D01*
X80378Y-41782D01*
X80286Y-41744D01*
X80186Y-41744D01*
X79596Y-41744D01*
X79504Y-41782D01*
X79440Y-41845D01*
X79378Y-41782D01*
X79348Y-41769D01*
X79348Y-41299D01*
X79317Y-41143D01*
X79317Y-41143D01*
X79282Y-41090D01*
X79229Y-41011D01*
X79229Y-41011D01*
X78990Y-40772D01*
X78990Y-37326D01*
X79017Y-37299D01*
X79024Y-37299D01*
X79024Y-37341D01*
X79024Y-37541D01*
X79062Y-37633D01*
X79071Y-37641D01*
X79063Y-37649D01*
X79025Y-37741D01*
X79024Y-37841D01*
X79024Y-38041D01*
X79062Y-38133D01*
X79071Y-38141D01*
X79063Y-38149D01*
X79025Y-38241D01*
X79024Y-38341D01*
X79024Y-38541D01*
X79062Y-38633D01*
X79071Y-38641D01*
X79063Y-38649D01*
X79025Y-38741D01*
X79024Y-38841D01*
X79024Y-39041D01*
X79062Y-39133D01*
X79071Y-39141D01*
X79063Y-39149D01*
X79025Y-39241D01*
X79024Y-39341D01*
X79024Y-39541D01*
X79062Y-39633D01*
X79071Y-39641D01*
X79063Y-39649D01*
X79025Y-39741D01*
X79024Y-39841D01*
X79024Y-40041D01*
X79062Y-40133D01*
X79071Y-40141D01*
X79063Y-40149D01*
X79025Y-40241D01*
X79024Y-40341D01*
X79024Y-40541D01*
X79062Y-40633D01*
X79133Y-40703D01*
X79225Y-40741D01*
X79324Y-40741D01*
X79774Y-40741D01*
X79802Y-40730D01*
X80155Y-40730D01*
X80285Y-40704D01*
X80285Y-40704D01*
X80394Y-40631D01*
X80739Y-40286D01*
X80739Y-40286D01*
X80739Y-40286D01*
X80812Y-40176D01*
X80838Y-40047D01*
X80838Y-40047D01*
X80838Y-40047D01*
X80838Y-36699D01*
X81183Y-36354D01*
X81704Y-36354D01*
X81834Y-36328D01*
X81834Y-36328D01*
X81944Y-36255D01*
X82652Y-35546D01*
X82726Y-35436D01*
X82751Y-35307D01*
X82751Y-32539D01*
X82751Y-32539D01*
X82751Y-32539D01*
X82726Y-32409D01*
X82652Y-32299D01*
X82652Y-32299D01*
X81928Y-31575D01*
X81857Y-31528D01*
X81857Y-31528D01*
X81802Y-31395D01*
X81594Y-31186D01*
X81321Y-31072D01*
X81026Y-31072D01*
X80753Y-31185D01*
X80544Y-31394D01*
X80431Y-31666D01*
X80430Y-31961D01*
X80543Y-32234D01*
X80752Y-32443D01*
X81024Y-32556D01*
X81320Y-32557D01*
X81593Y-32444D01*
X81716Y-32321D01*
X82074Y-32679D01*
X82074Y-35166D01*
X81564Y-35677D01*
X81043Y-35677D01*
X81043Y-35677D01*
X80913Y-35702D01*
X80803Y-35776D01*
X80803Y-35776D01*
X80437Y-36143D01*
X80437Y-35541D01*
X80655Y-35323D01*
X80752Y-35420D01*
X81024Y-35533D01*
X81320Y-35533D01*
X81593Y-35420D01*
X81802Y-35212D01*
X81915Y-34939D01*
X81915Y-34644D01*
X81802Y-34371D01*
X81594Y-34162D01*
X81321Y-34049D01*
X81026Y-34049D01*
X80753Y-34161D01*
X80544Y-34370D01*
X80468Y-34552D01*
X79859Y-35162D01*
X79785Y-35272D01*
X79759Y-35401D01*
X79759Y-36541D01*
X79695Y-36541D01*
X79655Y-36515D01*
X79500Y-36484D01*
X78990Y-36484D01*
X78990Y-34007D01*
X79286Y-33710D01*
X80538Y-33710D01*
X80543Y-33722D01*
X80752Y-33931D01*
X81024Y-34045D01*
X81320Y-34045D01*
X81593Y-33932D01*
X81802Y-33724D01*
X81915Y-33451D01*
X81915Y-33156D01*
X81802Y-32883D01*
X81594Y-32674D01*
X81321Y-32561D01*
X81026Y-32560D01*
X80753Y-32673D01*
X80544Y-32882D01*
X80538Y-32895D01*
X79118Y-32895D01*
X78962Y-32926D01*
X78909Y-32962D01*
X78829Y-33015D01*
X78829Y-33015D01*
X78294Y-33550D01*
X78206Y-33682D01*
X78175Y-33838D01*
X78175Y-33838D01*
X78175Y-37157D01*
X78175Y-37157D01*
X78175Y-37157D01*
X78175Y-40940D01*
X78175Y-40940D01*
X78206Y-41096D01*
X78294Y-41229D01*
X78533Y-41467D01*
X78533Y-41769D01*
X78504Y-41782D01*
X78433Y-41852D01*
X78395Y-41944D01*
X78395Y-42043D01*
X78395Y-42421D01*
X77763Y-43054D01*
X77674Y-43186D01*
X77643Y-43342D01*
X77643Y-43342D01*
X77643Y-47114D01*
X77643Y-47114D01*
X77674Y-47270D01*
X77763Y-47402D01*
X79183Y-48822D01*
X79183Y-52433D01*
X79183Y-52433D01*
X79214Y-52589D01*
X79302Y-52721D01*
X79761Y-53179D01*
X79761Y-53179D01*
X79893Y-53268D01*
X79893Y-53268D01*
X80018Y-53293D01*
X80049Y-53299D01*
X80049Y-53299D01*
X80049Y-53299D01*
X81583Y-53299D01*
X81528Y-53322D01*
X81358Y-53491D01*
X81265Y-53713D01*
X81265Y-53954D01*
X81357Y-54176D01*
X81371Y-54190D01*
X81153Y-54190D01*
X81061Y-54228D01*
X80990Y-54299D01*
X80952Y-54390D01*
X80952Y-54490D01*
X80952Y-54784D01*
X80952Y-54785D01*
X80921Y-54940D01*
X80952Y-55096D01*
X80952Y-55097D01*
X80952Y-55490D01*
X80990Y-55582D01*
X81060Y-55652D01*
X81152Y-55690D01*
X81252Y-55690D01*
X81504Y-55690D01*
X81578Y-55660D01*
X81652Y-55690D01*
X81752Y-55690D01*
X82004Y-55690D01*
X82078Y-55660D01*
X82152Y-55690D01*
X82252Y-55690D01*
X82504Y-55690D01*
X82578Y-55660D01*
X82652Y-55690D01*
X82752Y-55690D01*
X82990Y-55690D01*
X82990Y-56135D01*
X83015Y-56265D01*
X83089Y-56375D01*
X83398Y-56684D01*
X83398Y-56684D01*
X83508Y-56757D01*
X83637Y-56783D01*
X89086Y-56783D01*
X89216Y-56757D01*
X89216Y-56757D01*
X89326Y-56684D01*
X89568Y-56442D01*
X89641Y-56332D01*
X89667Y-56202D01*
X89667Y-55690D01*
X89716Y-55690D01*
X89778Y-55628D01*
X89778Y-54990D01*
X89770Y-54990D01*
X89770Y-54890D01*
X89778Y-54890D01*
X89778Y-54253D01*
X89716Y-54190D01*
X89667Y-54190D01*
X89667Y-53998D01*
X89641Y-53868D01*
X89568Y-53758D01*
X89568Y-53758D01*
X89551Y-53741D01*
X89875Y-53741D01*
X89967Y-53703D01*
X90037Y-53633D01*
X90076Y-53541D01*
X90076Y-53442D01*
X90076Y-53242D01*
X90038Y-53150D01*
X90029Y-53141D01*
X90037Y-53133D01*
X90076Y-53041D01*
X90076Y-52942D01*
X90076Y-52742D01*
X90038Y-52650D01*
X90029Y-52641D01*
X90037Y-52633D01*
X90076Y-52541D01*
X90076Y-52442D01*
X90076Y-52242D01*
X90038Y-52150D01*
X90029Y-52141D01*
X90038Y-52133D01*
X90076Y-52041D01*
X90076Y-51742D01*
X90038Y-51650D01*
X89967Y-51579D01*
X89876Y-51541D01*
X89776Y-51541D01*
X89713Y-51541D01*
X89651Y-51604D01*
X89651Y-51841D01*
X90013Y-51841D01*
X90076Y-51779D01*
X90076Y-51742D01*
X90076Y-52041D01*
X90076Y-52004D01*
X90013Y-51941D01*
X89651Y-51941D01*
X89651Y-51949D01*
X89551Y-51949D01*
X89551Y-51941D01*
X89188Y-51941D01*
X89126Y-52004D01*
X89126Y-52041D01*
X89131Y-52053D01*
X89120Y-52053D01*
X89120Y-52053D01*
X88990Y-52078D01*
X88880Y-52152D01*
X88880Y-52152D01*
X88688Y-52344D01*
X88688Y-52159D01*
X89139Y-51709D01*
X89126Y-51742D01*
X89126Y-51779D01*
X89188Y-51841D01*
X89551Y-51841D01*
X89551Y-51604D01*
X89488Y-51541D01*
X89425Y-51541D01*
X89326Y-51541D01*
X89263Y-51567D01*
X89300Y-51511D01*
X89326Y-51381D01*
X89326Y-51381D01*
X89326Y-51381D01*
X89326Y-48358D01*
X89300Y-48228D01*
X89300Y-48228D01*
X89227Y-48118D01*
X88823Y-47714D01*
X88823Y-47490D01*
X88937Y-47490D01*
X89028Y-47452D01*
X89099Y-47382D01*
X89137Y-47290D01*
X89137Y-47240D01*
X89184Y-47353D01*
X89289Y-47459D01*
X89289Y-47846D01*
X89289Y-47846D01*
X89320Y-48002D01*
X89408Y-48134D01*
X90192Y-48918D01*
X90192Y-48918D01*
X90324Y-49006D01*
X90324Y-49006D01*
X90449Y-49031D01*
X90480Y-49037D01*
X90480Y-49037D01*
X90480Y-49037D01*
X91213Y-49037D01*
X91661Y-49486D01*
X91661Y-49836D01*
X91657Y-49840D01*
X91619Y-49932D01*
X91619Y-49982D01*
X91619Y-49932D01*
X91581Y-49840D01*
X91510Y-49770D01*
X91418Y-49732D01*
X91281Y-49732D01*
X91219Y-49795D01*
X91219Y-50332D01*
X91227Y-50332D01*
X91227Y-50432D01*
X91219Y-50432D01*
X91219Y-50440D01*
X91119Y-50440D01*
X91119Y-50432D01*
X91111Y-50432D01*
X91111Y-50332D01*
X91119Y-50332D01*
X91119Y-49795D01*
X91056Y-49732D01*
X90919Y-49732D01*
X90827Y-49770D01*
X90757Y-49840D01*
X90719Y-49932D01*
X90719Y-49933D01*
X90681Y-49841D01*
X90611Y-49770D01*
X90519Y-49732D01*
X90419Y-49732D01*
X90019Y-49732D01*
X89927Y-49770D01*
X89857Y-49840D01*
X89819Y-49932D01*
X89819Y-50032D01*
X89819Y-50832D01*
X89857Y-50924D01*
X89861Y-50928D01*
X89861Y-51194D01*
X89861Y-51194D01*
X89892Y-51350D01*
X89981Y-51482D01*
X90214Y-51716D01*
X90188Y-51779D01*
X90188Y-51879D01*
X90188Y-52479D01*
X90226Y-52570D01*
X90296Y-52641D01*
X90388Y-52679D01*
X90488Y-52679D01*
X91288Y-52679D01*
X91380Y-52641D01*
X91450Y-52571D01*
X91453Y-52562D01*
X91458Y-52574D01*
X91529Y-52645D01*
X91620Y-52683D01*
X91720Y-52683D01*
X92520Y-52683D01*
X92612Y-52645D01*
X92682Y-52575D01*
X92720Y-52483D01*
X92720Y-52383D01*
X92720Y-51783D01*
X92682Y-51692D01*
X92612Y-51621D01*
X92520Y-51583D01*
X92478Y-51583D01*
X92478Y-50927D01*
X92481Y-50924D01*
X92519Y-50832D01*
X92519Y-50733D01*
X92519Y-49933D01*
X92481Y-49841D01*
X92476Y-49836D01*
X92476Y-49317D01*
X92476Y-49317D01*
X92476Y-49317D01*
X92470Y-49286D01*
X92445Y-49161D01*
X92445Y-49161D01*
X92357Y-49029D01*
X92357Y-49029D01*
X91760Y-48432D01*
X91938Y-48432D01*
X92030Y-48394D01*
X92101Y-48324D01*
X92139Y-48232D01*
X92139Y-48133D01*
X92139Y-47333D01*
X92101Y-47241D01*
X92031Y-47170D01*
X91939Y-47132D01*
X91839Y-47132D01*
X90399Y-47132D01*
X90307Y-47170D01*
X90269Y-47209D01*
X90301Y-47132D01*
X90301Y-46892D01*
X90209Y-46669D01*
X90039Y-46499D01*
X89817Y-46407D01*
X89577Y-46407D01*
X89354Y-46499D01*
X89184Y-46669D01*
X89137Y-46782D01*
X89137Y-46403D01*
X89135Y-46397D01*
X89143Y-46401D01*
X89243Y-46401D01*
X90030Y-46401D01*
X90121Y-46363D01*
X90192Y-46293D01*
X90230Y-46201D01*
X90230Y-46101D01*
X90230Y-45924D01*
X90222Y-45905D01*
X90230Y-45886D01*
X90230Y-45786D01*
X90230Y-45609D01*
X90222Y-45590D01*
X90230Y-45571D01*
X90230Y-45471D01*
X90230Y-45294D01*
X90222Y-45275D01*
X90230Y-45256D01*
X90230Y-45156D01*
X90230Y-44979D01*
X90222Y-44960D01*
X90230Y-44941D01*
X90230Y-44841D01*
X90230Y-44664D01*
X90222Y-44645D01*
X90230Y-44626D01*
X90230Y-44526D01*
X90230Y-44349D01*
X90222Y-44330D01*
X90230Y-44311D01*
X90230Y-44211D01*
X90230Y-44034D01*
X90222Y-44015D01*
X90230Y-43996D01*
X90230Y-43896D01*
X90230Y-43719D01*
X90221Y-43698D01*
X90230Y-43678D01*
X90230Y-43578D01*
X90230Y-43559D01*
X90344Y-43559D01*
X90344Y-43624D01*
X90382Y-43716D01*
X90453Y-43786D01*
X90545Y-43824D01*
X90644Y-43825D01*
X91273Y-43825D01*
X91365Y-43787D01*
X91435Y-43716D01*
X91468Y-43637D01*
X91500Y-43716D01*
X91571Y-43786D01*
X91663Y-43824D01*
X91762Y-43825D01*
X92391Y-43825D01*
X92483Y-43787D01*
X92553Y-43716D01*
X92591Y-43624D01*
X92592Y-43525D01*
X92592Y-42816D01*
X92554Y-42724D01*
X92483Y-42654D01*
X92391Y-42616D01*
X92366Y-42615D01*
X92366Y-42402D01*
X92468Y-42402D01*
X92559Y-42364D01*
X92630Y-42293D01*
X92668Y-42201D01*
X92668Y-42102D01*
X92668Y-41302D01*
X92630Y-41210D01*
X92560Y-41140D01*
X92468Y-41102D01*
X92368Y-41101D01*
X91768Y-41101D01*
X91677Y-41139D01*
X91606Y-41210D01*
X91568Y-41302D01*
X91568Y-41401D01*
X91568Y-42201D01*
X91606Y-42293D01*
X91676Y-42363D01*
X91688Y-42368D01*
X91688Y-42615D01*
X91663Y-42615D01*
X91571Y-42653D01*
X91501Y-42724D01*
X91468Y-42802D01*
X91436Y-42724D01*
X91365Y-42654D01*
X91273Y-42616D01*
X91174Y-42615D01*
X90545Y-42615D01*
X90453Y-42653D01*
X90383Y-42724D01*
X90345Y-42816D01*
X90344Y-42881D01*
X90230Y-42881D01*
X90230Y-42771D01*
X90222Y-42752D01*
X90230Y-42733D01*
X90230Y-42633D01*
X90230Y-42456D01*
X90222Y-42437D01*
X90230Y-42418D01*
X90230Y-42318D01*
X90230Y-42141D01*
X90222Y-42122D01*
X90230Y-42103D01*
X90230Y-42003D01*
X90230Y-41826D01*
X90222Y-41807D01*
X90230Y-41788D01*
X90230Y-41688D01*
X90230Y-41511D01*
X90222Y-41492D01*
X90230Y-41473D01*
X90230Y-41373D01*
X90230Y-41243D01*
X90274Y-41287D01*
X90268Y-41302D01*
X90268Y-41401D01*
X90268Y-42201D01*
X90306Y-42293D01*
X90376Y-42363D01*
X90468Y-42401D01*
X90568Y-42402D01*
X91168Y-42402D01*
X91259Y-42364D01*
X91330Y-42293D01*
X91368Y-42201D01*
X91368Y-42102D01*
X91368Y-41302D01*
X91330Y-41210D01*
X91260Y-41140D01*
X91208Y-41118D01*
X91206Y-41111D01*
X91206Y-41111D01*
X91118Y-40979D01*
X91118Y-40979D01*
X90765Y-40626D01*
X90765Y-40470D01*
X90674Y-40248D01*
X90504Y-40078D01*
X90282Y-39986D01*
X90041Y-39986D01*
X89819Y-40077D01*
X89649Y-40247D01*
X89557Y-40469D01*
X89556Y-40710D01*
X89648Y-40932D01*
X89712Y-40996D01*
X89143Y-40996D01*
X89133Y-41000D01*
X89137Y-40990D01*
X89137Y-40890D01*
X89137Y-40103D01*
X89099Y-40011D01*
X89061Y-39973D01*
X89081Y-39959D01*
X89154Y-39887D01*
X89175Y-39887D01*
X89805Y-39887D01*
X89897Y-39849D01*
X89967Y-39779D01*
X89971Y-39769D01*
X92217Y-39769D01*
X92221Y-39779D01*
X92291Y-39849D01*
X92383Y-39887D01*
X92482Y-39887D01*
X93112Y-39887D01*
X93204Y-39849D01*
X93274Y-39779D01*
X93312Y-39687D01*
X93313Y-39588D01*
X93313Y-58472D01*
X93106Y-58558D01*
X92811Y-58853D01*
X92720Y-59070D01*
X92720Y-53782D01*
X92720Y-53083D01*
X92682Y-52992D01*
X92612Y-52921D01*
X92520Y-52883D01*
X92421Y-52883D01*
X92183Y-52883D01*
X92120Y-52945D01*
X92120Y-53383D01*
X92658Y-53383D01*
X92720Y-53320D01*
X92720Y-53083D01*
X92720Y-53782D01*
X92720Y-53545D01*
X92658Y-53483D01*
X92120Y-53483D01*
X92120Y-53920D01*
X92183Y-53983D01*
X92421Y-53983D01*
X92520Y-53983D01*
X92612Y-53945D01*
X92682Y-53874D01*
X92720Y-53782D01*
X92720Y-59070D01*
X92650Y-59239D01*
X92650Y-59656D01*
X92810Y-60042D01*
X93105Y-60338D01*
X93491Y-60498D01*
X93908Y-60499D01*
X94294Y-60339D01*
X94543Y-60091D01*
X94543Y-60905D01*
X94543Y-60905D01*
G37*
G54D34*
X94543Y-60905D02*
X92326Y-60905D01*
X92326Y-60560D01*
X92326Y-58509D01*
X92288Y-58417D01*
X92218Y-58347D01*
X92126Y-58309D01*
X92027Y-58309D01*
X92020Y-58309D01*
X92020Y-53920D01*
X92020Y-53483D01*
X92020Y-53383D01*
X92020Y-52945D01*
X91958Y-52883D01*
X91720Y-52883D01*
X91620Y-52883D01*
X91529Y-52921D01*
X91458Y-52992D01*
X91455Y-52999D01*
X91450Y-52988D01*
X91380Y-52917D01*
X91288Y-52879D01*
X91189Y-52879D01*
X90951Y-52879D01*
X90888Y-52942D01*
X90888Y-53379D01*
X91426Y-53379D01*
X91452Y-53352D01*
X91483Y-53383D01*
X92020Y-53383D01*
X92020Y-53483D01*
X91483Y-53483D01*
X91456Y-53510D01*
X91426Y-53479D01*
X90888Y-53479D01*
X90888Y-53917D01*
X90951Y-53979D01*
X91189Y-53979D01*
X91288Y-53979D01*
X91380Y-53941D01*
X91450Y-53870D01*
X91453Y-53863D01*
X91458Y-53874D01*
X91529Y-53945D01*
X91620Y-53983D01*
X91720Y-53983D01*
X91958Y-53983D01*
X92020Y-53920D01*
X92020Y-58309D01*
X91204Y-58309D01*
X91204Y-55391D01*
X91204Y-54490D01*
X91204Y-54390D01*
X91166Y-54299D01*
X91096Y-54228D01*
X91004Y-54190D01*
X90941Y-54190D01*
X90878Y-54253D01*
X90878Y-54890D01*
X91142Y-54890D01*
X91204Y-54828D01*
X91204Y-54490D01*
X91204Y-55391D01*
X91204Y-55053D01*
X91142Y-54990D01*
X90878Y-54990D01*
X90878Y-55628D01*
X90941Y-55690D01*
X91004Y-55690D01*
X91096Y-55653D01*
X91166Y-55582D01*
X91204Y-55490D01*
X91204Y-55391D01*
X91204Y-58309D01*
X91031Y-58309D01*
X90939Y-58346D01*
X90868Y-58417D01*
X90830Y-58509D01*
X90830Y-58608D01*
X90830Y-60659D01*
X90868Y-60751D01*
X90938Y-60822D01*
X91030Y-60860D01*
X91130Y-60860D01*
X92126Y-60860D01*
X92218Y-60822D01*
X92288Y-60752D01*
X92326Y-60660D01*
X92326Y-60560D01*
X92326Y-60905D01*
X90788Y-60905D01*
X90788Y-53917D01*
X90788Y-53479D01*
X90788Y-53379D01*
X90788Y-52942D01*
X90726Y-52879D01*
X90488Y-52879D01*
X90388Y-52879D01*
X90296Y-52917D01*
X90226Y-52988D01*
X90188Y-53080D01*
X90188Y-53317D01*
X90251Y-53379D01*
X90788Y-53379D01*
X90788Y-53479D01*
X90251Y-53479D01*
X90188Y-53542D01*
X90188Y-53779D01*
X90226Y-53870D01*
X90296Y-53941D01*
X90388Y-53979D01*
X90488Y-53979D01*
X90726Y-53979D01*
X90788Y-53917D01*
X90788Y-60905D01*
X90778Y-60905D01*
X90778Y-55628D01*
X90778Y-54990D01*
X90778Y-54890D01*
X90778Y-54253D01*
X90716Y-54190D01*
X90653Y-54190D01*
X90578Y-54221D01*
X90504Y-54190D01*
X90441Y-54190D01*
X90378Y-54253D01*
X90378Y-54890D01*
X90515Y-54890D01*
X90642Y-54890D01*
X90778Y-54890D01*
X90778Y-54990D01*
X90642Y-54990D01*
X90515Y-54990D01*
X90378Y-54990D01*
X90378Y-55628D01*
X90441Y-55690D01*
X90504Y-55690D01*
X90578Y-55660D01*
X90653Y-55690D01*
X90716Y-55690D01*
X90778Y-55628D01*
X90778Y-60905D01*
X90278Y-60905D01*
X90278Y-55628D01*
X90278Y-54990D01*
X90278Y-54890D01*
X90278Y-54253D01*
X90216Y-54190D01*
X90153Y-54190D01*
X90078Y-54221D01*
X90004Y-54190D01*
X89941Y-54190D01*
X89878Y-54253D01*
X89878Y-54890D01*
X90015Y-54890D01*
X90142Y-54890D01*
X90278Y-54890D01*
X90278Y-54990D01*
X90142Y-54990D01*
X90015Y-54990D01*
X89878Y-54990D01*
X89878Y-55628D01*
X89941Y-55690D01*
X90004Y-55690D01*
X90078Y-55660D01*
X90153Y-55690D01*
X90216Y-55690D01*
X90278Y-55628D01*
X90278Y-60905D01*
X85700Y-60905D01*
X85681Y-60901D01*
X85661Y-60905D01*
X81326Y-60905D01*
X81326Y-60560D01*
X81326Y-58509D01*
X81288Y-58417D01*
X81218Y-58347D01*
X81126Y-58309D01*
X81027Y-58309D01*
X80031Y-58309D01*
X79939Y-58346D01*
X79868Y-58417D01*
X79830Y-58509D01*
X79830Y-58608D01*
X79830Y-60659D01*
X79868Y-60751D01*
X79938Y-60822D01*
X80030Y-60860D01*
X80130Y-60860D01*
X81126Y-60860D01*
X81218Y-60822D01*
X81288Y-60752D01*
X81326Y-60660D01*
X81326Y-60560D01*
X81326Y-60905D01*
X77523Y-60905D01*
X77523Y-60110D01*
X77750Y-60338D01*
X78136Y-60498D01*
X78554Y-60499D01*
X78940Y-60339D01*
X79236Y-60044D01*
X79396Y-59658D01*
X79396Y-59240D01*
X79237Y-58854D01*
X78942Y-58559D01*
X78556Y-58399D01*
X78138Y-58398D01*
X77752Y-58558D01*
X77523Y-58786D01*
X77523Y-29402D01*
X77750Y-29629D01*
X78136Y-29789D01*
X78554Y-29790D01*
X78940Y-29630D01*
X79236Y-29335D01*
X79396Y-28949D01*
X79396Y-28532D01*
X79237Y-28146D01*
X78942Y-27850D01*
X78556Y-27690D01*
X78138Y-27689D01*
X77752Y-27849D01*
X77523Y-28077D01*
X77523Y-27204D01*
X94543Y-27204D01*
X94543Y-28097D01*
X94296Y-27850D01*
X93910Y-27690D01*
X93492Y-27689D01*
X93106Y-27849D01*
X92811Y-28144D01*
X92650Y-28530D01*
X92650Y-28948D01*
X92810Y-29334D01*
X93105Y-29629D01*
X93491Y-29789D01*
X93908Y-29790D01*
X94294Y-29630D01*
X94543Y-29382D01*
X94543Y-58806D01*
X94296Y-58559D01*
X93910Y-58399D01*
X93492Y-58398D01*
X93313Y-58472D01*
X93313Y-39588D01*
X93313Y-39037D01*
X93313Y-37816D01*
X93313Y-37364D01*
X93312Y-37265D01*
X93274Y-37173D01*
X93204Y-37102D01*
X93112Y-37064D01*
X92860Y-37064D01*
X92798Y-37127D01*
X92798Y-37540D01*
X93250Y-37540D01*
X93312Y-37478D01*
X93313Y-37364D01*
X93313Y-37816D01*
X93312Y-37703D01*
X93250Y-37640D01*
X92798Y-37640D01*
X92798Y-38053D01*
X92860Y-38116D01*
X93112Y-38116D01*
X93204Y-38078D01*
X93274Y-38007D01*
X93312Y-37916D01*
X93313Y-37816D01*
X93313Y-39037D01*
X93275Y-38945D01*
X93204Y-38874D01*
X93112Y-38836D01*
X93013Y-38836D01*
X92698Y-38836D01*
X92698Y-38053D01*
X92698Y-37640D01*
X92698Y-37540D01*
X92698Y-37127D01*
X92635Y-37064D01*
X92383Y-37064D01*
X92291Y-37102D01*
X92221Y-37173D01*
X92183Y-37265D01*
X92183Y-37364D01*
X92183Y-37478D01*
X92245Y-37540D01*
X92698Y-37540D01*
X92698Y-37640D01*
X92245Y-37640D01*
X92183Y-37703D01*
X92183Y-37816D01*
X92183Y-37916D01*
X92221Y-38007D01*
X92291Y-38078D01*
X92383Y-38116D01*
X92635Y-38116D01*
X92698Y-38053D01*
X92698Y-38836D01*
X92383Y-38836D01*
X92291Y-38874D01*
X92221Y-38944D01*
X92217Y-38954D01*
X91836Y-38954D01*
X91836Y-34644D01*
X91738Y-34405D01*
X91738Y-32199D01*
X91836Y-31963D01*
X91836Y-31667D01*
X91738Y-31429D01*
X91738Y-29976D01*
X91689Y-29730D01*
X91689Y-29730D01*
X91633Y-29646D01*
X91549Y-29521D01*
X91549Y-29521D01*
X90061Y-28033D01*
X89852Y-27893D01*
X89606Y-27844D01*
X89606Y-27844D01*
X88493Y-27844D01*
X88425Y-27776D01*
X88333Y-27738D01*
X88233Y-27738D01*
X87233Y-27738D01*
X87142Y-27776D01*
X87071Y-27846D01*
X87033Y-27938D01*
X87033Y-28037D01*
X87033Y-29037D01*
X87071Y-29129D01*
X87141Y-29200D01*
X87233Y-29238D01*
X87332Y-29238D01*
X88332Y-29238D01*
X88424Y-29200D01*
X88493Y-29131D01*
X89339Y-29131D01*
X90450Y-30243D01*
X90450Y-31429D01*
X90352Y-31666D01*
X90352Y-31961D01*
X90450Y-32200D01*
X90450Y-34406D01*
X90352Y-34643D01*
X90352Y-34938D01*
X90464Y-35211D01*
X90673Y-35420D01*
X90946Y-35533D01*
X91241Y-35533D01*
X91514Y-35420D01*
X91723Y-35212D01*
X91836Y-34939D01*
X91836Y-34644D01*
X91836Y-38954D01*
X90005Y-38954D01*
X90005Y-37816D01*
X90005Y-37364D01*
X90005Y-37265D01*
X89967Y-37173D01*
X89897Y-37102D01*
X89852Y-37084D01*
X89852Y-34644D01*
X89753Y-34405D01*
X89753Y-32199D01*
X89852Y-31963D01*
X89852Y-31667D01*
X89746Y-31411D01*
X89704Y-31202D01*
X89704Y-31202D01*
X89565Y-30993D01*
X89565Y-30993D01*
X88356Y-29784D01*
X88147Y-29645D01*
X87901Y-29596D01*
X87901Y-29596D01*
X86427Y-29596D01*
X86427Y-28893D01*
X86533Y-28638D01*
X86533Y-28339D01*
X86419Y-28063D01*
X86208Y-27852D01*
X85933Y-27738D01*
X85634Y-27738D01*
X85359Y-27851D01*
X85148Y-28062D01*
X85033Y-28338D01*
X85033Y-28636D01*
X85139Y-28894D01*
X85139Y-30039D01*
X85139Y-30039D01*
X85188Y-30285D01*
X85328Y-30494D01*
X85529Y-30695D01*
X85529Y-30695D01*
X85737Y-30834D01*
X85737Y-30834D01*
X85935Y-30874D01*
X85984Y-30883D01*
X85984Y-30883D01*
X85984Y-30883D01*
X87634Y-30883D01*
X88382Y-31631D01*
X88368Y-31666D01*
X88367Y-31961D01*
X88466Y-32200D01*
X88466Y-34406D01*
X88368Y-34643D01*
X88367Y-34938D01*
X88480Y-35211D01*
X88689Y-35420D01*
X88961Y-35533D01*
X89257Y-35533D01*
X89530Y-35420D01*
X89739Y-35212D01*
X89852Y-34939D01*
X89852Y-34644D01*
X89852Y-37084D01*
X89805Y-37064D01*
X89553Y-37064D01*
X89490Y-37127D01*
X89490Y-37540D01*
X89943Y-37540D01*
X90005Y-37478D01*
X90005Y-37364D01*
X90005Y-37816D01*
X90005Y-37703D01*
X89943Y-37640D01*
X89490Y-37640D01*
X89490Y-38053D01*
X89553Y-38116D01*
X89805Y-38116D01*
X89897Y-38078D01*
X89967Y-38007D01*
X90005Y-37916D01*
X90005Y-37816D01*
X90005Y-38954D01*
X89971Y-38954D01*
X89967Y-38945D01*
X89897Y-38874D01*
X89805Y-38836D01*
X89706Y-38836D01*
X89390Y-38836D01*
X89390Y-38053D01*
X89390Y-37640D01*
X89390Y-37540D01*
X89390Y-37127D01*
X89328Y-37064D01*
X89076Y-37064D01*
X88984Y-37102D01*
X88914Y-37173D01*
X88876Y-37265D01*
X88875Y-37364D01*
X88875Y-37478D01*
X88938Y-37540D01*
X89390Y-37540D01*
X89390Y-37640D01*
X88938Y-37640D01*
X88875Y-37703D01*
X88875Y-37816D01*
X88876Y-37916D01*
X88914Y-38007D01*
X88984Y-38078D01*
X89076Y-38116D01*
X89328Y-38116D01*
X89390Y-38053D01*
X89390Y-38836D01*
X89076Y-38836D01*
X88984Y-38874D01*
X88914Y-38944D01*
X88876Y-39036D01*
X88875Y-39136D01*
X88875Y-39208D01*
X88829Y-39254D01*
X88829Y-38550D01*
X88791Y-38458D01*
X88721Y-38388D01*
X88658Y-38361D01*
X88656Y-38352D01*
X88656Y-38352D01*
X88621Y-38299D01*
X88568Y-38220D01*
X88568Y-38220D01*
X87929Y-37581D01*
X87868Y-37540D01*
X87868Y-34644D01*
X87769Y-34405D01*
X87769Y-32199D01*
X87867Y-31963D01*
X87868Y-31667D01*
X87755Y-31395D01*
X87546Y-31186D01*
X87274Y-31072D01*
X86979Y-31072D01*
X86740Y-31171D01*
X84880Y-31171D01*
X84427Y-30717D01*
X84427Y-28893D01*
X84533Y-28638D01*
X84533Y-28339D01*
X84419Y-28063D01*
X84208Y-27852D01*
X83933Y-27738D01*
X83634Y-27738D01*
X83359Y-27851D01*
X83148Y-28062D01*
X83033Y-28338D01*
X83033Y-28636D01*
X83139Y-28894D01*
X83139Y-30984D01*
X83139Y-30984D01*
X83188Y-31230D01*
X83328Y-31439D01*
X84159Y-32270D01*
X84159Y-32270D01*
X84367Y-32409D01*
X84367Y-32409D01*
X84614Y-32458D01*
X86482Y-32458D01*
X86482Y-34406D01*
X86383Y-34643D01*
X86383Y-34938D01*
X86496Y-35211D01*
X86705Y-35420D01*
X86977Y-35533D01*
X87272Y-35533D01*
X87545Y-35420D01*
X87754Y-35212D01*
X87867Y-34939D01*
X87868Y-34644D01*
X87868Y-37540D01*
X87797Y-37493D01*
X87641Y-37462D01*
X87641Y-37462D01*
X85015Y-37462D01*
X85001Y-37428D01*
X84931Y-37357D01*
X84839Y-37319D01*
X84797Y-37319D01*
X84797Y-34596D01*
X84905Y-34488D01*
X84997Y-34266D01*
X84998Y-34025D01*
X84906Y-33803D01*
X84736Y-33633D01*
X84514Y-33541D01*
X84274Y-33541D01*
X84051Y-33633D01*
X83881Y-33802D01*
X83789Y-34024D01*
X83789Y-34265D01*
X83881Y-34487D01*
X83982Y-34588D01*
X83982Y-37319D01*
X83940Y-37319D01*
X83848Y-37357D01*
X83777Y-37427D01*
X83739Y-37519D01*
X83739Y-37619D01*
X83739Y-38219D01*
X83777Y-38311D01*
X83847Y-38381D01*
X83939Y-38419D01*
X84039Y-38419D01*
X84839Y-38419D01*
X84931Y-38381D01*
X85001Y-38311D01*
X85015Y-38277D01*
X87472Y-38277D01*
X87734Y-38539D01*
X87729Y-38550D01*
X87729Y-38649D01*
X87729Y-38976D01*
X87615Y-39090D01*
X87542Y-39200D01*
X87529Y-39261D01*
X87529Y-38649D01*
X87529Y-38550D01*
X87491Y-38458D01*
X87421Y-38387D01*
X87329Y-38349D01*
X87092Y-38350D01*
X87029Y-38412D01*
X87029Y-38950D01*
X87467Y-38950D01*
X87529Y-38887D01*
X87529Y-38649D01*
X87529Y-39261D01*
X87529Y-39262D01*
X87529Y-39112D01*
X87467Y-39050D01*
X87029Y-39050D01*
X87029Y-39587D01*
X87092Y-39650D01*
X87329Y-39650D01*
X87421Y-39612D01*
X87491Y-39541D01*
X87516Y-39482D01*
X87516Y-39903D01*
X87489Y-39903D01*
X87489Y-39960D01*
X87432Y-39903D01*
X87400Y-39903D01*
X87382Y-39911D01*
X87363Y-39903D01*
X87263Y-39903D01*
X87086Y-39903D01*
X87067Y-39911D01*
X87047Y-39903D01*
X86947Y-39903D01*
X86929Y-39903D01*
X86929Y-39587D01*
X86929Y-39050D01*
X86929Y-38950D01*
X86929Y-38412D01*
X86867Y-38350D01*
X86630Y-38349D01*
X86538Y-38387D01*
X86468Y-38458D01*
X86429Y-38550D01*
X86429Y-38649D01*
X86429Y-38887D01*
X86492Y-38950D01*
X86929Y-38950D01*
X86929Y-39050D01*
X86492Y-39050D01*
X86429Y-39112D01*
X86429Y-39350D01*
X86429Y-39449D01*
X86468Y-39541D01*
X86538Y-39612D01*
X86630Y-39650D01*
X86867Y-39650D01*
X86929Y-39587D01*
X86929Y-39903D01*
X86770Y-39903D01*
X86752Y-39911D01*
X86733Y-39903D01*
X86633Y-39903D01*
X86456Y-39903D01*
X86437Y-39911D01*
X86417Y-39903D01*
X86317Y-39903D01*
X86140Y-39903D01*
X86122Y-39911D01*
X86103Y-39903D01*
X86003Y-39903D01*
X85826Y-39903D01*
X85807Y-39911D01*
X85787Y-39903D01*
X85687Y-39903D01*
X85510Y-39903D01*
X85492Y-39911D01*
X85473Y-39903D01*
X85373Y-39903D01*
X85196Y-39903D01*
X85177Y-39911D01*
X85157Y-39903D01*
X85057Y-39903D01*
X85039Y-39903D01*
X85039Y-39519D01*
X85039Y-38820D01*
X85001Y-38728D01*
X84931Y-38657D01*
X84839Y-38619D01*
X84740Y-38619D01*
X84502Y-38619D01*
X84439Y-38682D01*
X84439Y-39119D01*
X84977Y-39119D01*
X85039Y-39057D01*
X85039Y-38820D01*
X85039Y-39519D01*
X85039Y-39282D01*
X84977Y-39219D01*
X84439Y-39219D01*
X84439Y-39657D01*
X84502Y-39719D01*
X84740Y-39719D01*
X84839Y-39719D01*
X84931Y-39681D01*
X85001Y-39611D01*
X85039Y-39519D01*
X85039Y-39903D01*
X84880Y-39903D01*
X84862Y-39911D01*
X84843Y-39903D01*
X84743Y-39903D01*
X84566Y-39903D01*
X84547Y-39911D01*
X84527Y-39903D01*
X84495Y-39903D01*
X84433Y-39965D01*
X84433Y-39983D01*
X84404Y-40011D01*
X84390Y-40046D01*
X84375Y-40011D01*
X84344Y-39981D01*
X84344Y-39965D01*
X84339Y-39960D01*
X84339Y-39657D01*
X84339Y-39219D01*
X84339Y-39119D01*
X84339Y-38682D01*
X84277Y-38619D01*
X84039Y-38619D01*
X83939Y-38619D01*
X83847Y-38657D01*
X83777Y-38728D01*
X83739Y-38820D01*
X83739Y-39057D01*
X83802Y-39119D01*
X84339Y-39119D01*
X84339Y-39219D01*
X83802Y-39219D01*
X83739Y-39282D01*
X83739Y-39519D01*
X83777Y-39611D01*
X83847Y-39681D01*
X83939Y-39719D01*
X84039Y-39719D01*
X84277Y-39719D01*
X84339Y-39657D01*
X84339Y-39960D01*
X84282Y-39903D01*
X84250Y-39903D01*
X84232Y-39911D01*
X84213Y-39903D01*
X84113Y-39903D01*
X83936Y-39903D01*
X83845Y-39941D01*
X83774Y-40011D01*
X83736Y-40103D01*
X83736Y-40202D01*
X83736Y-40989D01*
X83740Y-40998D01*
X83734Y-40996D01*
X83634Y-40996D01*
X82954Y-40996D01*
X83037Y-40797D01*
X83037Y-40557D01*
X83009Y-40490D01*
X83017Y-40490D01*
X83239Y-40398D01*
X83409Y-40228D01*
X83501Y-40006D01*
X83502Y-39766D01*
X83410Y-39543D01*
X83240Y-39373D01*
X83018Y-39281D01*
X82777Y-39281D01*
X82555Y-39373D01*
X82385Y-39543D01*
X82381Y-39553D01*
X81970Y-39553D01*
X81974Y-39541D01*
X81975Y-39442D01*
X81975Y-39242D01*
X81937Y-39150D01*
X81928Y-39141D01*
X81936Y-39133D01*
X81974Y-39041D01*
X81975Y-38942D01*
X81975Y-38742D01*
X81937Y-38650D01*
X81928Y-38641D01*
X81936Y-38633D01*
X81974Y-38541D01*
X81975Y-38442D01*
X81975Y-38242D01*
X81937Y-38150D01*
X81928Y-38141D01*
X81936Y-38133D01*
X81974Y-38041D01*
X81975Y-37942D01*
X81975Y-37742D01*
X81937Y-37650D01*
X81928Y-37641D01*
X81936Y-37633D01*
X81974Y-37541D01*
X81975Y-37442D01*
X81975Y-37242D01*
X81937Y-37150D01*
X81928Y-37141D01*
X81937Y-37133D01*
X81975Y-37041D01*
X81975Y-36742D01*
X81937Y-36650D01*
X81866Y-36579D01*
X81774Y-36541D01*
X81675Y-36541D01*
X81612Y-36541D01*
X81550Y-36604D01*
X81550Y-36841D01*
X81912Y-36841D01*
X81975Y-36779D01*
X81975Y-36742D01*
X81975Y-37041D01*
X81975Y-37004D01*
X81912Y-36941D01*
X81550Y-36941D01*
X81550Y-36949D01*
X81450Y-36949D01*
X81450Y-36941D01*
X81450Y-36841D01*
X81450Y-36604D01*
X81387Y-36541D01*
X81324Y-36541D01*
X81225Y-36541D01*
X81133Y-36579D01*
X81062Y-36650D01*
X81024Y-36742D01*
X81025Y-36779D01*
X81087Y-36841D01*
X81450Y-36841D01*
X81450Y-36941D01*
X81087Y-36941D01*
X81025Y-37004D01*
X81024Y-37041D01*
X81062Y-37133D01*
X81071Y-37141D01*
X81063Y-37149D01*
X81025Y-37241D01*
X81024Y-37341D01*
X81024Y-37541D01*
X81062Y-37633D01*
X81071Y-37641D01*
X81063Y-37649D01*
X81025Y-37741D01*
X81024Y-37841D01*
X81024Y-38041D01*
X81062Y-38133D01*
X81071Y-38141D01*
X81063Y-38149D01*
X81025Y-38241D01*
X81024Y-38341D01*
X81024Y-38541D01*
X81062Y-38633D01*
X81071Y-38641D01*
X81063Y-38649D01*
X81025Y-38741D01*
X81024Y-38841D01*
X81024Y-39041D01*
X81062Y-39133D01*
X81071Y-39141D01*
X81063Y-39149D01*
X81025Y-39241D01*
X81024Y-39341D01*
X81024Y-39541D01*
X81062Y-39633D01*
X81071Y-39641D01*
X81063Y-39649D01*
X81025Y-39741D01*
X81024Y-39841D01*
X81024Y-40041D01*
X81062Y-40133D01*
X81071Y-40141D01*
X81063Y-40149D01*
X81025Y-40241D01*
X81024Y-40341D01*
X81024Y-40541D01*
X81062Y-40633D01*
X81133Y-40703D01*
X81225Y-40741D01*
X81324Y-40741D01*
X81774Y-40741D01*
X81802Y-40730D01*
X81828Y-40730D01*
X81828Y-40796D01*
X81920Y-41019D01*
X82090Y-41189D01*
X82312Y-41281D01*
X82552Y-41281D01*
X82647Y-41242D01*
X82647Y-41295D01*
X82647Y-41311D01*
X82428Y-41311D01*
X82299Y-41337D01*
X82189Y-41410D01*
X81662Y-41937D01*
X81588Y-42047D01*
X81562Y-42177D01*
X81562Y-42859D01*
X81486Y-42936D01*
X81486Y-42861D01*
X81486Y-42043D01*
X81486Y-41944D01*
X81448Y-41852D01*
X81377Y-41782D01*
X81285Y-41744D01*
X81053Y-41744D01*
X80990Y-41806D01*
X80990Y-42402D01*
X81423Y-42402D01*
X81486Y-42340D01*
X81486Y-42043D01*
X81486Y-42861D01*
X81486Y-42565D01*
X81423Y-42502D01*
X80990Y-42502D01*
X80990Y-42510D01*
X80890Y-42510D01*
X80890Y-42502D01*
X80883Y-42502D01*
X80883Y-42402D01*
X80890Y-42402D01*
X80890Y-41806D01*
X80828Y-41744D01*
X80596Y-41744D01*
X80504Y-41782D01*
X80440Y-41845D01*
X80378Y-41782D01*
X80286Y-41744D01*
X80186Y-41744D01*
X79596Y-41744D01*
X79504Y-41782D01*
X79440Y-41845D01*
X79378Y-41782D01*
X79348Y-41769D01*
X79348Y-41299D01*
X79317Y-41143D01*
X79317Y-41143D01*
X79282Y-41090D01*
X79229Y-41011D01*
X79229Y-41011D01*
X78990Y-40772D01*
X78990Y-37326D01*
X79017Y-37299D01*
X79024Y-37299D01*
X79024Y-37341D01*
X79024Y-37541D01*
X79062Y-37633D01*
X79071Y-37641D01*
X79063Y-37649D01*
X79025Y-37741D01*
X79024Y-37841D01*
X79024Y-38041D01*
X79062Y-38133D01*
X79071Y-38141D01*
X79063Y-38149D01*
X79025Y-38241D01*
X79024Y-38341D01*
X79024Y-38541D01*
X79062Y-38633D01*
X79071Y-38641D01*
X79063Y-38649D01*
X79025Y-38741D01*
X79024Y-38841D01*
X79024Y-39041D01*
X79062Y-39133D01*
X79071Y-39141D01*
X79063Y-39149D01*
X79025Y-39241D01*
X79024Y-39341D01*
X79024Y-39541D01*
X79062Y-39633D01*
X79071Y-39641D01*
X79063Y-39649D01*
X79025Y-39741D01*
X79024Y-39841D01*
X79024Y-40041D01*
X79062Y-40133D01*
X79071Y-40141D01*
X79063Y-40149D01*
X79025Y-40241D01*
X79024Y-40341D01*
X79024Y-40541D01*
X79062Y-40633D01*
X79133Y-40703D01*
X79225Y-40741D01*
X79324Y-40741D01*
X79774Y-40741D01*
X79802Y-40730D01*
X80155Y-40730D01*
X80285Y-40704D01*
X80285Y-40704D01*
X80394Y-40631D01*
X80739Y-40286D01*
X80739Y-40286D01*
X80739Y-40286D01*
X80812Y-40176D01*
X80838Y-40047D01*
X80838Y-40047D01*
X80838Y-40047D01*
X80838Y-36699D01*
X81183Y-36354D01*
X81704Y-36354D01*
X81834Y-36328D01*
X81834Y-36328D01*
X81944Y-36255D01*
X82652Y-35546D01*
X82726Y-35436D01*
X82751Y-35307D01*
X82751Y-32539D01*
X82751Y-32539D01*
X82751Y-32539D01*
X82726Y-32409D01*
X82652Y-32299D01*
X82652Y-32299D01*
X81928Y-31575D01*
X81857Y-31528D01*
X81857Y-31528D01*
X81802Y-31395D01*
X81594Y-31186D01*
X81321Y-31072D01*
X81026Y-31072D01*
X80753Y-31185D01*
X80544Y-31394D01*
X80431Y-31666D01*
X80430Y-31961D01*
X80543Y-32234D01*
X80752Y-32443D01*
X81024Y-32556D01*
X81320Y-32557D01*
X81593Y-32444D01*
X81716Y-32321D01*
X82074Y-32679D01*
X82074Y-35166D01*
X81564Y-35677D01*
X81043Y-35677D01*
X81043Y-35677D01*
X80913Y-35702D01*
X80803Y-35776D01*
X80803Y-35776D01*
X80437Y-36143D01*
X80437Y-35541D01*
X80655Y-35323D01*
X80752Y-35420D01*
X81024Y-35533D01*
X81320Y-35533D01*
X81593Y-35420D01*
X81802Y-35212D01*
X81915Y-34939D01*
X81915Y-34644D01*
X81802Y-34371D01*
X81594Y-34162D01*
X81321Y-34049D01*
X81026Y-34049D01*
X80753Y-34161D01*
X80544Y-34370D01*
X80468Y-34552D01*
X79859Y-35162D01*
X79785Y-35272D01*
X79759Y-35401D01*
X79759Y-36541D01*
X79695Y-36541D01*
X79655Y-36515D01*
X79500Y-36484D01*
X78990Y-36484D01*
X78990Y-34007D01*
X79286Y-33710D01*
X80538Y-33710D01*
X80543Y-33722D01*
X80752Y-33931D01*
X81024Y-34045D01*
X81320Y-34045D01*
X81593Y-33932D01*
X81802Y-33724D01*
X81915Y-33451D01*
X81915Y-33156D01*
X81802Y-32883D01*
X81594Y-32674D01*
X81321Y-32561D01*
X81026Y-32560D01*
X80753Y-32673D01*
X80544Y-32882D01*
X80538Y-32895D01*
X79118Y-32895D01*
X78962Y-32926D01*
X78909Y-32962D01*
X78829Y-33015D01*
X78829Y-33015D01*
X78294Y-33550D01*
X78206Y-33682D01*
X78175Y-33838D01*
X78175Y-33838D01*
X78175Y-37157D01*
X78175Y-37157D01*
X78175Y-37157D01*
X78175Y-40940D01*
X78175Y-40940D01*
X78206Y-41096D01*
X78294Y-41229D01*
X78533Y-41467D01*
X78533Y-41769D01*
X78504Y-41782D01*
X78433Y-41852D01*
X78395Y-41944D01*
X78395Y-42043D01*
X78395Y-42421D01*
X77763Y-43054D01*
X77674Y-43186D01*
X77643Y-43342D01*
X77643Y-43342D01*
X77643Y-47114D01*
X77643Y-47114D01*
X77674Y-47270D01*
X77763Y-47402D01*
X79183Y-48822D01*
X79183Y-52433D01*
X79183Y-52433D01*
X79214Y-52589D01*
X79302Y-52721D01*
X79761Y-53179D01*
X79761Y-53179D01*
X79893Y-53268D01*
X79893Y-53268D01*
X80018Y-53293D01*
X80049Y-53299D01*
X80049Y-53299D01*
X80049Y-53299D01*
X81583Y-53299D01*
X81528Y-53322D01*
X81358Y-53491D01*
X81265Y-53713D01*
X81265Y-53954D01*
X81357Y-54176D01*
X81371Y-54190D01*
X81153Y-54190D01*
X81061Y-54228D01*
X80990Y-54299D01*
X80952Y-54390D01*
X80952Y-54490D01*
X80952Y-54784D01*
X80952Y-54785D01*
X80921Y-54940D01*
X80952Y-55096D01*
X80952Y-55097D01*
X80952Y-55490D01*
X80990Y-55582D01*
X81060Y-55652D01*
X81152Y-55690D01*
X81252Y-55690D01*
X81504Y-55690D01*
X81578Y-55660D01*
X81652Y-55690D01*
X81752Y-55690D01*
X82004Y-55690D01*
X82078Y-55660D01*
X82152Y-55690D01*
X82252Y-55690D01*
X82504Y-55690D01*
X82578Y-55660D01*
X82652Y-55690D01*
X82752Y-55690D01*
X82990Y-55690D01*
X82990Y-56135D01*
X83015Y-56265D01*
X83089Y-56375D01*
X83398Y-56684D01*
X83398Y-56684D01*
X83508Y-56757D01*
X83637Y-56783D01*
X89086Y-56783D01*
X89216Y-56757D01*
X89216Y-56757D01*
X89326Y-56684D01*
X89568Y-56442D01*
X89641Y-56332D01*
X89667Y-56202D01*
X89667Y-55690D01*
X89716Y-55690D01*
X89778Y-55628D01*
X89778Y-54990D01*
X89770Y-54990D01*
X89770Y-54890D01*
X89778Y-54890D01*
X89778Y-54253D01*
X89716Y-54190D01*
X89667Y-54190D01*
X89667Y-53998D01*
X89641Y-53868D01*
X89568Y-53758D01*
X89568Y-53758D01*
X89551Y-53741D01*
X89875Y-53741D01*
X89967Y-53703D01*
X90037Y-53633D01*
X90076Y-53541D01*
X90076Y-53442D01*
X90076Y-53242D01*
X90038Y-53150D01*
X90029Y-53141D01*
X90037Y-53133D01*
X90076Y-53041D01*
X90076Y-52942D01*
X90076Y-52742D01*
X90038Y-52650D01*
X90029Y-52641D01*
X90037Y-52633D01*
X90076Y-52541D01*
X90076Y-52442D01*
X90076Y-52242D01*
X90038Y-52150D01*
X90029Y-52141D01*
X90038Y-52133D01*
X90076Y-52041D01*
X90076Y-51742D01*
X90038Y-51650D01*
X89967Y-51579D01*
X89876Y-51541D01*
X89776Y-51541D01*
X89713Y-51541D01*
X89651Y-51604D01*
X89651Y-51841D01*
X90013Y-51841D01*
X90076Y-51779D01*
X90076Y-51742D01*
X90076Y-52041D01*
X90076Y-52004D01*
X90013Y-51941D01*
X89651Y-51941D01*
X89651Y-51949D01*
X89551Y-51949D01*
X89551Y-51941D01*
X89188Y-51941D01*
X89126Y-52004D01*
X89126Y-52041D01*
X89131Y-52053D01*
X89120Y-52053D01*
X89120Y-52053D01*
X88990Y-52078D01*
X88880Y-52152D01*
X88880Y-52152D01*
X88688Y-52344D01*
X88688Y-52159D01*
X89139Y-51709D01*
X89126Y-51742D01*
X89126Y-51779D01*
X89188Y-51841D01*
X89551Y-51841D01*
X89551Y-51604D01*
X89488Y-51541D01*
X89425Y-51541D01*
X89326Y-51541D01*
X89263Y-51567D01*
X89300Y-51511D01*
X89326Y-51381D01*
X89326Y-51381D01*
X89326Y-51381D01*
X89326Y-48358D01*
X89300Y-48228D01*
X89300Y-48228D01*
X89227Y-48118D01*
X88823Y-47714D01*
X88823Y-47490D01*
X88937Y-47490D01*
X89028Y-47452D01*
X89099Y-47382D01*
X89137Y-47290D01*
X89137Y-47240D01*
X89184Y-47353D01*
X89289Y-47459D01*
X89289Y-47846D01*
X89289Y-47846D01*
X89320Y-48002D01*
X89408Y-48134D01*
X90192Y-48918D01*
X90192Y-48918D01*
X90324Y-49006D01*
X90324Y-49006D01*
X90449Y-49031D01*
X90480Y-49037D01*
X90480Y-49037D01*
X90480Y-49037D01*
X91213Y-49037D01*
X91661Y-49486D01*
X91661Y-49836D01*
X91657Y-49840D01*
X91619Y-49932D01*
X91619Y-49982D01*
X91619Y-49932D01*
X91581Y-49840D01*
X91510Y-49770D01*
X91418Y-49732D01*
X91281Y-49732D01*
X91219Y-49795D01*
X91219Y-50332D01*
X91227Y-50332D01*
X91227Y-50432D01*
X91219Y-50432D01*
X91219Y-50440D01*
X91119Y-50440D01*
X91119Y-50432D01*
X91111Y-50432D01*
X91111Y-50332D01*
X91119Y-50332D01*
X91119Y-49795D01*
X91056Y-49732D01*
X90919Y-49732D01*
X90827Y-49770D01*
X90757Y-49840D01*
X90719Y-49932D01*
X90719Y-49933D01*
X90681Y-49841D01*
X90611Y-49770D01*
X90519Y-49732D01*
X90419Y-49732D01*
X90019Y-49732D01*
X89927Y-49770D01*
X89857Y-49840D01*
X89819Y-49932D01*
X89819Y-50032D01*
X89819Y-50832D01*
X89857Y-50924D01*
X89861Y-50928D01*
X89861Y-51194D01*
X89861Y-51194D01*
X89892Y-51350D01*
X89981Y-51482D01*
X90214Y-51716D01*
X90188Y-51779D01*
X90188Y-51879D01*
X90188Y-52479D01*
X90226Y-52570D01*
X90296Y-52641D01*
X90388Y-52679D01*
X90488Y-52679D01*
X91288Y-52679D01*
X91380Y-52641D01*
X91450Y-52571D01*
X91453Y-52562D01*
X91458Y-52574D01*
X91529Y-52645D01*
X91620Y-52683D01*
X91720Y-52683D01*
X92520Y-52683D01*
X92612Y-52645D01*
X92682Y-52575D01*
X92720Y-52483D01*
X92720Y-52383D01*
X92720Y-51783D01*
X92682Y-51692D01*
X92612Y-51621D01*
X92520Y-51583D01*
X92478Y-51583D01*
X92478Y-50927D01*
X92481Y-50924D01*
X92519Y-50832D01*
X92519Y-50733D01*
X92519Y-49933D01*
X92481Y-49841D01*
X92476Y-49836D01*
X92476Y-49317D01*
X92476Y-49317D01*
X92476Y-49317D01*
X92470Y-49286D01*
X92445Y-49161D01*
X92445Y-49161D01*
X92357Y-49029D01*
X92357Y-49029D01*
X91760Y-48432D01*
X91938Y-48432D01*
X92030Y-48394D01*
X92101Y-48324D01*
X92139Y-48232D01*
X92139Y-48133D01*
X92139Y-47333D01*
X92101Y-47241D01*
X92031Y-47170D01*
X91939Y-47132D01*
X91839Y-47132D01*
X90399Y-47132D01*
X90307Y-47170D01*
X90269Y-47209D01*
X90301Y-47132D01*
X90301Y-46892D01*
X90209Y-46669D01*
X90039Y-46499D01*
X89817Y-46407D01*
X89577Y-46407D01*
X89354Y-46499D01*
X89184Y-46669D01*
X89137Y-46782D01*
X89137Y-46403D01*
X89135Y-46397D01*
X89143Y-46401D01*
X89243Y-46401D01*
X90030Y-46401D01*
X90121Y-46363D01*
X90192Y-46293D01*
X90230Y-46201D01*
X90230Y-46101D01*
X90230Y-45924D01*
X90222Y-45905D01*
X90230Y-45886D01*
X90230Y-45786D01*
X90230Y-45609D01*
X90222Y-45590D01*
X90230Y-45571D01*
X90230Y-45471D01*
X90230Y-45294D01*
X90222Y-45275D01*
X90230Y-45256D01*
X90230Y-45156D01*
X90230Y-44979D01*
X90222Y-44960D01*
X90230Y-44941D01*
X90230Y-44841D01*
X90230Y-44664D01*
X90222Y-44645D01*
X90230Y-44626D01*
X90230Y-44526D01*
X90230Y-44349D01*
X90222Y-44330D01*
X90230Y-44311D01*
X90230Y-44211D01*
X90230Y-44034D01*
X90222Y-44015D01*
X90230Y-43996D01*
X90230Y-43896D01*
X90230Y-43719D01*
X90221Y-43698D01*
X90230Y-43678D01*
X90230Y-43578D01*
X90230Y-43559D01*
X90344Y-43559D01*
X90344Y-43624D01*
X90382Y-43716D01*
X90453Y-43786D01*
X90545Y-43824D01*
X90644Y-43825D01*
X91273Y-43825D01*
X91365Y-43787D01*
X91435Y-43716D01*
X91468Y-43637D01*
X91500Y-43716D01*
X91571Y-43786D01*
X91663Y-43824D01*
X91762Y-43825D01*
X92391Y-43825D01*
X92483Y-43787D01*
X92553Y-43716D01*
X92591Y-43624D01*
X92592Y-43525D01*
X92592Y-42816D01*
X92554Y-42724D01*
X92483Y-42654D01*
X92391Y-42616D01*
X92366Y-42615D01*
X92366Y-42402D01*
X92468Y-42402D01*
X92559Y-42364D01*
X92630Y-42293D01*
X92668Y-42201D01*
X92668Y-42102D01*
X92668Y-41302D01*
X92630Y-41210D01*
X92560Y-41140D01*
X92468Y-41102D01*
X92368Y-41101D01*
X91768Y-41101D01*
X91677Y-41139D01*
X91606Y-41210D01*
X91568Y-41302D01*
X91568Y-41401D01*
X91568Y-42201D01*
X91606Y-42293D01*
X91676Y-42363D01*
X91688Y-42368D01*
X91688Y-42615D01*
X91663Y-42615D01*
X91571Y-42653D01*
X91501Y-42724D01*
X91468Y-42802D01*
X91436Y-42724D01*
X91365Y-42654D01*
X91273Y-42616D01*
X91174Y-42615D01*
X90545Y-42615D01*
X90453Y-42653D01*
X90383Y-42724D01*
X90345Y-42816D01*
X90344Y-42881D01*
X90230Y-42881D01*
X90230Y-42771D01*
X90222Y-42752D01*
X90230Y-42733D01*
X90230Y-42633D01*
X90230Y-42456D01*
X90222Y-42437D01*
X90230Y-42418D01*
X90230Y-42318D01*
X90230Y-42141D01*
X90222Y-42122D01*
X90230Y-42103D01*
X90230Y-42003D01*
X90230Y-41826D01*
X90222Y-41807D01*
X90230Y-41788D01*
X90230Y-41688D01*
X90230Y-41511D01*
X90222Y-41492D01*
X90230Y-41473D01*
X90230Y-41373D01*
X90230Y-41243D01*
X90274Y-41287D01*
X90268Y-41302D01*
X90268Y-41401D01*
X90268Y-42201D01*
X90306Y-42293D01*
X90376Y-42363D01*
X90468Y-42401D01*
X90568Y-42402D01*
X91168Y-42402D01*
X91259Y-42364D01*
X91330Y-42293D01*
X91368Y-42201D01*
X91368Y-42102D01*
X91368Y-41302D01*
X91330Y-41210D01*
X91260Y-41140D01*
X91208Y-41118D01*
X91206Y-41111D01*
X91206Y-41111D01*
X91118Y-40979D01*
X91118Y-40979D01*
X90765Y-40626D01*
X90765Y-40470D01*
X90674Y-40248D01*
X90504Y-40078D01*
X90282Y-39986D01*
X90041Y-39986D01*
X89819Y-40077D01*
X89649Y-40247D01*
X89557Y-40469D01*
X89556Y-40710D01*
X89648Y-40932D01*
X89712Y-40996D01*
X89143Y-40996D01*
X89133Y-41000D01*
X89137Y-40990D01*
X89137Y-40890D01*
X89137Y-40103D01*
X89099Y-40011D01*
X89061Y-39973D01*
X89081Y-39959D01*
X89154Y-39887D01*
X89175Y-39887D01*
X89805Y-39887D01*
X89897Y-39849D01*
X89967Y-39779D01*
X89971Y-39769D01*
X92217Y-39769D01*
X92221Y-39779D01*
X92291Y-39849D01*
X92383Y-39887D01*
X92482Y-39887D01*
X93112Y-39887D01*
X93204Y-39849D01*
X93274Y-39779D01*
X93312Y-39687D01*
X93313Y-39588D01*
X93313Y-58472D01*
X93106Y-58558D01*
X92811Y-58853D01*
X92720Y-59070D01*
X92720Y-53782D01*
X92720Y-53083D01*
X92682Y-52992D01*
X92612Y-52921D01*
X92520Y-52883D01*
X92421Y-52883D01*
X92183Y-52883D01*
X92120Y-52945D01*
X92120Y-53383D01*
X92658Y-53383D01*
X92720Y-53320D01*
X92720Y-53083D01*
X92720Y-53782D01*
X92720Y-53545D01*
X92658Y-53483D01*
X92120Y-53483D01*
X92120Y-53920D01*
X92183Y-53983D01*
X92421Y-53983D01*
X92520Y-53983D01*
X92612Y-53945D01*
X92682Y-53874D01*
X92720Y-53782D01*
X92720Y-59070D01*
X92650Y-59239D01*
X92650Y-59656D01*
X92810Y-60042D01*
X93105Y-60338D01*
X93491Y-60498D01*
X93908Y-60499D01*
X94294Y-60339D01*
X94543Y-60091D01*
X94543Y-60905D01*
M02*
