G04 (created by PCBNEW (2013-may-18)-stable) date Sat 04 Apr 2015 12:39:56 AM CEST*
%MOIN*%
G04 Gerber Fmt 3.4, Leading zero omitted, Abs format*
%FSLAX34Y34*%
G01*
G70*
G90*
G04 APERTURE LIST*
%ADD10C,0.00590551*%
%ADD11C,0.012*%
%ADD12C,0.008*%
%ADD13C,0.005*%
%ADD14C,0.006*%
%ADD15C,0.0026*%
%ADD16C,0.004*%
%ADD17C,0.015*%
%ADD18C,0.0035*%
%ADD19C,0.01*%
G04 APERTURE END LIST*
G54D10*
G54D11*
X83661Y-41146D02*
X83659Y-46476D01*
X89221Y-40916D02*
X83887Y-40916D01*
X83661Y-41146D02*
X83891Y-40916D01*
X83661Y-46058D02*
X83209Y-46058D01*
X83209Y-46058D02*
X83209Y-41326D01*
X83209Y-41326D02*
X83661Y-41326D01*
X88803Y-46476D02*
X88803Y-46928D01*
X88803Y-46928D02*
X84083Y-46928D01*
X84083Y-46928D02*
X84083Y-46476D01*
X89221Y-41342D02*
X89673Y-41342D01*
X89673Y-41342D02*
X89673Y-46050D01*
X89673Y-46050D02*
X89221Y-46050D01*
X84087Y-40916D02*
X84087Y-40464D01*
X84087Y-40464D02*
X88799Y-40464D01*
X88799Y-40464D02*
X88799Y-40916D01*
X84257Y-41320D02*
G75*
G03X84257Y-41320I-188J0D01*
G74*
G01*
X89221Y-40916D02*
X89221Y-46476D01*
X83661Y-46476D02*
X89221Y-46476D01*
G54D10*
X92275Y-38476D02*
X92275Y-39342D01*
X92275Y-39342D02*
X89913Y-39342D01*
X89913Y-39342D02*
X89913Y-37570D01*
X89913Y-37570D02*
X92275Y-37570D01*
X92275Y-37570D02*
X92275Y-38476D01*
X91929Y-38476D02*
G75*
G03X91929Y-38476I-835J0D01*
G74*
G01*
G54D12*
X89769Y-49682D02*
X89769Y-50882D01*
X89769Y-50882D02*
X92569Y-50882D01*
X92569Y-50882D02*
X92569Y-49682D01*
X89769Y-48482D02*
X89769Y-48182D01*
X89769Y-48182D02*
X90369Y-47282D01*
X90369Y-47282D02*
X91969Y-47282D01*
X91969Y-47282D02*
X92569Y-48182D01*
X92569Y-48182D02*
X92569Y-48482D01*
G54D13*
X87851Y-51591D02*
X87801Y-51591D01*
X87801Y-51591D02*
X87801Y-53691D01*
X89301Y-53691D02*
X89301Y-51591D01*
X89301Y-51591D02*
X87851Y-51591D01*
X88751Y-51591D02*
X88751Y-51791D01*
X88751Y-51791D02*
X88351Y-51791D01*
X88351Y-51791D02*
X88351Y-51591D01*
X89301Y-53691D02*
X87801Y-53691D01*
G54D12*
X79800Y-40791D02*
X79800Y-36491D01*
X79800Y-36491D02*
X81200Y-36491D01*
X81200Y-36491D02*
X81200Y-40791D01*
X81200Y-40791D02*
X79800Y-40791D01*
X80300Y-40791D02*
X80300Y-40491D01*
X80300Y-40491D02*
X80700Y-40491D01*
X80700Y-40491D02*
X80700Y-40791D01*
G54D13*
X91288Y-51779D02*
X90388Y-51779D01*
X90388Y-51779D02*
X90388Y-52429D01*
X91288Y-53129D02*
X91288Y-53779D01*
X91288Y-53779D02*
X90388Y-53779D01*
X90388Y-53779D02*
X90388Y-53129D01*
X91288Y-52429D02*
X91288Y-51779D01*
X84839Y-37519D02*
X83939Y-37519D01*
X83939Y-37519D02*
X83939Y-38169D01*
X84839Y-38869D02*
X84839Y-39519D01*
X84839Y-39519D02*
X83939Y-39519D01*
X83939Y-39519D02*
X83939Y-38869D01*
X84839Y-38169D02*
X84839Y-37519D01*
X88629Y-39450D02*
X88629Y-38550D01*
X88629Y-38550D02*
X87979Y-38550D01*
X87279Y-39450D02*
X86629Y-39450D01*
X86629Y-39450D02*
X86629Y-38550D01*
X86629Y-38550D02*
X87279Y-38550D01*
X87979Y-39450D02*
X88629Y-39450D01*
X91620Y-53783D02*
X92520Y-53783D01*
X92520Y-53783D02*
X92520Y-53133D01*
X91620Y-52433D02*
X91620Y-51783D01*
X91620Y-51783D02*
X92520Y-51783D01*
X92520Y-51783D02*
X92520Y-52433D01*
X91620Y-53133D02*
X91620Y-53783D01*
X86038Y-49838D02*
X86938Y-49838D01*
X86938Y-49838D02*
X86938Y-49188D01*
X86038Y-48488D02*
X86038Y-47838D01*
X86038Y-47838D02*
X86938Y-47838D01*
X86938Y-47838D02*
X86938Y-48488D01*
X86038Y-49188D02*
X86038Y-49838D01*
X85249Y-47858D02*
X84349Y-47858D01*
X84349Y-47858D02*
X84349Y-48508D01*
X85249Y-49208D02*
X85249Y-49858D01*
X85249Y-49858D02*
X84349Y-49858D01*
X84349Y-49858D02*
X84349Y-49208D01*
X85249Y-48508D02*
X85249Y-47858D01*
X82951Y-49858D02*
X83851Y-49858D01*
X83851Y-49858D02*
X83851Y-49208D01*
X82951Y-48508D02*
X82951Y-47858D01*
X82951Y-47858D02*
X83851Y-47858D01*
X83851Y-47858D02*
X83851Y-48508D01*
X82951Y-49208D02*
X82951Y-49858D01*
G54D10*
X92078Y-61440D02*
X92078Y-61840D01*
X80078Y-61440D02*
X80078Y-61840D01*
X80078Y-61840D02*
X92078Y-61840D01*
X92078Y-55190D02*
X92078Y-61440D01*
X80078Y-61440D02*
X80078Y-55190D01*
X80078Y-55190D02*
X92078Y-55190D01*
G54D14*
X88578Y-51283D02*
X87578Y-51283D01*
X87578Y-51283D02*
X87578Y-48283D01*
X87578Y-48283D02*
X88578Y-48283D01*
X88578Y-48283D02*
X88578Y-51283D01*
X87578Y-50283D02*
X88578Y-50283D01*
G54D10*
X81087Y-43370D02*
G75*
G03X81087Y-43370I-162J0D01*
G74*
G01*
X80098Y-43370D02*
G75*
G03X80098Y-43370I-157J0D01*
G74*
G01*
X79114Y-43370D02*
G75*
G03X79114Y-43370I-157J0D01*
G74*
G01*
X79114Y-43881D02*
G75*
G03X79114Y-43881I-157J0D01*
G74*
G01*
X80098Y-43881D02*
G75*
G03X80098Y-43881I-157J0D01*
G74*
G01*
X81082Y-43881D02*
G75*
G03X81082Y-43881I-157J0D01*
G74*
G01*
X81437Y-44196D02*
X78523Y-44196D01*
X78523Y-44196D02*
X78523Y-43094D01*
X78523Y-43094D02*
X81437Y-43094D01*
X81437Y-43094D02*
X81437Y-44196D01*
X80409Y-31027D02*
X91826Y-31027D01*
X91826Y-31027D02*
X91826Y-35751D01*
X91826Y-35751D02*
X80409Y-35751D01*
X80409Y-35751D02*
X80409Y-31027D01*
G54D15*
X91507Y-43181D02*
X91429Y-43181D01*
X91429Y-43181D02*
X91429Y-43259D01*
X91507Y-43259D02*
X91429Y-43259D01*
X91507Y-43181D02*
X91507Y-43259D01*
X91291Y-42945D02*
X91154Y-42945D01*
X91154Y-42945D02*
X91154Y-43043D01*
X91291Y-43043D02*
X91154Y-43043D01*
X91291Y-42945D02*
X91291Y-43043D01*
X91154Y-42945D02*
X91114Y-42945D01*
X91114Y-42945D02*
X91114Y-43416D01*
X91154Y-43416D02*
X91114Y-43416D01*
X91154Y-42945D02*
X91154Y-43416D01*
X91154Y-43436D02*
X91114Y-43436D01*
X91114Y-43436D02*
X91114Y-43495D01*
X91154Y-43495D02*
X91114Y-43495D01*
X91154Y-43436D02*
X91154Y-43495D01*
X91822Y-42945D02*
X91782Y-42945D01*
X91782Y-42945D02*
X91782Y-43416D01*
X91822Y-43416D02*
X91782Y-43416D01*
X91822Y-42945D02*
X91822Y-43416D01*
X91822Y-43436D02*
X91782Y-43436D01*
X91782Y-43436D02*
X91782Y-43495D01*
X91822Y-43495D02*
X91782Y-43495D01*
X91822Y-43436D02*
X91822Y-43495D01*
X91291Y-42945D02*
X91232Y-42945D01*
X91232Y-42945D02*
X91232Y-43043D01*
X91291Y-43043D02*
X91232Y-43043D01*
X91291Y-42945D02*
X91291Y-43043D01*
G54D16*
X90858Y-42925D02*
X92078Y-42925D01*
X92078Y-42925D02*
X92078Y-43515D01*
X92078Y-43515D02*
X90858Y-43515D01*
X90858Y-43515D02*
X90858Y-42925D01*
X91683Y-43023D02*
G75*
G03X91252Y-43024I-215J-196D01*
G74*
G01*
X91684Y-43416D02*
G75*
G03X91684Y-43024I-215J196D01*
G74*
G01*
X91253Y-43417D02*
G75*
G03X91684Y-43416I215J196D01*
G74*
G01*
X91252Y-43024D02*
G75*
G03X91252Y-43416I215J-196D01*
G74*
G01*
G54D17*
X85858Y-50582D02*
X81252Y-50582D01*
X81252Y-52550D02*
X85858Y-52550D01*
X81252Y-50582D02*
X81252Y-50916D01*
X81252Y-52550D02*
X81252Y-52216D01*
X85858Y-50582D02*
X85858Y-50916D01*
X85858Y-52550D02*
X85858Y-52216D01*
X94600Y-59448D02*
G75*
G03X94600Y-59448I-900J0D01*
G74*
G01*
X79246Y-59448D02*
G75*
G03X79246Y-59448I-900J0D01*
G74*
G01*
X94600Y-28740D02*
G75*
G03X94600Y-28740I-900J0D01*
G74*
G01*
X79246Y-28740D02*
G75*
G03X79246Y-28740I-900J0D01*
G74*
G01*
G54D13*
X90468Y-41301D02*
X90468Y-42201D01*
X90468Y-42201D02*
X91118Y-42201D01*
X91818Y-41301D02*
X92468Y-41301D01*
X92468Y-41301D02*
X92468Y-42201D01*
X92468Y-42201D02*
X91818Y-42201D01*
X91118Y-41301D02*
X90468Y-41301D01*
G54D11*
X88783Y-26988D02*
X88783Y-29988D01*
X82783Y-26988D02*
X82783Y-29988D01*
X88783Y-27488D02*
X82783Y-27488D01*
X88783Y-29988D02*
X82783Y-29988D01*
X88783Y-26988D02*
X82783Y-26988D01*
G54D12*
X85960Y-41927D02*
X85960Y-42331D01*
X85983Y-42379D01*
X86007Y-42403D01*
X86055Y-42427D01*
X86150Y-42427D01*
X86198Y-42403D01*
X86221Y-42379D01*
X86245Y-42331D01*
X86245Y-41927D01*
X86436Y-41927D02*
X86745Y-41927D01*
X86579Y-42117D01*
X86650Y-42117D01*
X86698Y-42141D01*
X86721Y-42165D01*
X86745Y-42212D01*
X86745Y-42331D01*
X86721Y-42379D01*
X86698Y-42403D01*
X86650Y-42427D01*
X86507Y-42427D01*
X86460Y-42403D01*
X86436Y-42379D01*
X84512Y-45004D02*
X84751Y-45004D01*
X84465Y-45147D02*
X84631Y-44647D01*
X84798Y-45147D01*
X84893Y-44647D02*
X85179Y-44647D01*
X85036Y-45147D02*
X85036Y-44647D01*
X85370Y-45147D02*
X85465Y-45147D01*
X85512Y-45123D01*
X85536Y-45099D01*
X85584Y-45028D01*
X85608Y-44932D01*
X85608Y-44742D01*
X85584Y-44694D01*
X85560Y-44671D01*
X85512Y-44647D01*
X85417Y-44647D01*
X85370Y-44671D01*
X85346Y-44694D01*
X85322Y-44742D01*
X85322Y-44861D01*
X85346Y-44909D01*
X85370Y-44932D01*
X85417Y-44956D01*
X85512Y-44956D01*
X85560Y-44932D01*
X85584Y-44909D01*
X85608Y-44861D01*
X85917Y-44647D02*
X85965Y-44647D01*
X86012Y-44671D01*
X86036Y-44694D01*
X86060Y-44742D01*
X86084Y-44837D01*
X86084Y-44956D01*
X86060Y-45051D01*
X86036Y-45099D01*
X86012Y-45123D01*
X85965Y-45147D01*
X85917Y-45147D01*
X85870Y-45123D01*
X85846Y-45099D01*
X85822Y-45051D01*
X85798Y-44956D01*
X85798Y-44837D01*
X85822Y-44742D01*
X85846Y-44694D01*
X85870Y-44671D01*
X85917Y-44647D01*
X86584Y-45099D02*
X86560Y-45123D01*
X86489Y-45147D01*
X86441Y-45147D01*
X86370Y-45123D01*
X86322Y-45075D01*
X86298Y-45028D01*
X86274Y-44932D01*
X86274Y-44861D01*
X86298Y-44766D01*
X86322Y-44718D01*
X86370Y-44671D01*
X86441Y-44647D01*
X86489Y-44647D01*
X86560Y-44671D01*
X86584Y-44694D01*
X86774Y-45004D02*
X87012Y-45004D01*
X86727Y-45147D02*
X86893Y-44647D01*
X87060Y-45147D01*
X87227Y-45147D02*
X87227Y-44647D01*
X87512Y-45147D01*
X87512Y-44647D01*
X87703Y-44647D02*
X88012Y-44647D01*
X87846Y-44837D01*
X87917Y-44837D01*
X87965Y-44861D01*
X87989Y-44885D01*
X88012Y-44932D01*
X88012Y-45051D01*
X87989Y-45099D01*
X87965Y-45123D01*
X87917Y-45147D01*
X87774Y-45147D01*
X87727Y-45123D01*
X87703Y-45099D01*
X88203Y-44694D02*
X88227Y-44671D01*
X88274Y-44647D01*
X88393Y-44647D01*
X88441Y-44671D01*
X88465Y-44694D01*
X88489Y-44742D01*
X88489Y-44790D01*
X88465Y-44861D01*
X88179Y-45147D01*
X88489Y-45147D01*
G54D10*
X90149Y-36561D02*
X90233Y-36589D01*
X90374Y-36589D01*
X90430Y-36561D01*
X90458Y-36533D01*
X90487Y-36476D01*
X90487Y-36420D01*
X90458Y-36364D01*
X90430Y-36336D01*
X90374Y-36308D01*
X90262Y-36280D01*
X90205Y-36251D01*
X90177Y-36223D01*
X90149Y-36167D01*
X90149Y-36111D01*
X90177Y-36055D01*
X90205Y-36026D01*
X90262Y-35998D01*
X90402Y-35998D01*
X90487Y-36026D01*
X90683Y-35998D02*
X90824Y-36589D01*
X90937Y-36167D01*
X91049Y-36589D01*
X91190Y-35998D01*
X91724Y-36589D02*
X91386Y-36589D01*
X91555Y-36589D02*
X91555Y-35998D01*
X91499Y-36083D01*
X91443Y-36139D01*
X91386Y-36167D01*
X89286Y-40577D02*
X89370Y-40605D01*
X89511Y-40605D01*
X89567Y-40577D01*
X89595Y-40548D01*
X89623Y-40492D01*
X89623Y-40436D01*
X89595Y-40380D01*
X89567Y-40352D01*
X89511Y-40323D01*
X89398Y-40295D01*
X89342Y-40267D01*
X89314Y-40239D01*
X89286Y-40183D01*
X89286Y-40127D01*
X89314Y-40070D01*
X89342Y-40042D01*
X89398Y-40014D01*
X89539Y-40014D01*
X89623Y-40042D01*
X89820Y-40014D02*
X89961Y-40605D01*
X90073Y-40183D01*
X90186Y-40605D01*
X90326Y-40014D01*
X90411Y-40661D02*
X90861Y-40661D01*
X91001Y-40605D02*
X91001Y-40014D01*
X91226Y-40014D01*
X91282Y-40042D01*
X91311Y-40070D01*
X91339Y-40127D01*
X91339Y-40211D01*
X91311Y-40267D01*
X91282Y-40295D01*
X91226Y-40323D01*
X91001Y-40323D01*
X91592Y-40014D02*
X91592Y-40492D01*
X91620Y-40548D01*
X91648Y-40577D01*
X91704Y-40605D01*
X91817Y-40605D01*
X91873Y-40577D01*
X91901Y-40548D01*
X91929Y-40492D01*
X91929Y-40014D01*
X92182Y-40577D02*
X92267Y-40605D01*
X92407Y-40605D01*
X92464Y-40577D01*
X92492Y-40548D01*
X92520Y-40492D01*
X92520Y-40436D01*
X92492Y-40380D01*
X92464Y-40352D01*
X92407Y-40323D01*
X92295Y-40295D01*
X92239Y-40267D01*
X92210Y-40239D01*
X92182Y-40183D01*
X92182Y-40127D01*
X92210Y-40070D01*
X92239Y-40042D01*
X92295Y-40014D01*
X92435Y-40014D01*
X92520Y-40042D01*
X92773Y-40605D02*
X92773Y-40014D01*
X92773Y-40295D02*
X93110Y-40295D01*
X93110Y-40605D02*
X93110Y-40014D01*
G54D12*
X90864Y-48544D02*
X90864Y-48868D01*
X90883Y-48906D01*
X90902Y-48925D01*
X90940Y-48944D01*
X91016Y-48944D01*
X91055Y-48925D01*
X91074Y-48906D01*
X91093Y-48868D01*
X91093Y-48544D01*
X91455Y-48677D02*
X91455Y-48944D01*
X91359Y-48525D02*
X91264Y-48811D01*
X91512Y-48811D01*
X90464Y-49144D02*
X90731Y-49144D01*
X90559Y-49544D01*
X90940Y-49316D02*
X90902Y-49296D01*
X90883Y-49277D01*
X90864Y-49239D01*
X90864Y-49220D01*
X90883Y-49182D01*
X90902Y-49163D01*
X90940Y-49144D01*
X91016Y-49144D01*
X91055Y-49163D01*
X91074Y-49182D01*
X91093Y-49220D01*
X91093Y-49239D01*
X91074Y-49277D01*
X91055Y-49296D01*
X91016Y-49316D01*
X90940Y-49316D01*
X90902Y-49335D01*
X90883Y-49354D01*
X90864Y-49392D01*
X90864Y-49468D01*
X90883Y-49506D01*
X90902Y-49525D01*
X90940Y-49544D01*
X91016Y-49544D01*
X91055Y-49525D01*
X91074Y-49506D01*
X91093Y-49468D01*
X91093Y-49392D01*
X91074Y-49354D01*
X91055Y-49335D01*
X91016Y-49316D01*
X91340Y-49144D02*
X91378Y-49144D01*
X91416Y-49163D01*
X91435Y-49182D01*
X91455Y-49220D01*
X91474Y-49296D01*
X91474Y-49392D01*
X91455Y-49468D01*
X91435Y-49506D01*
X91416Y-49525D01*
X91378Y-49544D01*
X91340Y-49544D01*
X91302Y-49525D01*
X91283Y-49506D01*
X91264Y-49468D01*
X91245Y-49392D01*
X91245Y-49296D01*
X91264Y-49220D01*
X91283Y-49182D01*
X91302Y-49163D01*
X91340Y-49144D01*
X91835Y-49144D02*
X91645Y-49144D01*
X91626Y-49335D01*
X91645Y-49316D01*
X91683Y-49296D01*
X91778Y-49296D01*
X91816Y-49316D01*
X91835Y-49335D01*
X91855Y-49373D01*
X91855Y-49468D01*
X91835Y-49506D01*
X91816Y-49525D01*
X91778Y-49544D01*
X91683Y-49544D01*
X91645Y-49525D01*
X91626Y-49506D01*
G54D14*
X88633Y-52984D02*
X88997Y-52984D01*
X89040Y-52963D01*
X89061Y-52941D01*
X89083Y-52898D01*
X89083Y-52813D01*
X89061Y-52770D01*
X89040Y-52748D01*
X88997Y-52727D01*
X88633Y-52727D01*
X88633Y-52298D02*
X88633Y-52513D01*
X88847Y-52534D01*
X88826Y-52513D01*
X88804Y-52470D01*
X88804Y-52363D01*
X88826Y-52320D01*
X88847Y-52298D01*
X88890Y-52277D01*
X88997Y-52277D01*
X89040Y-52298D01*
X89061Y-52320D01*
X89083Y-52363D01*
X89083Y-52470D01*
X89061Y-52513D01*
X89040Y-52534D01*
X88292Y-53775D02*
X87942Y-53775D01*
X88192Y-53658D01*
X87942Y-53541D01*
X88292Y-53541D01*
X88259Y-53175D02*
X88276Y-53191D01*
X88292Y-53241D01*
X88292Y-53275D01*
X88276Y-53325D01*
X88242Y-53358D01*
X88209Y-53375D01*
X88142Y-53391D01*
X88092Y-53391D01*
X88026Y-53375D01*
X87992Y-53358D01*
X87959Y-53325D01*
X87942Y-53275D01*
X87942Y-53241D01*
X87959Y-53191D01*
X87976Y-53175D01*
X88292Y-53025D02*
X87942Y-53025D01*
X87942Y-52891D01*
X87959Y-52858D01*
X87976Y-52841D01*
X88009Y-52825D01*
X88059Y-52825D01*
X88092Y-52841D01*
X88109Y-52858D01*
X88126Y-52891D01*
X88126Y-53025D01*
X87976Y-52691D02*
X87959Y-52675D01*
X87942Y-52641D01*
X87942Y-52558D01*
X87959Y-52525D01*
X87976Y-52508D01*
X88009Y-52491D01*
X88042Y-52491D01*
X88092Y-52508D01*
X88292Y-52708D01*
X88292Y-52491D01*
X87942Y-52175D02*
X87942Y-52341D01*
X88109Y-52358D01*
X88092Y-52341D01*
X88076Y-52308D01*
X88076Y-52225D01*
X88092Y-52191D01*
X88109Y-52175D01*
X88142Y-52158D01*
X88226Y-52158D01*
X88259Y-52175D01*
X88276Y-52191D01*
X88292Y-52225D01*
X88292Y-52308D01*
X88276Y-52341D01*
X88259Y-52358D01*
X87942Y-51841D02*
X87942Y-52008D01*
X88109Y-52025D01*
X88092Y-52008D01*
X88076Y-51975D01*
X88076Y-51891D01*
X88092Y-51858D01*
X88109Y-51841D01*
X88142Y-51825D01*
X88226Y-51825D01*
X88259Y-51841D01*
X88276Y-51858D01*
X88292Y-51891D01*
X88292Y-51975D01*
X88276Y-52008D01*
X88259Y-52025D01*
X88292Y-51491D02*
X88292Y-51691D01*
X88292Y-51591D02*
X87942Y-51591D01*
X87992Y-51625D01*
X88026Y-51658D01*
X88042Y-51691D01*
G54D13*
X79961Y-38984D02*
X80285Y-38984D01*
X80323Y-38963D01*
X80342Y-38941D01*
X80361Y-38898D01*
X80361Y-38813D01*
X80342Y-38770D01*
X80323Y-38748D01*
X80285Y-38727D01*
X79961Y-38727D01*
X80000Y-38534D02*
X79980Y-38513D01*
X79961Y-38470D01*
X79961Y-38363D01*
X79980Y-38320D01*
X80000Y-38298D01*
X80038Y-38277D01*
X80076Y-38277D01*
X80133Y-38298D01*
X80361Y-38556D01*
X80361Y-38277D01*
X80561Y-40238D02*
X80885Y-40238D01*
X80923Y-40216D01*
X80942Y-40195D01*
X80961Y-40152D01*
X80961Y-40066D01*
X80942Y-40023D01*
X80923Y-40002D01*
X80885Y-39981D01*
X80561Y-39981D01*
X80961Y-39552D02*
X80961Y-39766D01*
X80561Y-39766D01*
X80961Y-39402D02*
X80561Y-39402D01*
X80961Y-39145D01*
X80561Y-39145D01*
X80600Y-38952D02*
X80580Y-38931D01*
X80561Y-38888D01*
X80561Y-38781D01*
X80580Y-38738D01*
X80600Y-38716D01*
X80638Y-38695D01*
X80676Y-38695D01*
X80733Y-38716D01*
X80961Y-38973D01*
X80961Y-38695D01*
X80561Y-38416D02*
X80561Y-38373D01*
X80580Y-38331D01*
X80600Y-38309D01*
X80638Y-38288D01*
X80714Y-38266D01*
X80809Y-38266D01*
X80885Y-38288D01*
X80923Y-38309D01*
X80942Y-38331D01*
X80961Y-38373D01*
X80961Y-38416D01*
X80942Y-38459D01*
X80923Y-38481D01*
X80885Y-38502D01*
X80809Y-38523D01*
X80714Y-38523D01*
X80638Y-38502D01*
X80600Y-38481D01*
X80580Y-38459D01*
X80561Y-38416D01*
X80561Y-37988D02*
X80561Y-37945D01*
X80580Y-37902D01*
X80600Y-37881D01*
X80638Y-37859D01*
X80714Y-37838D01*
X80809Y-37838D01*
X80885Y-37859D01*
X80923Y-37881D01*
X80942Y-37902D01*
X80961Y-37945D01*
X80961Y-37988D01*
X80942Y-38031D01*
X80923Y-38052D01*
X80885Y-38073D01*
X80809Y-38095D01*
X80714Y-38095D01*
X80638Y-38073D01*
X80600Y-38052D01*
X80580Y-38031D01*
X80561Y-37988D01*
X80561Y-37688D02*
X80561Y-37409D01*
X80714Y-37559D01*
X80714Y-37495D01*
X80733Y-37452D01*
X80752Y-37431D01*
X80790Y-37409D01*
X80885Y-37409D01*
X80923Y-37431D01*
X80942Y-37452D01*
X80961Y-37495D01*
X80961Y-37623D01*
X80942Y-37666D01*
X80923Y-37688D01*
X80847Y-37238D02*
X80847Y-37023D01*
X80961Y-37281D02*
X80561Y-37131D01*
X80961Y-36981D01*
X90931Y-52829D02*
X90945Y-52843D01*
X90960Y-52886D01*
X90960Y-52915D01*
X90945Y-52958D01*
X90917Y-52986D01*
X90888Y-53000D01*
X90831Y-53015D01*
X90788Y-53015D01*
X90731Y-53000D01*
X90702Y-52986D01*
X90674Y-52958D01*
X90660Y-52915D01*
X90660Y-52886D01*
X90674Y-52843D01*
X90688Y-52829D01*
X90660Y-52572D02*
X90660Y-52629D01*
X90674Y-52658D01*
X90688Y-52672D01*
X90731Y-52700D01*
X90788Y-52715D01*
X90902Y-52715D01*
X90931Y-52700D01*
X90945Y-52686D01*
X90960Y-52658D01*
X90960Y-52600D01*
X90945Y-52572D01*
X90931Y-52558D01*
X90902Y-52543D01*
X90831Y-52543D01*
X90802Y-52558D01*
X90788Y-52572D01*
X90774Y-52600D01*
X90774Y-52658D01*
X90788Y-52686D01*
X90802Y-52700D01*
X90831Y-52715D01*
X84482Y-38569D02*
X84496Y-38583D01*
X84511Y-38626D01*
X84511Y-38655D01*
X84496Y-38698D01*
X84468Y-38726D01*
X84439Y-38741D01*
X84382Y-38755D01*
X84339Y-38755D01*
X84282Y-38741D01*
X84254Y-38726D01*
X84225Y-38698D01*
X84211Y-38655D01*
X84211Y-38626D01*
X84225Y-38583D01*
X84239Y-38569D01*
X84311Y-38312D02*
X84511Y-38312D01*
X84196Y-38383D02*
X84411Y-38455D01*
X84411Y-38269D01*
X87579Y-39092D02*
X87565Y-39107D01*
X87522Y-39121D01*
X87494Y-39121D01*
X87451Y-39107D01*
X87422Y-39078D01*
X87408Y-39050D01*
X87394Y-38992D01*
X87394Y-38950D01*
X87408Y-38892D01*
X87422Y-38864D01*
X87451Y-38835D01*
X87494Y-38821D01*
X87522Y-38821D01*
X87565Y-38835D01*
X87579Y-38850D01*
X87679Y-38821D02*
X87865Y-38821D01*
X87765Y-38935D01*
X87808Y-38935D01*
X87837Y-38950D01*
X87851Y-38964D01*
X87865Y-38992D01*
X87865Y-39064D01*
X87851Y-39092D01*
X87837Y-39107D01*
X87808Y-39121D01*
X87722Y-39121D01*
X87694Y-39107D01*
X87679Y-39092D01*
X92163Y-52833D02*
X92178Y-52847D01*
X92192Y-52890D01*
X92192Y-52919D01*
X92178Y-52962D01*
X92149Y-52990D01*
X92120Y-53004D01*
X92063Y-53019D01*
X92020Y-53019D01*
X91963Y-53004D01*
X91935Y-52990D01*
X91906Y-52962D01*
X91892Y-52919D01*
X91892Y-52890D01*
X91906Y-52847D01*
X91920Y-52833D01*
X91892Y-52562D02*
X91892Y-52704D01*
X92035Y-52719D01*
X92020Y-52704D01*
X92006Y-52676D01*
X92006Y-52604D01*
X92020Y-52576D01*
X92035Y-52562D01*
X92063Y-52547D01*
X92135Y-52547D01*
X92163Y-52562D01*
X92178Y-52576D01*
X92192Y-52604D01*
X92192Y-52676D01*
X92178Y-52704D01*
X92163Y-52719D01*
X86581Y-48888D02*
X86595Y-48902D01*
X86609Y-48945D01*
X86609Y-48974D01*
X86595Y-49017D01*
X86566Y-49045D01*
X86538Y-49060D01*
X86481Y-49074D01*
X86438Y-49074D01*
X86381Y-49060D01*
X86352Y-49045D01*
X86323Y-49017D01*
X86309Y-48974D01*
X86309Y-48945D01*
X86323Y-48902D01*
X86338Y-48888D01*
X86338Y-48774D02*
X86323Y-48760D01*
X86309Y-48731D01*
X86309Y-48660D01*
X86323Y-48631D01*
X86338Y-48617D01*
X86366Y-48602D01*
X86395Y-48602D01*
X86438Y-48617D01*
X86609Y-48788D01*
X86609Y-48602D01*
X84892Y-48908D02*
X84906Y-48922D01*
X84920Y-48965D01*
X84920Y-48993D01*
X84906Y-49036D01*
X84877Y-49065D01*
X84849Y-49079D01*
X84792Y-49093D01*
X84749Y-49093D01*
X84692Y-49079D01*
X84663Y-49065D01*
X84634Y-49036D01*
X84620Y-48993D01*
X84620Y-48965D01*
X84634Y-48922D01*
X84649Y-48908D01*
X84920Y-48622D02*
X84920Y-48793D01*
X84920Y-48708D02*
X84620Y-48708D01*
X84663Y-48736D01*
X84692Y-48765D01*
X84706Y-48793D01*
X83523Y-48908D02*
X83380Y-49008D01*
X83523Y-49079D02*
X83223Y-49079D01*
X83223Y-48965D01*
X83237Y-48936D01*
X83251Y-48922D01*
X83280Y-48908D01*
X83323Y-48908D01*
X83351Y-48922D01*
X83365Y-48936D01*
X83380Y-48965D01*
X83380Y-49079D01*
X83523Y-48622D02*
X83523Y-48793D01*
X83523Y-48708D02*
X83223Y-48708D01*
X83265Y-48736D01*
X83294Y-48765D01*
X83308Y-48793D01*
G54D10*
X85628Y-61589D02*
X85628Y-62067D01*
X85656Y-62123D01*
X85685Y-62151D01*
X85741Y-62179D01*
X85853Y-62179D01*
X85910Y-62151D01*
X85938Y-62123D01*
X85966Y-62067D01*
X85966Y-61589D01*
X86500Y-61589D02*
X86388Y-61589D01*
X86331Y-61617D01*
X86303Y-61645D01*
X86247Y-61730D01*
X86219Y-61842D01*
X86219Y-62067D01*
X86247Y-62123D01*
X86275Y-62151D01*
X86331Y-62179D01*
X86444Y-62179D01*
X86500Y-62151D01*
X86528Y-62123D01*
X86556Y-62067D01*
X86556Y-61926D01*
X86528Y-61870D01*
X86500Y-61842D01*
X86444Y-61814D01*
X86331Y-61814D01*
X86275Y-61842D01*
X86247Y-61870D01*
X86219Y-61926D01*
X84152Y-53929D02*
X83955Y-53648D01*
X83814Y-53929D02*
X83814Y-53339D01*
X84039Y-53339D01*
X84096Y-53367D01*
X84124Y-53395D01*
X84152Y-53451D01*
X84152Y-53536D01*
X84124Y-53592D01*
X84096Y-53620D01*
X84039Y-53648D01*
X83814Y-53648D01*
X84574Y-53339D02*
X84574Y-53761D01*
X84546Y-53845D01*
X84489Y-53901D01*
X84405Y-53929D01*
X84349Y-53929D01*
X85108Y-53536D02*
X85108Y-53929D01*
X84967Y-53311D02*
X84827Y-53733D01*
X85192Y-53733D01*
X85699Y-53339D02*
X85417Y-53339D01*
X85389Y-53620D01*
X85417Y-53592D01*
X85474Y-53564D01*
X85614Y-53564D01*
X85670Y-53592D01*
X85699Y-53620D01*
X85727Y-53676D01*
X85727Y-53817D01*
X85699Y-53873D01*
X85670Y-53901D01*
X85614Y-53929D01*
X85474Y-53929D01*
X85417Y-53901D01*
X85389Y-53873D01*
X85839Y-53986D02*
X86289Y-53986D01*
X86430Y-53929D02*
X86430Y-53339D01*
X86570Y-53339D01*
X86655Y-53367D01*
X86711Y-53423D01*
X86739Y-53480D01*
X86767Y-53592D01*
X86767Y-53676D01*
X86739Y-53789D01*
X86711Y-53845D01*
X86655Y-53901D01*
X86570Y-53929D01*
X86430Y-53929D01*
X87020Y-53339D02*
X87020Y-53817D01*
X87048Y-53873D01*
X87077Y-53901D01*
X87133Y-53929D01*
X87245Y-53929D01*
X87302Y-53901D01*
X87330Y-53873D01*
X87358Y-53817D01*
X87358Y-53339D01*
X87611Y-53761D02*
X87892Y-53761D01*
X87555Y-53929D02*
X87751Y-53339D01*
X87948Y-53929D01*
X88426Y-53929D02*
X88145Y-53929D01*
X88145Y-53339D01*
G54D14*
X87390Y-49978D02*
X86990Y-49978D01*
X87390Y-49750D02*
X87162Y-49921D01*
X86990Y-49750D02*
X87219Y-49978D01*
X87028Y-49597D02*
X87009Y-49578D01*
X86990Y-49540D01*
X86990Y-49445D01*
X87009Y-49407D01*
X87028Y-49388D01*
X87066Y-49369D01*
X87104Y-49369D01*
X87162Y-49388D01*
X87390Y-49616D01*
X87390Y-49369D01*
G54D10*
X79505Y-41404D02*
X79505Y-40813D01*
X79730Y-40813D01*
X79786Y-40841D01*
X79814Y-40870D01*
X79842Y-40926D01*
X79842Y-41010D01*
X79814Y-41066D01*
X79786Y-41095D01*
X79730Y-41123D01*
X79505Y-41123D01*
X80404Y-41404D02*
X80067Y-41404D01*
X80236Y-41404D02*
X80236Y-40813D01*
X80179Y-40898D01*
X80123Y-40954D01*
X80067Y-40982D01*
X78166Y-46111D02*
X78138Y-46140D01*
X78053Y-46168D01*
X77997Y-46168D01*
X77913Y-46140D01*
X77857Y-46083D01*
X77829Y-46027D01*
X77800Y-45915D01*
X77800Y-45830D01*
X77829Y-45718D01*
X77857Y-45661D01*
X77913Y-45605D01*
X77997Y-45577D01*
X78053Y-45577D01*
X78138Y-45605D01*
X78166Y-45633D01*
X78532Y-45577D02*
X78644Y-45577D01*
X78700Y-45605D01*
X78757Y-45661D01*
X78785Y-45774D01*
X78785Y-45971D01*
X78757Y-46083D01*
X78700Y-46140D01*
X78644Y-46168D01*
X78532Y-46168D01*
X78475Y-46140D01*
X78419Y-46083D01*
X78391Y-45971D01*
X78391Y-45774D01*
X78419Y-45661D01*
X78475Y-45605D01*
X78532Y-45577D01*
X79038Y-46168D02*
X79038Y-45577D01*
X79375Y-46168D01*
X79375Y-45577D01*
X79656Y-46168D02*
X79656Y-45577D01*
X79994Y-46168D01*
X79994Y-45577D01*
X80134Y-46224D02*
X80584Y-46224D01*
X80669Y-45577D02*
X81034Y-45577D01*
X80838Y-45802D01*
X80922Y-45802D01*
X80978Y-45830D01*
X81006Y-45858D01*
X81034Y-45915D01*
X81034Y-46055D01*
X81006Y-46111D01*
X80978Y-46140D01*
X80922Y-46168D01*
X80753Y-46168D01*
X80697Y-46140D01*
X80669Y-46111D01*
X81231Y-45577D02*
X81625Y-46168D01*
X81625Y-45577D02*
X81231Y-46168D01*
X81822Y-45633D02*
X81850Y-45605D01*
X81906Y-45577D01*
X82047Y-45577D01*
X82103Y-45605D01*
X82131Y-45633D01*
X82159Y-45690D01*
X82159Y-45746D01*
X82131Y-45830D01*
X81794Y-46168D01*
X82159Y-46168D01*
X85683Y-36424D02*
X85683Y-36902D01*
X85712Y-36958D01*
X85740Y-36986D01*
X85796Y-37014D01*
X85908Y-37014D01*
X85965Y-36986D01*
X85993Y-36958D01*
X86021Y-36902D01*
X86021Y-36424D01*
X86611Y-37014D02*
X86274Y-37014D01*
X86443Y-37014D02*
X86443Y-36424D01*
X86386Y-36508D01*
X86330Y-36564D01*
X86274Y-36592D01*
X84074Y-30069D02*
X83877Y-29788D01*
X83737Y-30069D02*
X83737Y-29479D01*
X83962Y-29479D01*
X84018Y-29507D01*
X84046Y-29535D01*
X84074Y-29591D01*
X84074Y-29676D01*
X84046Y-29732D01*
X84018Y-29760D01*
X83962Y-29788D01*
X83737Y-29788D01*
X84327Y-29760D02*
X84524Y-29760D01*
X84609Y-30069D02*
X84327Y-30069D01*
X84327Y-29479D01*
X84609Y-29479D01*
X85143Y-30069D02*
X84862Y-30069D01*
X84862Y-29479D01*
X85312Y-29901D02*
X85593Y-29901D01*
X85255Y-30069D02*
X85452Y-29479D01*
X85649Y-30069D01*
X85958Y-29788D02*
X85958Y-30069D01*
X85762Y-29479D02*
X85958Y-29788D01*
X86155Y-29479D01*
X86212Y-30125D02*
X86661Y-30125D01*
X86999Y-29760D02*
X87083Y-29788D01*
X87111Y-29816D01*
X87140Y-29872D01*
X87140Y-29957D01*
X87111Y-30013D01*
X87083Y-30041D01*
X87027Y-30069D01*
X86802Y-30069D01*
X86802Y-29479D01*
X86999Y-29479D01*
X87055Y-29507D01*
X87083Y-29535D01*
X87111Y-29591D01*
X87111Y-29647D01*
X87083Y-29704D01*
X87055Y-29732D01*
X86999Y-29760D01*
X86802Y-29760D01*
X87393Y-30069D02*
X87393Y-29479D01*
X87646Y-30041D02*
X87730Y-30069D01*
X87871Y-30069D01*
X87927Y-30041D01*
X87955Y-30013D01*
X87983Y-29957D01*
X87983Y-29901D01*
X87955Y-29844D01*
X87927Y-29816D01*
X87871Y-29788D01*
X87758Y-29760D01*
X87702Y-29732D01*
X87674Y-29704D01*
X87646Y-29647D01*
X87646Y-29591D01*
X87674Y-29535D01*
X87702Y-29507D01*
X87758Y-29479D01*
X87899Y-29479D01*
X87983Y-29507D01*
X88152Y-29479D02*
X88489Y-29479D01*
X88321Y-30069D02*
X88321Y-29479D01*
X88658Y-29901D02*
X88939Y-29901D01*
X88602Y-30069D02*
X88799Y-29479D01*
X88996Y-30069D01*
X89389Y-29760D02*
X89474Y-29788D01*
X89502Y-29816D01*
X89530Y-29872D01*
X89530Y-29957D01*
X89502Y-30013D01*
X89474Y-30041D01*
X89417Y-30069D01*
X89192Y-30069D01*
X89192Y-29479D01*
X89389Y-29479D01*
X89446Y-29507D01*
X89474Y-29535D01*
X89502Y-29591D01*
X89502Y-29647D01*
X89474Y-29704D01*
X89446Y-29732D01*
X89389Y-29760D01*
X89192Y-29760D01*
X90064Y-30069D02*
X89783Y-30069D01*
X89783Y-29479D01*
X90261Y-29760D02*
X90458Y-29760D01*
X90542Y-30069D02*
X90261Y-30069D01*
X90261Y-29479D01*
X90542Y-29479D01*
G54D18*
X91147Y-43941D02*
X91147Y-43641D01*
X91218Y-43641D01*
X91261Y-43656D01*
X91289Y-43684D01*
X91304Y-43713D01*
X91318Y-43770D01*
X91318Y-43813D01*
X91304Y-43870D01*
X91289Y-43899D01*
X91261Y-43927D01*
X91218Y-43941D01*
X91147Y-43941D01*
X91604Y-43941D02*
X91432Y-43941D01*
X91518Y-43941D02*
X91518Y-43641D01*
X91489Y-43684D01*
X91461Y-43713D01*
X91432Y-43727D01*
X91275Y-42741D02*
X91132Y-42741D01*
X91132Y-42441D01*
X91375Y-42584D02*
X91475Y-42584D01*
X91518Y-42741D02*
X91375Y-42741D01*
X91375Y-42441D01*
X91518Y-42441D01*
X91647Y-42741D02*
X91647Y-42441D01*
X91718Y-42441D01*
X91761Y-42456D01*
X91789Y-42484D01*
X91804Y-42513D01*
X91818Y-42570D01*
X91818Y-42613D01*
X91804Y-42670D01*
X91789Y-42699D01*
X91761Y-42727D01*
X91718Y-42741D01*
X91647Y-42741D01*
G54D11*
X83069Y-53209D02*
X83469Y-53809D01*
X83469Y-53209D02*
X83069Y-53809D01*
X84012Y-53809D02*
X83669Y-53809D01*
X83840Y-53809D02*
X83840Y-53209D01*
X83783Y-53295D01*
X83726Y-53352D01*
X83669Y-53381D01*
G54D19*
X93310Y-58410D02*
X93081Y-58410D01*
X93196Y-58410D02*
X93196Y-58010D01*
X93157Y-58067D01*
X93119Y-58105D01*
X93081Y-58125D01*
X93481Y-58410D02*
X93481Y-58010D01*
X93634Y-58010D01*
X93672Y-58029D01*
X93691Y-58048D01*
X93710Y-58086D01*
X93710Y-58144D01*
X93691Y-58182D01*
X93672Y-58201D01*
X93634Y-58220D01*
X93481Y-58220D01*
X93881Y-58410D02*
X93881Y-58010D01*
X94072Y-58410D02*
X94072Y-58010D01*
X94300Y-58410D01*
X94300Y-58010D01*
X77955Y-58410D02*
X77727Y-58410D01*
X77841Y-58410D02*
X77841Y-58010D01*
X77803Y-58067D01*
X77765Y-58105D01*
X77727Y-58125D01*
X78127Y-58410D02*
X78127Y-58010D01*
X78279Y-58010D01*
X78317Y-58029D01*
X78336Y-58048D01*
X78355Y-58086D01*
X78355Y-58144D01*
X78336Y-58182D01*
X78317Y-58201D01*
X78279Y-58220D01*
X78127Y-58220D01*
X78527Y-58410D02*
X78527Y-58010D01*
X78717Y-58410D02*
X78717Y-58010D01*
X78946Y-58410D01*
X78946Y-58010D01*
X93310Y-27702D02*
X93081Y-27702D01*
X93196Y-27702D02*
X93196Y-27302D01*
X93157Y-27359D01*
X93119Y-27397D01*
X93081Y-27416D01*
X93481Y-27702D02*
X93481Y-27302D01*
X93634Y-27302D01*
X93672Y-27321D01*
X93691Y-27340D01*
X93710Y-27378D01*
X93710Y-27435D01*
X93691Y-27473D01*
X93672Y-27492D01*
X93634Y-27511D01*
X93481Y-27511D01*
X93881Y-27702D02*
X93881Y-27302D01*
X94072Y-27702D02*
X94072Y-27302D01*
X94300Y-27702D01*
X94300Y-27302D01*
X77955Y-27702D02*
X77727Y-27702D01*
X77841Y-27702D02*
X77841Y-27302D01*
X77803Y-27359D01*
X77765Y-27397D01*
X77727Y-27416D01*
X78127Y-27702D02*
X78127Y-27302D01*
X78279Y-27302D01*
X78317Y-27321D01*
X78336Y-27340D01*
X78355Y-27378D01*
X78355Y-27435D01*
X78336Y-27473D01*
X78317Y-27492D01*
X78279Y-27511D01*
X78127Y-27511D01*
X78527Y-27702D02*
X78527Y-27302D01*
X78717Y-27702D02*
X78717Y-27302D01*
X78946Y-27702D01*
X78946Y-27302D01*
G54D13*
X91418Y-41873D02*
X91318Y-41730D01*
X91247Y-41873D02*
X91247Y-41573D01*
X91361Y-41573D01*
X91389Y-41587D01*
X91404Y-41601D01*
X91418Y-41630D01*
X91418Y-41673D01*
X91404Y-41701D01*
X91389Y-41716D01*
X91361Y-41730D01*
X91247Y-41730D01*
X91532Y-41601D02*
X91547Y-41587D01*
X91575Y-41573D01*
X91647Y-41573D01*
X91675Y-41587D01*
X91689Y-41601D01*
X91704Y-41630D01*
X91704Y-41659D01*
X91689Y-41701D01*
X91518Y-41873D01*
X91704Y-41873D01*
G54D11*
X85340Y-30731D02*
X85340Y-30131D01*
X85683Y-30731D02*
X85426Y-30388D01*
X85683Y-30131D02*
X85340Y-30473D01*
X86254Y-30731D02*
X85912Y-30731D01*
X86083Y-30731D02*
X86083Y-30131D01*
X86026Y-30216D01*
X85969Y-30273D01*
X85912Y-30302D01*
X84512Y-26673D02*
X84483Y-26702D01*
X84397Y-26731D01*
X84340Y-26731D01*
X84254Y-26702D01*
X84197Y-26645D01*
X84169Y-26588D01*
X84140Y-26473D01*
X84140Y-26388D01*
X84169Y-26273D01*
X84197Y-26216D01*
X84254Y-26159D01*
X84340Y-26131D01*
X84397Y-26131D01*
X84483Y-26159D01*
X84512Y-26188D01*
X84883Y-26131D02*
X84997Y-26131D01*
X85054Y-26159D01*
X85112Y-26216D01*
X85140Y-26331D01*
X85140Y-26531D01*
X85112Y-26645D01*
X85054Y-26702D01*
X84997Y-26731D01*
X84883Y-26731D01*
X84826Y-26702D01*
X84769Y-26645D01*
X84740Y-26531D01*
X84740Y-26331D01*
X84769Y-26216D01*
X84826Y-26159D01*
X84883Y-26131D01*
X85397Y-26731D02*
X85397Y-26131D01*
X85740Y-26731D01*
X85740Y-26131D01*
X86026Y-26731D02*
X86026Y-26131D01*
X86369Y-26731D01*
X86369Y-26131D01*
X86512Y-26788D02*
X86969Y-26788D01*
X87054Y-26131D02*
X87426Y-26131D01*
X87226Y-26359D01*
X87312Y-26359D01*
X87369Y-26388D01*
X87397Y-26416D01*
X87426Y-26473D01*
X87426Y-26616D01*
X87397Y-26673D01*
X87369Y-26702D01*
X87312Y-26731D01*
X87140Y-26731D01*
X87083Y-26702D01*
X87054Y-26673D01*
M02*
