G04 (created by PCBNEW (2013-may-18)-stable) date Mon 25 May 2015 09:55:45 PM CEST*
%MOIN*%
G04 Gerber Fmt 3.4, Leading zero omitted, Abs format*
%FSLAX34Y34*%
G01*
G70*
G90*
G04 APERTURE LIST*
%ADD10C,0.00590551*%
%ADD11C,0.012*%
%ADD12C,0.005*%
%ADD13C,0.006*%
%ADD14C,0.0026*%
%ADD15C,0.004*%
%ADD16C,0.015*%
%ADD17C,0.008*%
%ADD18C,0.0035*%
%ADD19C,0.01*%
G04 APERTURE END LIST*
G54D10*
G54D11*
X62806Y-35438D02*
X62804Y-40768D01*
X68366Y-35208D02*
X63032Y-35208D01*
X62806Y-35438D02*
X63036Y-35208D01*
X62806Y-40350D02*
X62354Y-40350D01*
X62354Y-40350D02*
X62354Y-35618D01*
X62354Y-35618D02*
X62806Y-35618D01*
X67948Y-40768D02*
X67948Y-41220D01*
X67948Y-41220D02*
X63228Y-41220D01*
X63228Y-41220D02*
X63228Y-40768D01*
X68366Y-35634D02*
X68818Y-35634D01*
X68818Y-35634D02*
X68818Y-40342D01*
X68818Y-40342D02*
X68366Y-40342D01*
X63232Y-35208D02*
X63232Y-34756D01*
X63232Y-34756D02*
X67944Y-34756D01*
X67944Y-34756D02*
X67944Y-35208D01*
X63403Y-35612D02*
G75*
G03X63403Y-35612I-188J0D01*
G74*
G01*
X68366Y-35208D02*
X68366Y-40768D01*
X62806Y-40768D02*
X68366Y-40768D01*
G54D12*
X71191Y-44571D02*
X71191Y-44521D01*
X71191Y-44521D02*
X69091Y-44521D01*
X69091Y-46021D02*
X71191Y-46021D01*
X71191Y-46021D02*
X71191Y-44571D01*
X71191Y-45471D02*
X70991Y-45471D01*
X70991Y-45471D02*
X70991Y-45071D01*
X70991Y-45071D02*
X71191Y-45071D01*
X69091Y-46021D02*
X69091Y-44521D01*
X72674Y-38511D02*
X71774Y-38511D01*
X71774Y-38511D02*
X71774Y-39161D01*
X72674Y-39861D02*
X72674Y-40511D01*
X72674Y-40511D02*
X71774Y-40511D01*
X71774Y-40511D02*
X71774Y-39861D01*
X72674Y-39161D02*
X72674Y-38511D01*
X69649Y-35790D02*
X69649Y-36690D01*
X69649Y-36690D02*
X70299Y-36690D01*
X70999Y-35790D02*
X71649Y-35790D01*
X71649Y-35790D02*
X71649Y-36690D01*
X71649Y-36690D02*
X70999Y-36690D01*
X70299Y-35790D02*
X69649Y-35790D01*
X61842Y-43335D02*
X61842Y-42435D01*
X61842Y-42435D02*
X61192Y-42435D01*
X60492Y-43335D02*
X59842Y-43335D01*
X59842Y-43335D02*
X59842Y-42435D01*
X59842Y-42435D02*
X60492Y-42435D01*
X61192Y-43335D02*
X61842Y-43335D01*
X64950Y-42500D02*
X64050Y-42500D01*
X64050Y-42500D02*
X64050Y-43150D01*
X64950Y-43850D02*
X64950Y-44500D01*
X64950Y-44500D02*
X64050Y-44500D01*
X64050Y-44500D02*
X64050Y-43850D01*
X64950Y-43150D02*
X64950Y-42500D01*
X65506Y-44500D02*
X66406Y-44500D01*
X66406Y-44500D02*
X66406Y-43850D01*
X65506Y-43150D02*
X65506Y-42500D01*
X65506Y-42500D02*
X66406Y-42500D01*
X66406Y-42500D02*
X66406Y-43150D01*
X65506Y-43850D02*
X65506Y-44500D01*
X74446Y-48740D02*
X73546Y-48740D01*
X73546Y-48740D02*
X73546Y-49390D01*
X74446Y-50090D02*
X74446Y-50740D01*
X74446Y-50740D02*
X73546Y-50740D01*
X73546Y-50740D02*
X73546Y-50090D01*
X74446Y-49390D02*
X74446Y-48740D01*
X72658Y-48740D02*
X71758Y-48740D01*
X71758Y-48740D02*
X71758Y-49390D01*
X72658Y-50090D02*
X72658Y-50740D01*
X72658Y-50740D02*
X71758Y-50740D01*
X71758Y-50740D02*
X71758Y-50090D01*
X72658Y-49390D02*
X72658Y-48740D01*
G54D13*
X71224Y-41460D02*
X70224Y-41460D01*
X70224Y-41460D02*
X70224Y-38460D01*
X70224Y-38460D02*
X71224Y-38460D01*
X71224Y-38460D02*
X71224Y-41460D01*
X70224Y-40460D02*
X71224Y-40460D01*
G54D14*
X70626Y-37554D02*
X70704Y-37554D01*
X70704Y-37554D02*
X70704Y-37476D01*
X70626Y-37476D02*
X70704Y-37476D01*
X70626Y-37554D02*
X70626Y-37476D01*
X70842Y-37790D02*
X70979Y-37790D01*
X70979Y-37790D02*
X70979Y-37692D01*
X70842Y-37692D02*
X70979Y-37692D01*
X70842Y-37790D02*
X70842Y-37692D01*
X70979Y-37790D02*
X71019Y-37790D01*
X71019Y-37790D02*
X71019Y-37319D01*
X70979Y-37319D02*
X71019Y-37319D01*
X70979Y-37790D02*
X70979Y-37319D01*
X70979Y-37299D02*
X71019Y-37299D01*
X71019Y-37299D02*
X71019Y-37240D01*
X70979Y-37240D02*
X71019Y-37240D01*
X70979Y-37299D02*
X70979Y-37240D01*
X70311Y-37790D02*
X70351Y-37790D01*
X70351Y-37790D02*
X70351Y-37319D01*
X70311Y-37319D02*
X70351Y-37319D01*
X70311Y-37790D02*
X70311Y-37319D01*
X70311Y-37299D02*
X70351Y-37299D01*
X70351Y-37299D02*
X70351Y-37240D01*
X70311Y-37240D02*
X70351Y-37240D01*
X70311Y-37299D02*
X70311Y-37240D01*
X70842Y-37790D02*
X70901Y-37790D01*
X70901Y-37790D02*
X70901Y-37692D01*
X70842Y-37692D02*
X70901Y-37692D01*
X70842Y-37790D02*
X70842Y-37692D01*
G54D15*
X71275Y-37810D02*
X70055Y-37810D01*
X70055Y-37810D02*
X70055Y-37220D01*
X70055Y-37220D02*
X71275Y-37220D01*
X71275Y-37220D02*
X71275Y-37810D01*
X70449Y-37712D02*
G75*
G03X70881Y-37711I215J196D01*
G74*
G01*
X70449Y-37319D02*
G75*
G03X70449Y-37711I215J-196D01*
G74*
G01*
X70880Y-37319D02*
G75*
G03X70449Y-37319I-215J-196D01*
G74*
G01*
X70881Y-37712D02*
G75*
G03X70881Y-37319I-215J196D01*
G74*
G01*
G54D16*
X76096Y-31496D02*
G75*
G03X76096Y-31496I-900J0D01*
G74*
G01*
X58380Y-31496D02*
G75*
G03X58380Y-31496I-900J0D01*
G74*
G01*
X58380Y-56692D02*
G75*
G03X58380Y-56692I-900J0D01*
G74*
G01*
X76096Y-56692D02*
G75*
G03X76096Y-56692I-900J0D01*
G74*
G01*
G54D13*
X62716Y-33515D02*
X62716Y-32515D01*
X62716Y-32515D02*
X65716Y-32515D01*
X65716Y-32515D02*
X65716Y-33515D01*
X65716Y-33515D02*
X62716Y-33515D01*
X63716Y-32515D02*
X63716Y-33515D01*
X68614Y-45448D02*
X67614Y-45448D01*
X67614Y-45448D02*
X67614Y-42448D01*
X67614Y-42448D02*
X68614Y-42448D01*
X68614Y-42448D02*
X68614Y-45448D01*
X67614Y-44448D02*
X68614Y-44448D01*
G54D16*
X66684Y-45275D02*
X62078Y-45275D01*
X62078Y-47243D02*
X66684Y-47243D01*
X62078Y-45275D02*
X62078Y-45609D01*
X62078Y-47243D02*
X62078Y-46909D01*
X66684Y-45275D02*
X66684Y-45609D01*
X66684Y-47243D02*
X66684Y-46909D01*
G54D17*
X71678Y-47281D02*
X71678Y-48481D01*
X71678Y-48481D02*
X74478Y-48481D01*
X74478Y-48481D02*
X74478Y-47281D01*
X71678Y-46081D02*
X71678Y-45781D01*
X71678Y-45781D02*
X72278Y-44881D01*
X72278Y-44881D02*
X73878Y-44881D01*
X73878Y-44881D02*
X74478Y-45781D01*
X74478Y-45781D02*
X74478Y-46081D01*
G54D10*
X71956Y-33133D02*
X71956Y-34000D01*
X71956Y-34000D02*
X69594Y-34000D01*
X69594Y-34000D02*
X69594Y-32228D01*
X69594Y-32228D02*
X71956Y-32228D01*
X71956Y-32228D02*
X71956Y-33133D01*
X71610Y-33133D02*
G75*
G03X71610Y-33133I-835J0D01*
G74*
G01*
X60315Y-37594D02*
G75*
G03X60315Y-37594I-162J0D01*
G74*
G01*
X59326Y-37594D02*
G75*
G03X59326Y-37594I-157J0D01*
G74*
G01*
X58342Y-37594D02*
G75*
G03X58342Y-37594I-157J0D01*
G74*
G01*
X58342Y-38106D02*
G75*
G03X58342Y-38106I-157J0D01*
G74*
G01*
X59326Y-38106D02*
G75*
G03X59326Y-38106I-157J0D01*
G74*
G01*
X60311Y-38106D02*
G75*
G03X60311Y-38106I-157J0D01*
G74*
G01*
X60665Y-38421D02*
X57751Y-38421D01*
X57751Y-38421D02*
X57751Y-37318D01*
X57751Y-37318D02*
X60665Y-37318D01*
X60665Y-37318D02*
X60665Y-38421D01*
G54D12*
X66738Y-33688D02*
X67638Y-33688D01*
X67638Y-33688D02*
X67638Y-33038D01*
X66738Y-32338D02*
X66738Y-31688D01*
X66738Y-31688D02*
X67638Y-31688D01*
X67638Y-31688D02*
X67638Y-32338D01*
X66738Y-33038D02*
X66738Y-33688D01*
X62506Y-44484D02*
X63406Y-44484D01*
X63406Y-44484D02*
X63406Y-43834D01*
X62506Y-43134D02*
X62506Y-42484D01*
X62506Y-42484D02*
X63406Y-42484D01*
X63406Y-42484D02*
X63406Y-43134D01*
X62506Y-43834D02*
X62506Y-44484D01*
G54D10*
X72173Y-57255D02*
X72173Y-57655D01*
X60173Y-57255D02*
X60173Y-57655D01*
X60173Y-57655D02*
X72173Y-57655D01*
X72173Y-51005D02*
X72173Y-57255D01*
X60173Y-57255D02*
X60173Y-51005D01*
X60173Y-51005D02*
X72173Y-51005D01*
G54D17*
X65105Y-36218D02*
X65105Y-36623D01*
X65129Y-36670D01*
X65153Y-36694D01*
X65200Y-36718D01*
X65296Y-36718D01*
X65343Y-36694D01*
X65367Y-36670D01*
X65391Y-36623D01*
X65391Y-36218D01*
X65605Y-36266D02*
X65629Y-36242D01*
X65677Y-36218D01*
X65796Y-36218D01*
X65843Y-36242D01*
X65867Y-36266D01*
X65891Y-36313D01*
X65891Y-36361D01*
X65867Y-36432D01*
X65581Y-36718D01*
X65891Y-36718D01*
X63658Y-39295D02*
X63896Y-39295D01*
X63610Y-39438D02*
X63777Y-38938D01*
X63944Y-39438D01*
X64039Y-38938D02*
X64325Y-38938D01*
X64182Y-39438D02*
X64182Y-38938D01*
X64515Y-39438D02*
X64610Y-39438D01*
X64658Y-39414D01*
X64682Y-39390D01*
X64730Y-39319D01*
X64753Y-39224D01*
X64753Y-39033D01*
X64730Y-38986D01*
X64706Y-38962D01*
X64658Y-38938D01*
X64563Y-38938D01*
X64515Y-38962D01*
X64491Y-38986D01*
X64468Y-39033D01*
X64468Y-39152D01*
X64491Y-39200D01*
X64515Y-39224D01*
X64563Y-39248D01*
X64658Y-39248D01*
X64706Y-39224D01*
X64730Y-39200D01*
X64753Y-39152D01*
X65063Y-38938D02*
X65110Y-38938D01*
X65158Y-38962D01*
X65182Y-38986D01*
X65206Y-39033D01*
X65230Y-39129D01*
X65230Y-39248D01*
X65206Y-39343D01*
X65182Y-39390D01*
X65158Y-39414D01*
X65110Y-39438D01*
X65063Y-39438D01*
X65015Y-39414D01*
X64991Y-39390D01*
X64968Y-39343D01*
X64944Y-39248D01*
X64944Y-39129D01*
X64968Y-39033D01*
X64991Y-38986D01*
X65015Y-38962D01*
X65063Y-38938D01*
X65730Y-39390D02*
X65706Y-39414D01*
X65634Y-39438D01*
X65587Y-39438D01*
X65515Y-39414D01*
X65468Y-39367D01*
X65444Y-39319D01*
X65420Y-39224D01*
X65420Y-39152D01*
X65444Y-39057D01*
X65468Y-39009D01*
X65515Y-38962D01*
X65587Y-38938D01*
X65634Y-38938D01*
X65706Y-38962D01*
X65730Y-38986D01*
X65920Y-39295D02*
X66158Y-39295D01*
X65872Y-39438D02*
X66039Y-38938D01*
X66206Y-39438D01*
X66372Y-39438D02*
X66372Y-38938D01*
X66658Y-39438D01*
X66658Y-38938D01*
X66849Y-38938D02*
X67158Y-38938D01*
X66991Y-39129D01*
X67063Y-39129D01*
X67110Y-39152D01*
X67134Y-39176D01*
X67158Y-39224D01*
X67158Y-39343D01*
X67134Y-39390D01*
X67110Y-39414D01*
X67063Y-39438D01*
X66920Y-39438D01*
X66872Y-39414D01*
X66849Y-39390D01*
X67349Y-38986D02*
X67372Y-38962D01*
X67420Y-38938D01*
X67539Y-38938D01*
X67587Y-38962D01*
X67610Y-38986D01*
X67634Y-39033D01*
X67634Y-39081D01*
X67610Y-39152D01*
X67325Y-39438D01*
X67634Y-39438D01*
G54D13*
X69798Y-45353D02*
X69798Y-45718D01*
X69820Y-45760D01*
X69841Y-45782D01*
X69884Y-45803D01*
X69970Y-45803D01*
X70013Y-45782D01*
X70034Y-45760D01*
X70056Y-45718D01*
X70056Y-45353D01*
X70463Y-45503D02*
X70463Y-45803D01*
X70356Y-45332D02*
X70248Y-45653D01*
X70527Y-45653D01*
X69008Y-45013D02*
X69008Y-44663D01*
X69125Y-44913D01*
X69241Y-44663D01*
X69241Y-45013D01*
X69608Y-44979D02*
X69591Y-44996D01*
X69541Y-45013D01*
X69508Y-45013D01*
X69458Y-44996D01*
X69425Y-44963D01*
X69408Y-44929D01*
X69391Y-44863D01*
X69391Y-44813D01*
X69408Y-44746D01*
X69425Y-44713D01*
X69458Y-44679D01*
X69508Y-44663D01*
X69541Y-44663D01*
X69591Y-44679D01*
X69608Y-44696D01*
X69758Y-45013D02*
X69758Y-44663D01*
X69891Y-44663D01*
X69925Y-44679D01*
X69941Y-44696D01*
X69958Y-44729D01*
X69958Y-44779D01*
X69941Y-44813D01*
X69925Y-44829D01*
X69891Y-44846D01*
X69758Y-44846D01*
X70091Y-44696D02*
X70108Y-44679D01*
X70141Y-44663D01*
X70225Y-44663D01*
X70258Y-44679D01*
X70275Y-44696D01*
X70291Y-44729D01*
X70291Y-44763D01*
X70275Y-44813D01*
X70075Y-45013D01*
X70291Y-45013D01*
X70608Y-44663D02*
X70441Y-44663D01*
X70425Y-44829D01*
X70441Y-44813D01*
X70475Y-44796D01*
X70558Y-44796D01*
X70591Y-44813D01*
X70608Y-44829D01*
X70625Y-44863D01*
X70625Y-44946D01*
X70608Y-44979D01*
X70591Y-44996D01*
X70558Y-45013D01*
X70475Y-45013D01*
X70441Y-44996D01*
X70425Y-44979D01*
X70941Y-44663D02*
X70775Y-44663D01*
X70758Y-44829D01*
X70775Y-44813D01*
X70808Y-44796D01*
X70891Y-44796D01*
X70925Y-44813D01*
X70941Y-44829D01*
X70958Y-44863D01*
X70958Y-44946D01*
X70941Y-44979D01*
X70925Y-44996D01*
X70891Y-45013D01*
X70808Y-45013D01*
X70775Y-44996D01*
X70758Y-44979D01*
X71291Y-45013D02*
X71091Y-45013D01*
X71191Y-45013D02*
X71191Y-44663D01*
X71158Y-44713D01*
X71125Y-44746D01*
X71091Y-44763D01*
G54D12*
X72345Y-39561D02*
X72202Y-39661D01*
X72345Y-39733D02*
X72045Y-39733D01*
X72045Y-39618D01*
X72060Y-39590D01*
X72074Y-39576D01*
X72102Y-39561D01*
X72145Y-39561D01*
X72174Y-39576D01*
X72188Y-39590D01*
X72202Y-39618D01*
X72202Y-39733D01*
X72045Y-39461D02*
X72045Y-39276D01*
X72160Y-39376D01*
X72160Y-39333D01*
X72174Y-39304D01*
X72188Y-39290D01*
X72217Y-39276D01*
X72288Y-39276D01*
X72317Y-39290D01*
X72331Y-39304D01*
X72345Y-39333D01*
X72345Y-39418D01*
X72331Y-39447D01*
X72317Y-39461D01*
X70599Y-36361D02*
X70499Y-36218D01*
X70428Y-36361D02*
X70428Y-36061D01*
X70542Y-36061D01*
X70571Y-36075D01*
X70585Y-36090D01*
X70599Y-36118D01*
X70599Y-36161D01*
X70585Y-36190D01*
X70571Y-36204D01*
X70542Y-36218D01*
X70428Y-36218D01*
X70713Y-36090D02*
X70728Y-36075D01*
X70756Y-36061D01*
X70828Y-36061D01*
X70856Y-36075D01*
X70871Y-36090D01*
X70885Y-36118D01*
X70885Y-36147D01*
X70871Y-36190D01*
X70699Y-36361D01*
X70885Y-36361D01*
X60792Y-43007D02*
X60692Y-42864D01*
X60621Y-43007D02*
X60621Y-42707D01*
X60735Y-42707D01*
X60763Y-42721D01*
X60778Y-42735D01*
X60792Y-42764D01*
X60792Y-42807D01*
X60778Y-42835D01*
X60763Y-42850D01*
X60735Y-42864D01*
X60621Y-42864D01*
X61078Y-43007D02*
X60906Y-43007D01*
X60992Y-43007D02*
X60992Y-42707D01*
X60963Y-42750D01*
X60935Y-42778D01*
X60906Y-42792D01*
X64592Y-43550D02*
X64607Y-43564D01*
X64621Y-43607D01*
X64621Y-43635D01*
X64607Y-43678D01*
X64578Y-43707D01*
X64550Y-43721D01*
X64492Y-43735D01*
X64450Y-43735D01*
X64392Y-43721D01*
X64364Y-43707D01*
X64335Y-43678D01*
X64321Y-43635D01*
X64321Y-43607D01*
X64335Y-43564D01*
X64350Y-43550D01*
X64621Y-43264D02*
X64621Y-43435D01*
X64621Y-43350D02*
X64321Y-43350D01*
X64364Y-43378D01*
X64392Y-43407D01*
X64407Y-43435D01*
X65906Y-43592D02*
X65892Y-43607D01*
X65849Y-43621D01*
X65820Y-43621D01*
X65778Y-43607D01*
X65749Y-43578D01*
X65735Y-43550D01*
X65720Y-43492D01*
X65720Y-43450D01*
X65735Y-43392D01*
X65749Y-43364D01*
X65778Y-43335D01*
X65820Y-43321D01*
X65849Y-43321D01*
X65892Y-43335D01*
X65906Y-43350D01*
X66020Y-43350D02*
X66035Y-43335D01*
X66063Y-43321D01*
X66135Y-43321D01*
X66163Y-43335D01*
X66178Y-43350D01*
X66192Y-43378D01*
X66192Y-43407D01*
X66178Y-43450D01*
X66006Y-43621D01*
X66192Y-43621D01*
X74088Y-49790D02*
X74103Y-49804D01*
X74117Y-49847D01*
X74117Y-49875D01*
X74103Y-49918D01*
X74074Y-49947D01*
X74046Y-49961D01*
X73988Y-49975D01*
X73946Y-49975D01*
X73888Y-49961D01*
X73860Y-49947D01*
X73831Y-49918D01*
X73817Y-49875D01*
X73817Y-49847D01*
X73831Y-49804D01*
X73846Y-49790D01*
X73817Y-49690D02*
X73817Y-49504D01*
X73931Y-49604D01*
X73931Y-49561D01*
X73946Y-49533D01*
X73960Y-49518D01*
X73988Y-49504D01*
X74060Y-49504D01*
X74088Y-49518D01*
X74103Y-49533D01*
X74117Y-49561D01*
X74117Y-49647D01*
X74103Y-49675D01*
X74088Y-49690D01*
X72301Y-49790D02*
X72315Y-49804D01*
X72330Y-49847D01*
X72330Y-49875D01*
X72315Y-49918D01*
X72287Y-49947D01*
X72258Y-49961D01*
X72201Y-49975D01*
X72158Y-49975D01*
X72101Y-49961D01*
X72072Y-49947D01*
X72044Y-49918D01*
X72030Y-49875D01*
X72030Y-49847D01*
X72044Y-49804D01*
X72058Y-49790D01*
X72130Y-49533D02*
X72330Y-49533D01*
X72015Y-49604D02*
X72230Y-49675D01*
X72230Y-49490D01*
G54D13*
X69636Y-40165D02*
X69960Y-40165D01*
X69998Y-40146D01*
X70017Y-40127D01*
X70036Y-40089D01*
X70036Y-40013D01*
X70017Y-39974D01*
X69998Y-39955D01*
X69960Y-39936D01*
X69636Y-39936D01*
X70036Y-39536D02*
X70036Y-39765D01*
X70036Y-39651D02*
X69636Y-39651D01*
X69693Y-39689D01*
X69731Y-39727D01*
X69750Y-39765D01*
G54D18*
X70543Y-37037D02*
X70543Y-36737D01*
X70615Y-36737D01*
X70658Y-36751D01*
X70686Y-36780D01*
X70701Y-36808D01*
X70715Y-36865D01*
X70715Y-36908D01*
X70701Y-36965D01*
X70686Y-36994D01*
X70658Y-37022D01*
X70615Y-37037D01*
X70543Y-37037D01*
X71001Y-37037D02*
X70829Y-37037D01*
X70915Y-37037D02*
X70915Y-36737D01*
X70886Y-36780D01*
X70858Y-36808D01*
X70829Y-36822D01*
X70472Y-38237D02*
X70329Y-38237D01*
X70329Y-37937D01*
X70572Y-38080D02*
X70672Y-38080D01*
X70715Y-38237D02*
X70572Y-38237D01*
X70572Y-37937D01*
X70715Y-37937D01*
X70843Y-38237D02*
X70843Y-37937D01*
X70915Y-37937D01*
X70958Y-37951D01*
X70986Y-37980D01*
X71001Y-38008D01*
X71015Y-38065D01*
X71015Y-38108D01*
X71001Y-38165D01*
X70986Y-38194D01*
X70958Y-38222D01*
X70915Y-38237D01*
X70843Y-38237D01*
G54D19*
X72585Y-31350D02*
X72357Y-31350D01*
X72471Y-31350D02*
X72471Y-30950D01*
X72433Y-31008D01*
X72395Y-31046D01*
X72357Y-31065D01*
X72757Y-31350D02*
X72757Y-30950D01*
X72909Y-30950D01*
X72947Y-30969D01*
X72966Y-30988D01*
X72985Y-31027D01*
X72985Y-31084D01*
X72966Y-31122D01*
X72947Y-31141D01*
X72909Y-31160D01*
X72757Y-31160D01*
X73157Y-31350D02*
X73157Y-30950D01*
X73347Y-31350D02*
X73347Y-30950D01*
X73576Y-31350D01*
X73576Y-30950D01*
X59381Y-31500D02*
X59152Y-31500D01*
X59266Y-31500D02*
X59266Y-31100D01*
X59228Y-31157D01*
X59190Y-31195D01*
X59152Y-31214D01*
X59552Y-31500D02*
X59552Y-31100D01*
X59704Y-31100D01*
X59743Y-31119D01*
X59762Y-31138D01*
X59781Y-31176D01*
X59781Y-31233D01*
X59762Y-31271D01*
X59743Y-31290D01*
X59704Y-31310D01*
X59552Y-31310D01*
X59952Y-31500D02*
X59952Y-31100D01*
X60143Y-31500D02*
X60143Y-31100D01*
X60371Y-31500D01*
X60371Y-31100D01*
X57089Y-55654D02*
X56861Y-55654D01*
X56975Y-55654D02*
X56975Y-55254D01*
X56937Y-55311D01*
X56899Y-55350D01*
X56861Y-55369D01*
X57261Y-55654D02*
X57261Y-55254D01*
X57413Y-55254D01*
X57451Y-55273D01*
X57470Y-55292D01*
X57489Y-55331D01*
X57489Y-55388D01*
X57470Y-55426D01*
X57451Y-55445D01*
X57413Y-55464D01*
X57261Y-55464D01*
X57661Y-55654D02*
X57661Y-55254D01*
X57851Y-55654D02*
X57851Y-55254D01*
X58080Y-55654D01*
X58080Y-55254D01*
X74806Y-55654D02*
X74577Y-55654D01*
X74692Y-55654D02*
X74692Y-55254D01*
X74653Y-55311D01*
X74615Y-55350D01*
X74577Y-55369D01*
X74977Y-55654D02*
X74977Y-55254D01*
X75130Y-55254D01*
X75168Y-55273D01*
X75187Y-55292D01*
X75206Y-55331D01*
X75206Y-55388D01*
X75187Y-55426D01*
X75168Y-55445D01*
X75130Y-55464D01*
X74977Y-55464D01*
X75377Y-55654D02*
X75377Y-55254D01*
X75568Y-55654D02*
X75568Y-55254D01*
X75796Y-55654D01*
X75796Y-55254D01*
G54D13*
X64011Y-31927D02*
X64011Y-32251D01*
X64030Y-32289D01*
X64049Y-32308D01*
X64087Y-32327D01*
X64164Y-32327D01*
X64202Y-32308D01*
X64221Y-32289D01*
X64240Y-32251D01*
X64240Y-31927D01*
X64621Y-31927D02*
X64430Y-31927D01*
X64411Y-32118D01*
X64430Y-32099D01*
X64468Y-32080D01*
X64564Y-32080D01*
X64602Y-32099D01*
X64621Y-32118D01*
X64640Y-32156D01*
X64640Y-32251D01*
X64621Y-32289D01*
X64602Y-32308D01*
X64564Y-32327D01*
X64468Y-32327D01*
X64430Y-32308D01*
X64411Y-32289D01*
X67426Y-44144D02*
X67026Y-44144D01*
X67426Y-43915D02*
X67197Y-44086D01*
X67026Y-43915D02*
X67254Y-44144D01*
X67426Y-43534D02*
X67426Y-43763D01*
X67426Y-43648D02*
X67026Y-43648D01*
X67083Y-43686D01*
X67121Y-43725D01*
X67140Y-43763D01*
G54D11*
X63896Y-47902D02*
X64296Y-48502D01*
X64296Y-47902D02*
X63896Y-48502D01*
X64839Y-48502D02*
X64496Y-48502D01*
X64667Y-48502D02*
X64667Y-47902D01*
X64610Y-47988D01*
X64553Y-48045D01*
X64496Y-48074D01*
G54D17*
X72773Y-46143D02*
X72773Y-46466D01*
X72793Y-46504D01*
X72812Y-46523D01*
X72850Y-46543D01*
X72926Y-46543D01*
X72964Y-46523D01*
X72983Y-46504D01*
X73002Y-46466D01*
X73002Y-46143D01*
X73154Y-46143D02*
X73402Y-46143D01*
X73269Y-46295D01*
X73326Y-46295D01*
X73364Y-46314D01*
X73383Y-46333D01*
X73402Y-46371D01*
X73402Y-46466D01*
X73383Y-46504D01*
X73364Y-46523D01*
X73326Y-46543D01*
X73212Y-46543D01*
X73173Y-46523D01*
X73154Y-46504D01*
X72373Y-46743D02*
X72640Y-46743D01*
X72469Y-47143D01*
X72850Y-46914D02*
X72812Y-46895D01*
X72793Y-46876D01*
X72773Y-46838D01*
X72773Y-46819D01*
X72793Y-46781D01*
X72812Y-46762D01*
X72850Y-46743D01*
X72926Y-46743D01*
X72964Y-46762D01*
X72983Y-46781D01*
X73002Y-46819D01*
X73002Y-46838D01*
X72983Y-46876D01*
X72964Y-46895D01*
X72926Y-46914D01*
X72850Y-46914D01*
X72812Y-46933D01*
X72793Y-46952D01*
X72773Y-46990D01*
X72773Y-47066D01*
X72793Y-47104D01*
X72812Y-47123D01*
X72850Y-47143D01*
X72926Y-47143D01*
X72964Y-47123D01*
X72983Y-47104D01*
X73002Y-47066D01*
X73002Y-46990D01*
X72983Y-46952D01*
X72964Y-46933D01*
X72926Y-46914D01*
X73250Y-46743D02*
X73288Y-46743D01*
X73326Y-46762D01*
X73345Y-46781D01*
X73364Y-46819D01*
X73383Y-46895D01*
X73383Y-46990D01*
X73364Y-47066D01*
X73345Y-47104D01*
X73326Y-47123D01*
X73288Y-47143D01*
X73250Y-47143D01*
X73212Y-47123D01*
X73193Y-47104D01*
X73173Y-47066D01*
X73154Y-46990D01*
X73154Y-46895D01*
X73173Y-46819D01*
X73193Y-46781D01*
X73212Y-46762D01*
X73250Y-46743D01*
X73745Y-46743D02*
X73554Y-46743D01*
X73535Y-46933D01*
X73554Y-46914D01*
X73593Y-46895D01*
X73688Y-46895D01*
X73726Y-46914D01*
X73745Y-46933D01*
X73764Y-46971D01*
X73764Y-47066D01*
X73745Y-47104D01*
X73726Y-47123D01*
X73688Y-47143D01*
X73593Y-47143D01*
X73554Y-47123D01*
X73535Y-47104D01*
G54D10*
X69830Y-31218D02*
X69915Y-31246D01*
X70055Y-31246D01*
X70111Y-31218D01*
X70140Y-31190D01*
X70168Y-31134D01*
X70168Y-31078D01*
X70140Y-31021D01*
X70111Y-30993D01*
X70055Y-30965D01*
X69943Y-30937D01*
X69886Y-30909D01*
X69858Y-30881D01*
X69830Y-30825D01*
X69830Y-30768D01*
X69858Y-30712D01*
X69886Y-30684D01*
X69943Y-30656D01*
X70083Y-30656D01*
X70168Y-30684D01*
X70365Y-30656D02*
X70505Y-31246D01*
X70618Y-30825D01*
X70730Y-31246D01*
X70871Y-30656D01*
X71405Y-31246D02*
X71068Y-31246D01*
X71236Y-31246D02*
X71236Y-30656D01*
X71180Y-30740D01*
X71124Y-30796D01*
X71068Y-30825D01*
X68967Y-35234D02*
X69051Y-35262D01*
X69192Y-35262D01*
X69248Y-35234D01*
X69276Y-35206D01*
X69304Y-35150D01*
X69304Y-35093D01*
X69276Y-35037D01*
X69248Y-35009D01*
X69192Y-34981D01*
X69079Y-34953D01*
X69023Y-34925D01*
X68995Y-34897D01*
X68967Y-34840D01*
X68967Y-34784D01*
X68995Y-34728D01*
X69023Y-34700D01*
X69079Y-34672D01*
X69220Y-34672D01*
X69304Y-34700D01*
X69501Y-34672D02*
X69642Y-35262D01*
X69754Y-34840D01*
X69867Y-35262D01*
X70007Y-34672D01*
X70092Y-35318D02*
X70542Y-35318D01*
X70682Y-35262D02*
X70682Y-34672D01*
X70907Y-34672D01*
X70964Y-34700D01*
X70992Y-34728D01*
X71020Y-34784D01*
X71020Y-34868D01*
X70992Y-34925D01*
X70964Y-34953D01*
X70907Y-34981D01*
X70682Y-34981D01*
X71273Y-34672D02*
X71273Y-35150D01*
X71301Y-35206D01*
X71329Y-35234D01*
X71385Y-35262D01*
X71498Y-35262D01*
X71554Y-35234D01*
X71582Y-35206D01*
X71610Y-35150D01*
X71610Y-34672D01*
X71863Y-35234D02*
X71948Y-35262D01*
X72088Y-35262D01*
X72145Y-35234D01*
X72173Y-35206D01*
X72201Y-35150D01*
X72201Y-35093D01*
X72173Y-35037D01*
X72145Y-35009D01*
X72088Y-34981D01*
X71976Y-34953D01*
X71920Y-34925D01*
X71892Y-34897D01*
X71863Y-34840D01*
X71863Y-34784D01*
X71892Y-34728D01*
X71920Y-34700D01*
X71976Y-34672D01*
X72116Y-34672D01*
X72201Y-34700D01*
X72454Y-35262D02*
X72454Y-34672D01*
X72454Y-34953D02*
X72791Y-34953D01*
X72791Y-35262D02*
X72791Y-34672D01*
X58733Y-35628D02*
X58733Y-35038D01*
X58958Y-35038D01*
X59014Y-35066D01*
X59042Y-35094D01*
X59070Y-35150D01*
X59070Y-35235D01*
X59042Y-35291D01*
X59014Y-35319D01*
X58958Y-35347D01*
X58733Y-35347D01*
X59633Y-35628D02*
X59295Y-35628D01*
X59464Y-35628D02*
X59464Y-35038D01*
X59408Y-35122D01*
X59352Y-35178D01*
X59295Y-35206D01*
X57394Y-40336D02*
X57366Y-40364D01*
X57282Y-40392D01*
X57226Y-40392D01*
X57141Y-40364D01*
X57085Y-40308D01*
X57057Y-40251D01*
X57029Y-40139D01*
X57029Y-40055D01*
X57057Y-39942D01*
X57085Y-39886D01*
X57141Y-39830D01*
X57226Y-39802D01*
X57282Y-39802D01*
X57366Y-39830D01*
X57394Y-39858D01*
X57760Y-39802D02*
X57872Y-39802D01*
X57929Y-39830D01*
X57985Y-39886D01*
X58013Y-39998D01*
X58013Y-40195D01*
X57985Y-40308D01*
X57929Y-40364D01*
X57872Y-40392D01*
X57760Y-40392D01*
X57704Y-40364D01*
X57647Y-40308D01*
X57619Y-40195D01*
X57619Y-39998D01*
X57647Y-39886D01*
X57704Y-39830D01*
X57760Y-39802D01*
X58266Y-40392D02*
X58266Y-39802D01*
X58604Y-40392D01*
X58604Y-39802D01*
X58885Y-40392D02*
X58885Y-39802D01*
X59222Y-40392D01*
X59222Y-39802D01*
X59363Y-40448D02*
X59813Y-40448D01*
X59897Y-39802D02*
X60263Y-39802D01*
X60066Y-40026D01*
X60150Y-40026D01*
X60206Y-40055D01*
X60235Y-40083D01*
X60263Y-40139D01*
X60263Y-40280D01*
X60235Y-40336D01*
X60206Y-40364D01*
X60150Y-40392D01*
X59982Y-40392D01*
X59925Y-40364D01*
X59897Y-40336D01*
X60460Y-39802D02*
X60853Y-40392D01*
X60853Y-39802D02*
X60460Y-40392D01*
X61050Y-39858D02*
X61078Y-39830D01*
X61134Y-39802D01*
X61275Y-39802D01*
X61331Y-39830D01*
X61359Y-39858D01*
X61388Y-39914D01*
X61388Y-39970D01*
X61359Y-40055D01*
X61022Y-40392D01*
X61388Y-40392D01*
G54D12*
X67281Y-32738D02*
X67296Y-32753D01*
X67310Y-32796D01*
X67310Y-32824D01*
X67296Y-32867D01*
X67267Y-32896D01*
X67238Y-32910D01*
X67181Y-32924D01*
X67138Y-32924D01*
X67081Y-32910D01*
X67053Y-32896D01*
X67024Y-32867D01*
X67010Y-32824D01*
X67010Y-32796D01*
X67024Y-32753D01*
X67038Y-32738D01*
X67010Y-32467D02*
X67010Y-32610D01*
X67153Y-32624D01*
X67138Y-32610D01*
X67124Y-32581D01*
X67124Y-32510D01*
X67138Y-32481D01*
X67153Y-32467D01*
X67181Y-32453D01*
X67253Y-32453D01*
X67281Y-32467D01*
X67296Y-32481D01*
X67310Y-32510D01*
X67310Y-32581D01*
X67296Y-32610D01*
X67281Y-32624D01*
X63049Y-43534D02*
X63063Y-43548D01*
X63078Y-43591D01*
X63078Y-43619D01*
X63063Y-43662D01*
X63035Y-43691D01*
X63006Y-43705D01*
X62949Y-43719D01*
X62906Y-43719D01*
X62849Y-43705D01*
X62820Y-43691D01*
X62792Y-43662D01*
X62778Y-43619D01*
X62778Y-43591D01*
X62792Y-43548D01*
X62806Y-43534D01*
X62778Y-43277D02*
X62778Y-43334D01*
X62792Y-43362D01*
X62806Y-43377D01*
X62849Y-43405D01*
X62906Y-43419D01*
X63020Y-43419D01*
X63049Y-43405D01*
X63063Y-43391D01*
X63078Y-43362D01*
X63078Y-43305D01*
X63063Y-43277D01*
X63049Y-43262D01*
X63020Y-43248D01*
X62949Y-43248D01*
X62920Y-43262D01*
X62906Y-43277D01*
X62892Y-43305D01*
X62892Y-43362D01*
X62906Y-43391D01*
X62920Y-43405D01*
X62949Y-43419D01*
G54D10*
X60239Y-48865D02*
X60239Y-49343D01*
X60267Y-49399D01*
X60295Y-49427D01*
X60351Y-49455D01*
X60464Y-49455D01*
X60520Y-49427D01*
X60548Y-49399D01*
X60576Y-49343D01*
X60576Y-48865D01*
X61110Y-48865D02*
X60998Y-48865D01*
X60942Y-48893D01*
X60913Y-48921D01*
X60857Y-49005D01*
X60829Y-49118D01*
X60829Y-49343D01*
X60857Y-49399D01*
X60885Y-49427D01*
X60942Y-49455D01*
X61054Y-49455D01*
X61110Y-49427D01*
X61138Y-49399D01*
X61167Y-49343D01*
X61167Y-49202D01*
X61138Y-49146D01*
X61110Y-49118D01*
X61054Y-49089D01*
X60942Y-49089D01*
X60885Y-49118D01*
X60857Y-49146D01*
X60829Y-49202D01*
X64246Y-49744D02*
X64050Y-49463D01*
X63909Y-49744D02*
X63909Y-49154D01*
X64134Y-49154D01*
X64190Y-49182D01*
X64218Y-49210D01*
X64246Y-49266D01*
X64246Y-49351D01*
X64218Y-49407D01*
X64190Y-49435D01*
X64134Y-49463D01*
X63909Y-49463D01*
X64668Y-49154D02*
X64668Y-49576D01*
X64640Y-49660D01*
X64584Y-49716D01*
X64500Y-49744D01*
X64443Y-49744D01*
X65203Y-49351D02*
X65203Y-49744D01*
X65062Y-49126D02*
X64921Y-49548D01*
X65287Y-49548D01*
X65793Y-49154D02*
X65512Y-49154D01*
X65484Y-49435D01*
X65512Y-49407D01*
X65568Y-49379D01*
X65709Y-49379D01*
X65765Y-49407D01*
X65793Y-49435D01*
X65821Y-49491D01*
X65821Y-49632D01*
X65793Y-49688D01*
X65765Y-49716D01*
X65709Y-49744D01*
X65568Y-49744D01*
X65512Y-49716D01*
X65484Y-49688D01*
X65934Y-49801D02*
X66384Y-49801D01*
X66524Y-49744D02*
X66524Y-49154D01*
X66665Y-49154D01*
X66749Y-49182D01*
X66805Y-49238D01*
X66834Y-49294D01*
X66862Y-49407D01*
X66862Y-49491D01*
X66834Y-49604D01*
X66805Y-49660D01*
X66749Y-49716D01*
X66665Y-49744D01*
X66524Y-49744D01*
X67115Y-49154D02*
X67115Y-49632D01*
X67143Y-49688D01*
X67171Y-49716D01*
X67227Y-49744D01*
X67340Y-49744D01*
X67396Y-49716D01*
X67424Y-49688D01*
X67452Y-49632D01*
X67452Y-49154D01*
X67705Y-49576D02*
X67987Y-49576D01*
X67649Y-49744D02*
X67846Y-49154D01*
X68043Y-49744D01*
X68521Y-49744D02*
X68240Y-49744D01*
X68240Y-49154D01*
M02*
