M48
;DRILL file {Pcbnew (2013-may-18)-stable} date Mon 25 May 2015 09:55:50 PM CEST
;FORMAT={-:-/ absolute / metric / decimal}
FMAT,2
METRIC,TZ
T1C1.000
T2C3.048
%
G90
G05
M71
T1
X149.03Y-88.74
X155.12Y-86.89
X155.23Y-102.54
X156.13Y-113.94
X156.8Y-104.55
X158.57Y-124.36
X160.57Y-83.86
X163.11Y-83.86
X165.65Y-83.86
X167.03Y-130.91
X168.98Y-98.8
X169.39Y-128.93
X173.01Y-109.09
X173.01Y-111.63
X173.01Y-114.17
X178.69Y-133.35
X178.84Y-124.7
X179.64Y-98.96
X179.64Y-101.5
X179.64Y-104.04
T2
X146.Y-80.
X146.Y-144.
X191.Y-80.
X191.Y-144.
T0
M30
