G04 (created by PCBNEW (2013-may-18)-stable) date Mon 20 Oct 2014 11:54:03 PM CEST*
%MOIN*%
G04 Gerber Fmt 3.4, Leading zero omitted, Abs format*
%FSLAX34Y34*%
G01*
G70*
G90*
G04 APERTURE LIST*
%ADD10C,0.00590551*%
%ADD11R,0.0787X0.0177*%
%ADD12R,0.0177X0.0787*%
%ADD13R,0.045X0.02*%
%ADD14R,0.08X0.06*%
%ADD15R,0.06X0.08*%
%ADD16R,0.0708661X0.0708661*%
%ADD17C,0.0708661*%
%ADD18R,0.0709X0.0629*%
%ADD19R,0.42X0.35*%
%ADD20R,0.07X0.09*%
%ADD21C,0.16*%
%ADD22C,0.055*%
%ADD23R,0.06X0.06*%
%ADD24C,0.06*%
%ADD25C,0.0177165*%
%ADD26C,0.0314961*%
G04 APERTURE END LIST*
G54D10*
G54D11*
X62436Y-37831D03*
X62436Y-37516D03*
X62436Y-37201D03*
X62436Y-36886D03*
X62436Y-36571D03*
X62436Y-36256D03*
X62436Y-35941D03*
X62436Y-35626D03*
X62436Y-40354D03*
X68732Y-40354D03*
X68732Y-35626D03*
X62436Y-38149D03*
X62436Y-38464D03*
X62436Y-38779D03*
X62436Y-39094D03*
X62436Y-39409D03*
X62436Y-39724D03*
X62436Y-40039D03*
X68732Y-40039D03*
X68732Y-39724D03*
X68732Y-39409D03*
X68732Y-39094D03*
X68732Y-38779D03*
X68732Y-38464D03*
X68732Y-38149D03*
X68732Y-37831D03*
X68732Y-37516D03*
X68732Y-37201D03*
X68732Y-36886D03*
X68732Y-36571D03*
X68732Y-36256D03*
X68732Y-35941D03*
G54D12*
X63220Y-34838D03*
X63534Y-34838D03*
X63850Y-34838D03*
X64164Y-34838D03*
X64480Y-34838D03*
X64794Y-34838D03*
X65740Y-34838D03*
X66370Y-34838D03*
X66684Y-34838D03*
X65110Y-34838D03*
X65424Y-34838D03*
X66054Y-34838D03*
X67000Y-34838D03*
X67314Y-34838D03*
X67630Y-34838D03*
X67944Y-34838D03*
X63220Y-41138D03*
X63534Y-41138D03*
X63850Y-41138D03*
X64164Y-41138D03*
X64480Y-41138D03*
X64794Y-41138D03*
X65110Y-41138D03*
X65424Y-41138D03*
X65740Y-41138D03*
X66054Y-41138D03*
X66370Y-41138D03*
X66684Y-41138D03*
X67000Y-41138D03*
X67314Y-41138D03*
X67630Y-41138D03*
X67944Y-41138D03*
G54D13*
X71672Y-42671D03*
X69572Y-42671D03*
X71672Y-43171D03*
X71672Y-43671D03*
X71672Y-44171D03*
X69572Y-43171D03*
X69572Y-43671D03*
X69572Y-44171D03*
G54D14*
X71736Y-40835D03*
X71736Y-39535D03*
X58665Y-44421D03*
X58665Y-43121D03*
G54D15*
X61492Y-42885D03*
X60192Y-42885D03*
G54D14*
X64204Y-42810D03*
X64204Y-44110D03*
X67826Y-44110D03*
X67826Y-42810D03*
G54D15*
X66709Y-44102D03*
X65409Y-44102D03*
X77157Y-39854D03*
X75857Y-39854D03*
X74693Y-39834D03*
X73393Y-39834D03*
G54D16*
X60456Y-37649D03*
G54D17*
X60456Y-36649D03*
X59456Y-37649D03*
X59456Y-36649D03*
X58456Y-37649D03*
X58456Y-36649D03*
G54D16*
X70393Y-38724D03*
G54D17*
X70393Y-39724D03*
X70393Y-40724D03*
G54D18*
X58665Y-40661D03*
X58665Y-41779D03*
G54D19*
X75673Y-34404D03*
G54D20*
X75673Y-37854D03*
X74673Y-37854D03*
X76673Y-37854D03*
G54D16*
X74637Y-42051D03*
G54D17*
X74637Y-43051D03*
X74637Y-44051D03*
X74637Y-45051D03*
G54D16*
X76082Y-42051D03*
G54D17*
X76082Y-43051D03*
X76082Y-44051D03*
X76082Y-45051D03*
G54D21*
X77393Y-31098D03*
X57905Y-31098D03*
X57842Y-47681D03*
X77342Y-47681D03*
G54D22*
X69889Y-34952D03*
X69889Y-32952D03*
X72889Y-34952D03*
X72889Y-32952D03*
G54D23*
X63216Y-33015D03*
G54D24*
X64216Y-33015D03*
X65216Y-33015D03*
G54D23*
X65342Y-47681D03*
G54D24*
X66342Y-47681D03*
X67342Y-47681D03*
G54D17*
X59874Y-44188D03*
X62728Y-44188D03*
X73374Y-40885D03*
X77157Y-40913D03*
X72637Y-41988D03*
X72614Y-45287D03*
X61248Y-35401D03*
X59551Y-35401D03*
X59594Y-40661D03*
X61374Y-38137D03*
G54D25*
X62925Y-44188D02*
X62728Y-44188D01*
G54D26*
X74637Y-42051D02*
X74637Y-39890D01*
X74673Y-39854D02*
X74673Y-37854D01*
X74637Y-39890D02*
X74673Y-39854D01*
X74637Y-42051D02*
X76082Y-42051D01*
X58665Y-44421D02*
X58665Y-44716D01*
X59202Y-45253D02*
X62041Y-45253D01*
X58665Y-44716D02*
X59202Y-45253D01*
X71736Y-40835D02*
X71992Y-40835D01*
X71992Y-40835D02*
X72637Y-41480D01*
X70393Y-40724D02*
X71625Y-40724D01*
X71625Y-40724D02*
X71736Y-40835D01*
X72637Y-41988D02*
X72637Y-41480D01*
X72637Y-41480D02*
X72637Y-41622D01*
X72637Y-41622D02*
X73374Y-40885D01*
X77157Y-40913D02*
X77157Y-40912D01*
X77157Y-40912D02*
X77157Y-39854D01*
X76673Y-37854D02*
X76673Y-38480D01*
X76673Y-38480D02*
X77157Y-38964D01*
X77157Y-38964D02*
X77157Y-39854D01*
X61492Y-42885D02*
X61492Y-44705D01*
X61492Y-44705D02*
X62041Y-45253D01*
X62041Y-45253D02*
X68620Y-45253D01*
X72580Y-45253D02*
X68620Y-45253D01*
G54D25*
X68866Y-45007D02*
X68620Y-45253D01*
X68866Y-44043D02*
X68866Y-45007D01*
X69238Y-43671D02*
X68866Y-44043D01*
X69572Y-43671D02*
X69238Y-43671D01*
G54D26*
X72637Y-41433D02*
X72637Y-41988D01*
X72614Y-45287D02*
X72580Y-45253D01*
X72637Y-41433D02*
X72570Y-41433D01*
X72570Y-41433D02*
X72637Y-41433D01*
G54D25*
X61492Y-42885D02*
X62968Y-42885D01*
X64480Y-41853D02*
X64480Y-41138D01*
X64133Y-42200D02*
X64480Y-41853D01*
X63653Y-42200D02*
X64133Y-42200D01*
X62968Y-42885D02*
X63653Y-42200D01*
X64480Y-41138D02*
X64480Y-38460D01*
X67000Y-35940D02*
X67000Y-34838D01*
X64480Y-38460D02*
X67000Y-35940D01*
X59456Y-36649D02*
X59456Y-35496D01*
X61787Y-35941D02*
X62436Y-35941D01*
X61248Y-35401D02*
X61787Y-35941D01*
X59456Y-35496D02*
X59551Y-35401D01*
X60456Y-37649D02*
X60929Y-37649D01*
X61602Y-36256D02*
X62436Y-36256D01*
X61362Y-36496D02*
X61602Y-36256D01*
X61362Y-37216D02*
X61362Y-36496D01*
X60929Y-37649D02*
X61362Y-37216D01*
X75857Y-39854D02*
X75857Y-40511D01*
X78442Y-37229D02*
X75673Y-34404D01*
X78349Y-41332D02*
X78442Y-37229D01*
X78183Y-41651D02*
X78349Y-41332D01*
X77141Y-41795D02*
X78183Y-41651D01*
X75857Y-40511D02*
X77141Y-41795D01*
X70393Y-38724D02*
X73086Y-38724D01*
X73393Y-39031D02*
X73393Y-39834D01*
X73086Y-38724D02*
X73393Y-39031D01*
G54D26*
X75673Y-37854D02*
X75673Y-38736D01*
X75857Y-38920D02*
X75857Y-39854D01*
X75673Y-38736D02*
X75857Y-38920D01*
G54D25*
X64204Y-42810D02*
X64204Y-42551D01*
X64204Y-42551D02*
X64794Y-41961D01*
X64794Y-41961D02*
X64794Y-41138D01*
G54D26*
X74637Y-45051D02*
X76082Y-45051D01*
G54D25*
X63534Y-34838D02*
X63534Y-35459D01*
X63534Y-35459D02*
X63988Y-35913D01*
X63988Y-35913D02*
X66346Y-35913D01*
X66346Y-35913D02*
X66684Y-35575D01*
X66684Y-35575D02*
X66684Y-34838D01*
X69572Y-42671D02*
X69242Y-42671D01*
X67314Y-41885D02*
X67314Y-41138D01*
X67669Y-42200D02*
X67314Y-41885D01*
X68692Y-42200D02*
X67669Y-42200D01*
X69242Y-42671D02*
X68692Y-42200D01*
X59456Y-37649D02*
X59456Y-38385D01*
X59850Y-38779D02*
X62436Y-38779D01*
X59456Y-38385D02*
X59850Y-38779D01*
X60192Y-42885D02*
X60192Y-40373D01*
X58456Y-38637D02*
X58456Y-37649D01*
X60192Y-40373D02*
X58456Y-38637D01*
X60192Y-42885D02*
X60192Y-42248D01*
X64164Y-41752D02*
X64164Y-41138D01*
X64011Y-41905D02*
X64164Y-41752D01*
X60535Y-41905D02*
X64011Y-41905D01*
X60192Y-42248D02*
X60535Y-41905D01*
X58665Y-43121D02*
X58665Y-41779D01*
X70393Y-39724D02*
X71546Y-39724D01*
X71546Y-39724D02*
X71736Y-39535D01*
X68732Y-39724D02*
X70393Y-39724D01*
X70393Y-39724D02*
X70393Y-39724D01*
X69572Y-44171D02*
X70108Y-44171D01*
X67629Y-41649D02*
X67630Y-41138D01*
X67825Y-41805D02*
X67629Y-41649D01*
X69990Y-41805D02*
X67825Y-41805D01*
X70385Y-42200D02*
X69990Y-41805D01*
X70385Y-43893D02*
X70385Y-42200D01*
X70108Y-44171D02*
X70385Y-43893D01*
X62436Y-38464D02*
X61700Y-38464D01*
X59594Y-40661D02*
X58665Y-40661D01*
X59594Y-40661D02*
X59594Y-40661D01*
X61700Y-38464D02*
X61374Y-38137D01*
X65409Y-44102D02*
X65409Y-43436D01*
X65089Y-41138D02*
X65110Y-41138D01*
X65089Y-43117D02*
X65089Y-41138D01*
X65409Y-43436D02*
X65089Y-43117D01*
X64204Y-44110D02*
X65400Y-44110D01*
X65400Y-44110D02*
X65409Y-44102D01*
X66709Y-44102D02*
X66709Y-43743D01*
X67642Y-42810D02*
X67826Y-42810D01*
X66709Y-43743D02*
X67642Y-42810D01*
G54D26*
X71672Y-43671D02*
X73659Y-43671D01*
X74039Y-44051D02*
X74637Y-44051D01*
X73659Y-43671D02*
X74039Y-44051D01*
X74637Y-44051D02*
X76082Y-44051D01*
X71672Y-43171D02*
X73675Y-43171D01*
X73795Y-43051D02*
X74637Y-43051D01*
X73675Y-43171D02*
X73795Y-43051D01*
X74637Y-43051D02*
X76082Y-43051D01*
M02*
