G04 (created by PCBNEW (2013-may-18)-stable) date Mon 25 May 2015 09:55:45 PM CEST*
%MOIN*%
G04 Gerber Fmt 3.4, Leading zero omitted, Abs format*
%FSLAX34Y34*%
G01*
G70*
G90*
G04 APERTURE LIST*
%ADD10C,0.00590551*%
%ADD11R,0.0708661X0.0708661*%
%ADD12C,0.0708661*%
%ADD13C,0.16*%
%ADD14C,0.0177165*%
%ADD15C,0.0314961*%
%ADD16C,0.01*%
G04 APERTURE END LIST*
G54D10*
G54D11*
X70724Y-40960D03*
G54D12*
X70724Y-39960D03*
X70724Y-38960D03*
G54D13*
X75196Y-31496D03*
X57480Y-31496D03*
X57480Y-56692D03*
X75196Y-56692D03*
G54D11*
X63216Y-33015D03*
G54D12*
X64216Y-33015D03*
X65216Y-33015D03*
G54D11*
X68114Y-44948D03*
G54D12*
X68114Y-43948D03*
X68114Y-42948D03*
X70409Y-49094D03*
X66688Y-50759D03*
X62429Y-48960D03*
X58673Y-34937D03*
X61114Y-40370D03*
X61732Y-41161D03*
X61468Y-44858D03*
X61070Y-34208D03*
X66527Y-38897D03*
X65759Y-51539D03*
X70350Y-52500D03*
G54D14*
X69145Y-34826D02*
X69145Y-34889D01*
X69145Y-34889D02*
X69122Y-34913D01*
G54D15*
X70275Y-48960D02*
X65893Y-48960D01*
X70409Y-49094D02*
X70275Y-48960D01*
X66688Y-49755D02*
X66688Y-50759D01*
X65893Y-48960D02*
X66688Y-49755D01*
X62429Y-48960D02*
X65893Y-48960D01*
G54D14*
X58673Y-37929D02*
X58673Y-34937D01*
X61114Y-40370D02*
X58673Y-37929D01*
X61732Y-44594D02*
X61732Y-41161D01*
X61468Y-44858D02*
X61732Y-44594D01*
X61838Y-34208D02*
X61070Y-34208D01*
X66527Y-38897D02*
X61838Y-34208D01*
X66074Y-54015D02*
X69807Y-54015D01*
X65759Y-51539D02*
X65925Y-51704D01*
X65925Y-51704D02*
X65925Y-53866D01*
X65925Y-53866D02*
X66074Y-54015D01*
X70350Y-53472D02*
X70350Y-52500D01*
X69807Y-54015D02*
X70350Y-53472D01*
G54D10*
G36*
X76201Y-55939D02*
X75902Y-55639D01*
X75445Y-55449D01*
X74950Y-55448D01*
X74493Y-55637D01*
X74143Y-55987D01*
X73953Y-56444D01*
X73952Y-56939D01*
X74141Y-57396D01*
X74340Y-57595D01*
X71328Y-57595D01*
X71328Y-39840D01*
X71237Y-39618D01*
X71079Y-39460D01*
X71236Y-39303D01*
X71328Y-39081D01*
X71328Y-38840D01*
X71237Y-38618D01*
X71067Y-38448D01*
X70845Y-38356D01*
X70604Y-38356D01*
X70382Y-38448D01*
X70212Y-38617D01*
X70120Y-38839D01*
X70119Y-39080D01*
X70211Y-39302D01*
X70369Y-39460D01*
X70212Y-39617D01*
X70120Y-39839D01*
X70119Y-40080D01*
X70211Y-40302D01*
X70281Y-40372D01*
X70228Y-40394D01*
X70158Y-40464D01*
X70120Y-40556D01*
X70120Y-40848D01*
X70182Y-40910D01*
X70674Y-40910D01*
X70674Y-40902D01*
X70774Y-40902D01*
X70774Y-40910D01*
X71266Y-40910D01*
X71328Y-40848D01*
X71328Y-40556D01*
X71290Y-40464D01*
X71220Y-40394D01*
X71167Y-40372D01*
X71236Y-40303D01*
X71328Y-40081D01*
X71328Y-39840D01*
X71328Y-57595D01*
X71328Y-57595D01*
X71328Y-41364D01*
X71328Y-41073D01*
X71266Y-41010D01*
X70774Y-41010D01*
X70774Y-41502D01*
X70836Y-41564D01*
X71029Y-41565D01*
X71128Y-41564D01*
X71220Y-41526D01*
X71290Y-41456D01*
X71328Y-41364D01*
X71328Y-57595D01*
X71013Y-57595D01*
X71013Y-48974D01*
X70922Y-48752D01*
X70752Y-48582D01*
X70674Y-48550D01*
X70674Y-41502D01*
X70674Y-41010D01*
X70182Y-41010D01*
X70120Y-41073D01*
X70120Y-41364D01*
X70158Y-41456D01*
X70228Y-41526D01*
X70320Y-41564D01*
X70419Y-41565D01*
X70611Y-41564D01*
X70674Y-41502D01*
X70674Y-48550D01*
X70530Y-48490D01*
X70289Y-48490D01*
X70137Y-48553D01*
X69484Y-48553D01*
X69484Y-34889D01*
X69484Y-34889D01*
X69484Y-34889D01*
X69484Y-34826D01*
X69458Y-34697D01*
X69385Y-34587D01*
X69275Y-34513D01*
X69145Y-34488D01*
X69016Y-34513D01*
X68906Y-34587D01*
X68832Y-34697D01*
X68818Y-34770D01*
X68809Y-34783D01*
X68783Y-34913D01*
X68809Y-35042D01*
X68882Y-35152D01*
X68992Y-35226D01*
X69122Y-35251D01*
X69251Y-35226D01*
X69361Y-35152D01*
X69385Y-35129D01*
X69385Y-35129D01*
X69385Y-35129D01*
X69458Y-35019D01*
X69484Y-34889D01*
X69484Y-48553D01*
X68718Y-48553D01*
X68718Y-43829D01*
X68626Y-43606D01*
X68468Y-43448D01*
X68626Y-43291D01*
X68718Y-43069D01*
X68718Y-42829D01*
X68626Y-42606D01*
X68456Y-42436D01*
X68234Y-42344D01*
X67994Y-42344D01*
X67772Y-42436D01*
X67602Y-42606D01*
X67509Y-42828D01*
X67509Y-43068D01*
X67601Y-43290D01*
X67759Y-43448D01*
X67602Y-43606D01*
X67509Y-43828D01*
X67509Y-44068D01*
X67601Y-44290D01*
X67671Y-44360D01*
X67618Y-44382D01*
X67547Y-44453D01*
X67509Y-44544D01*
X67509Y-44836D01*
X67572Y-44898D01*
X68064Y-44898D01*
X68064Y-44890D01*
X68164Y-44890D01*
X68164Y-44898D01*
X68656Y-44898D01*
X68718Y-44836D01*
X68718Y-44544D01*
X68680Y-44453D01*
X68610Y-44382D01*
X68557Y-44360D01*
X68626Y-44291D01*
X68718Y-44069D01*
X68718Y-43829D01*
X68718Y-48553D01*
X68718Y-48553D01*
X68718Y-45352D01*
X68718Y-45061D01*
X68656Y-44998D01*
X68164Y-44998D01*
X68164Y-45490D01*
X68226Y-45553D01*
X68418Y-45553D01*
X68518Y-45553D01*
X68610Y-45514D01*
X68680Y-45444D01*
X68718Y-45352D01*
X68718Y-48553D01*
X68064Y-48553D01*
X68064Y-45490D01*
X68064Y-44998D01*
X67572Y-44998D01*
X67509Y-45061D01*
X67509Y-45352D01*
X67547Y-45444D01*
X67618Y-45514D01*
X67709Y-45553D01*
X67809Y-45553D01*
X68001Y-45553D01*
X68064Y-45490D01*
X68064Y-48553D01*
X65893Y-48553D01*
X65893Y-48553D01*
X65893Y-48553D01*
X65820Y-48553D01*
X65820Y-32896D01*
X65729Y-32673D01*
X65559Y-32503D01*
X65337Y-32411D01*
X65096Y-32411D01*
X64874Y-32503D01*
X64716Y-32661D01*
X64559Y-32503D01*
X64337Y-32411D01*
X64096Y-32411D01*
X63874Y-32503D01*
X63804Y-32572D01*
X63782Y-32519D01*
X63712Y-32449D01*
X63620Y-32411D01*
X63329Y-32411D01*
X63266Y-32473D01*
X63266Y-32965D01*
X63274Y-32965D01*
X63274Y-33065D01*
X63266Y-33065D01*
X63266Y-33557D01*
X63329Y-33620D01*
X63620Y-33620D01*
X63712Y-33582D01*
X63782Y-33511D01*
X63804Y-33458D01*
X63873Y-33527D01*
X64095Y-33619D01*
X64336Y-33620D01*
X64558Y-33528D01*
X64716Y-33370D01*
X64873Y-33527D01*
X65095Y-33619D01*
X65336Y-33620D01*
X65558Y-33528D01*
X65728Y-33358D01*
X65820Y-33136D01*
X65820Y-32896D01*
X65820Y-48553D01*
X63166Y-48553D01*
X63166Y-33557D01*
X63166Y-33065D01*
X63166Y-32965D01*
X63166Y-32473D01*
X63104Y-32411D01*
X62812Y-32411D01*
X62720Y-32449D01*
X62650Y-32519D01*
X62612Y-32611D01*
X62612Y-32710D01*
X62612Y-32903D01*
X62674Y-32965D01*
X63166Y-32965D01*
X63166Y-33065D01*
X62674Y-33065D01*
X62612Y-33128D01*
X62612Y-33320D01*
X62612Y-33420D01*
X62650Y-33511D01*
X62720Y-33582D01*
X62812Y-33620D01*
X63104Y-33620D01*
X63166Y-33557D01*
X63166Y-48553D01*
X62876Y-48553D01*
X62771Y-48448D01*
X62549Y-48356D01*
X62309Y-48356D01*
X62087Y-48448D01*
X61917Y-48617D01*
X61824Y-48839D01*
X61824Y-49080D01*
X61916Y-49302D01*
X62086Y-49472D01*
X62308Y-49564D01*
X62548Y-49565D01*
X62771Y-49473D01*
X62876Y-49368D01*
X65724Y-49368D01*
X66281Y-49924D01*
X66281Y-50312D01*
X66176Y-50417D01*
X66084Y-50639D01*
X66084Y-50879D01*
X66176Y-51101D01*
X66346Y-51271D01*
X66568Y-51364D01*
X66808Y-51364D01*
X67030Y-51272D01*
X67201Y-51102D01*
X67293Y-50880D01*
X67293Y-50640D01*
X67201Y-50417D01*
X67096Y-50312D01*
X67096Y-49755D01*
X67065Y-49599D01*
X67065Y-49599D01*
X67030Y-49547D01*
X66977Y-49467D01*
X66977Y-49467D01*
X66877Y-49368D01*
X69868Y-49368D01*
X69896Y-49436D01*
X70066Y-49606D01*
X70288Y-49698D01*
X70529Y-49698D01*
X70751Y-49607D01*
X70921Y-49437D01*
X71013Y-49215D01*
X71013Y-48974D01*
X71013Y-57595D01*
X58336Y-57595D01*
X58534Y-57398D01*
X58723Y-56941D01*
X58724Y-56446D01*
X58535Y-55989D01*
X58185Y-55639D01*
X57728Y-55449D01*
X57234Y-55448D01*
X56776Y-55637D01*
X56546Y-55868D01*
X56546Y-32320D01*
X56774Y-32549D01*
X57231Y-32739D01*
X57726Y-32739D01*
X58183Y-32551D01*
X58534Y-32201D01*
X58723Y-31744D01*
X58724Y-31249D01*
X58535Y-30792D01*
X58230Y-30487D01*
X74447Y-30487D01*
X74143Y-30790D01*
X73953Y-31247D01*
X73952Y-31742D01*
X74141Y-32199D01*
X74491Y-32549D01*
X74948Y-32739D01*
X75443Y-32739D01*
X75900Y-32551D01*
X76201Y-32250D01*
X76201Y-55939D01*
X76201Y-55939D01*
G37*
G54D16*
X76201Y-55939D02*
X75902Y-55639D01*
X75445Y-55449D01*
X74950Y-55448D01*
X74493Y-55637D01*
X74143Y-55987D01*
X73953Y-56444D01*
X73952Y-56939D01*
X74141Y-57396D01*
X74340Y-57595D01*
X71328Y-57595D01*
X71328Y-39840D01*
X71237Y-39618D01*
X71079Y-39460D01*
X71236Y-39303D01*
X71328Y-39081D01*
X71328Y-38840D01*
X71237Y-38618D01*
X71067Y-38448D01*
X70845Y-38356D01*
X70604Y-38356D01*
X70382Y-38448D01*
X70212Y-38617D01*
X70120Y-38839D01*
X70119Y-39080D01*
X70211Y-39302D01*
X70369Y-39460D01*
X70212Y-39617D01*
X70120Y-39839D01*
X70119Y-40080D01*
X70211Y-40302D01*
X70281Y-40372D01*
X70228Y-40394D01*
X70158Y-40464D01*
X70120Y-40556D01*
X70120Y-40848D01*
X70182Y-40910D01*
X70674Y-40910D01*
X70674Y-40902D01*
X70774Y-40902D01*
X70774Y-40910D01*
X71266Y-40910D01*
X71328Y-40848D01*
X71328Y-40556D01*
X71290Y-40464D01*
X71220Y-40394D01*
X71167Y-40372D01*
X71236Y-40303D01*
X71328Y-40081D01*
X71328Y-39840D01*
X71328Y-57595D01*
X71328Y-57595D01*
X71328Y-41364D01*
X71328Y-41073D01*
X71266Y-41010D01*
X70774Y-41010D01*
X70774Y-41502D01*
X70836Y-41564D01*
X71029Y-41565D01*
X71128Y-41564D01*
X71220Y-41526D01*
X71290Y-41456D01*
X71328Y-41364D01*
X71328Y-57595D01*
X71013Y-57595D01*
X71013Y-48974D01*
X70922Y-48752D01*
X70752Y-48582D01*
X70674Y-48550D01*
X70674Y-41502D01*
X70674Y-41010D01*
X70182Y-41010D01*
X70120Y-41073D01*
X70120Y-41364D01*
X70158Y-41456D01*
X70228Y-41526D01*
X70320Y-41564D01*
X70419Y-41565D01*
X70611Y-41564D01*
X70674Y-41502D01*
X70674Y-48550D01*
X70530Y-48490D01*
X70289Y-48490D01*
X70137Y-48553D01*
X69484Y-48553D01*
X69484Y-34889D01*
X69484Y-34889D01*
X69484Y-34889D01*
X69484Y-34826D01*
X69458Y-34697D01*
X69385Y-34587D01*
X69275Y-34513D01*
X69145Y-34488D01*
X69016Y-34513D01*
X68906Y-34587D01*
X68832Y-34697D01*
X68818Y-34770D01*
X68809Y-34783D01*
X68783Y-34913D01*
X68809Y-35042D01*
X68882Y-35152D01*
X68992Y-35226D01*
X69122Y-35251D01*
X69251Y-35226D01*
X69361Y-35152D01*
X69385Y-35129D01*
X69385Y-35129D01*
X69385Y-35129D01*
X69458Y-35019D01*
X69484Y-34889D01*
X69484Y-48553D01*
X68718Y-48553D01*
X68718Y-43829D01*
X68626Y-43606D01*
X68468Y-43448D01*
X68626Y-43291D01*
X68718Y-43069D01*
X68718Y-42829D01*
X68626Y-42606D01*
X68456Y-42436D01*
X68234Y-42344D01*
X67994Y-42344D01*
X67772Y-42436D01*
X67602Y-42606D01*
X67509Y-42828D01*
X67509Y-43068D01*
X67601Y-43290D01*
X67759Y-43448D01*
X67602Y-43606D01*
X67509Y-43828D01*
X67509Y-44068D01*
X67601Y-44290D01*
X67671Y-44360D01*
X67618Y-44382D01*
X67547Y-44453D01*
X67509Y-44544D01*
X67509Y-44836D01*
X67572Y-44898D01*
X68064Y-44898D01*
X68064Y-44890D01*
X68164Y-44890D01*
X68164Y-44898D01*
X68656Y-44898D01*
X68718Y-44836D01*
X68718Y-44544D01*
X68680Y-44453D01*
X68610Y-44382D01*
X68557Y-44360D01*
X68626Y-44291D01*
X68718Y-44069D01*
X68718Y-43829D01*
X68718Y-48553D01*
X68718Y-48553D01*
X68718Y-45352D01*
X68718Y-45061D01*
X68656Y-44998D01*
X68164Y-44998D01*
X68164Y-45490D01*
X68226Y-45553D01*
X68418Y-45553D01*
X68518Y-45553D01*
X68610Y-45514D01*
X68680Y-45444D01*
X68718Y-45352D01*
X68718Y-48553D01*
X68064Y-48553D01*
X68064Y-45490D01*
X68064Y-44998D01*
X67572Y-44998D01*
X67509Y-45061D01*
X67509Y-45352D01*
X67547Y-45444D01*
X67618Y-45514D01*
X67709Y-45553D01*
X67809Y-45553D01*
X68001Y-45553D01*
X68064Y-45490D01*
X68064Y-48553D01*
X65893Y-48553D01*
X65893Y-48553D01*
X65893Y-48553D01*
X65820Y-48553D01*
X65820Y-32896D01*
X65729Y-32673D01*
X65559Y-32503D01*
X65337Y-32411D01*
X65096Y-32411D01*
X64874Y-32503D01*
X64716Y-32661D01*
X64559Y-32503D01*
X64337Y-32411D01*
X64096Y-32411D01*
X63874Y-32503D01*
X63804Y-32572D01*
X63782Y-32519D01*
X63712Y-32449D01*
X63620Y-32411D01*
X63329Y-32411D01*
X63266Y-32473D01*
X63266Y-32965D01*
X63274Y-32965D01*
X63274Y-33065D01*
X63266Y-33065D01*
X63266Y-33557D01*
X63329Y-33620D01*
X63620Y-33620D01*
X63712Y-33582D01*
X63782Y-33511D01*
X63804Y-33458D01*
X63873Y-33527D01*
X64095Y-33619D01*
X64336Y-33620D01*
X64558Y-33528D01*
X64716Y-33370D01*
X64873Y-33527D01*
X65095Y-33619D01*
X65336Y-33620D01*
X65558Y-33528D01*
X65728Y-33358D01*
X65820Y-33136D01*
X65820Y-32896D01*
X65820Y-48553D01*
X63166Y-48553D01*
X63166Y-33557D01*
X63166Y-33065D01*
X63166Y-32965D01*
X63166Y-32473D01*
X63104Y-32411D01*
X62812Y-32411D01*
X62720Y-32449D01*
X62650Y-32519D01*
X62612Y-32611D01*
X62612Y-32710D01*
X62612Y-32903D01*
X62674Y-32965D01*
X63166Y-32965D01*
X63166Y-33065D01*
X62674Y-33065D01*
X62612Y-33128D01*
X62612Y-33320D01*
X62612Y-33420D01*
X62650Y-33511D01*
X62720Y-33582D01*
X62812Y-33620D01*
X63104Y-33620D01*
X63166Y-33557D01*
X63166Y-48553D01*
X62876Y-48553D01*
X62771Y-48448D01*
X62549Y-48356D01*
X62309Y-48356D01*
X62087Y-48448D01*
X61917Y-48617D01*
X61824Y-48839D01*
X61824Y-49080D01*
X61916Y-49302D01*
X62086Y-49472D01*
X62308Y-49564D01*
X62548Y-49565D01*
X62771Y-49473D01*
X62876Y-49368D01*
X65724Y-49368D01*
X66281Y-49924D01*
X66281Y-50312D01*
X66176Y-50417D01*
X66084Y-50639D01*
X66084Y-50879D01*
X66176Y-51101D01*
X66346Y-51271D01*
X66568Y-51364D01*
X66808Y-51364D01*
X67030Y-51272D01*
X67201Y-51102D01*
X67293Y-50880D01*
X67293Y-50640D01*
X67201Y-50417D01*
X67096Y-50312D01*
X67096Y-49755D01*
X67065Y-49599D01*
X67065Y-49599D01*
X67030Y-49547D01*
X66977Y-49467D01*
X66977Y-49467D01*
X66877Y-49368D01*
X69868Y-49368D01*
X69896Y-49436D01*
X70066Y-49606D01*
X70288Y-49698D01*
X70529Y-49698D01*
X70751Y-49607D01*
X70921Y-49437D01*
X71013Y-49215D01*
X71013Y-48974D01*
X71013Y-57595D01*
X58336Y-57595D01*
X58534Y-57398D01*
X58723Y-56941D01*
X58724Y-56446D01*
X58535Y-55989D01*
X58185Y-55639D01*
X57728Y-55449D01*
X57234Y-55448D01*
X56776Y-55637D01*
X56546Y-55868D01*
X56546Y-32320D01*
X56774Y-32549D01*
X57231Y-32739D01*
X57726Y-32739D01*
X58183Y-32551D01*
X58534Y-32201D01*
X58723Y-31744D01*
X58724Y-31249D01*
X58535Y-30792D01*
X58230Y-30487D01*
X74447Y-30487D01*
X74143Y-30790D01*
X73953Y-31247D01*
X73952Y-31742D01*
X74141Y-32199D01*
X74491Y-32549D01*
X74948Y-32739D01*
X75443Y-32739D01*
X75900Y-32551D01*
X76201Y-32250D01*
X76201Y-55939D01*
M02*
