G04 (created by PCBNEW (2013-may-18)-stable) date Sun 26 Oct 2014 10:24:33 PM CET*
%MOIN*%
G04 Gerber Fmt 3.4, Leading zero omitted, Abs format*
%FSLAX34Y34*%
G01*
G70*
G90*
G04 APERTURE LIST*
%ADD10C,0.00590551*%
%ADD11C,0.011811*%
%ADD12C,0.19685*%
%ADD13C,0.11811*%
%ADD14C,0.15*%
%ADD15R,0.15X0.15*%
%ADD16R,0.1X0.1*%
%ADD17C,0.1*%
%ADD18C,0.16*%
%ADD19R,0.0251968X0.1*%
%ADD20R,0.0996063X0.205118*%
%ADD21R,0.06X0.06*%
%ADD22C,0.06*%
%ADD23C,0.035*%
%ADD24C,0.0251968*%
%ADD25C,0.0787402*%
%ADD26C,0.01*%
G04 APERTURE END LIST*
G54D10*
G54D11*
X34404Y-96597D02*
X34994Y-96400D01*
X34404Y-96203D01*
X34966Y-96034D02*
X34994Y-95950D01*
X34994Y-95809D01*
X34966Y-95753D01*
X34938Y-95725D01*
X34882Y-95697D01*
X34826Y-95697D01*
X34769Y-95725D01*
X34741Y-95753D01*
X34713Y-95809D01*
X34685Y-95922D01*
X34657Y-95978D01*
X34629Y-96006D01*
X34573Y-96034D01*
X34516Y-96034D01*
X34460Y-96006D01*
X34432Y-95978D01*
X34404Y-95922D01*
X34404Y-95781D01*
X34432Y-95697D01*
X34938Y-95106D02*
X34966Y-95134D01*
X34994Y-95219D01*
X34994Y-95275D01*
X34966Y-95359D01*
X34910Y-95416D01*
X34854Y-95444D01*
X34741Y-95472D01*
X34657Y-95472D01*
X34544Y-95444D01*
X34488Y-95416D01*
X34432Y-95359D01*
X34404Y-95275D01*
X34404Y-95219D01*
X34432Y-95134D01*
X34460Y-95106D01*
X34994Y-94853D02*
X34404Y-94853D01*
X34404Y-94628D01*
X34432Y-94572D01*
X34460Y-94544D01*
X34516Y-94516D01*
X34601Y-94516D01*
X34657Y-94544D01*
X34685Y-94572D01*
X34713Y-94628D01*
X34713Y-94853D01*
X35051Y-94403D02*
X35051Y-93953D01*
X34994Y-93813D02*
X34404Y-93813D01*
X34404Y-93588D01*
X34432Y-93532D01*
X34460Y-93503D01*
X34516Y-93475D01*
X34601Y-93475D01*
X34657Y-93503D01*
X34685Y-93532D01*
X34713Y-93588D01*
X34713Y-93813D01*
X34404Y-93110D02*
X34404Y-92997D01*
X34432Y-92941D01*
X34488Y-92885D01*
X34601Y-92857D01*
X34798Y-92857D01*
X34910Y-92885D01*
X34966Y-92941D01*
X34994Y-92997D01*
X34994Y-93110D01*
X34966Y-93166D01*
X34910Y-93222D01*
X34798Y-93250D01*
X34601Y-93250D01*
X34488Y-93222D01*
X34432Y-93166D01*
X34404Y-93110D01*
X34404Y-92660D02*
X34994Y-92519D01*
X34573Y-92407D01*
X34994Y-92294D01*
X34404Y-92154D01*
X34685Y-91929D02*
X34685Y-91732D01*
X34994Y-91647D02*
X34994Y-91929D01*
X34404Y-91929D01*
X34404Y-91647D01*
X34994Y-91057D02*
X34713Y-91254D01*
X34994Y-91394D02*
X34404Y-91394D01*
X34404Y-91169D01*
X34432Y-91113D01*
X34460Y-91085D01*
X34516Y-91057D01*
X34601Y-91057D01*
X34657Y-91085D01*
X34685Y-91113D01*
X34713Y-91169D01*
X34713Y-91394D01*
G54D12*
X39370Y-39370D03*
X48818Y-39370D03*
G54D13*
X39370Y-49606D03*
X41338Y-49606D03*
X48818Y-49606D03*
X46850Y-49606D03*
G54D14*
X45094Y-54330D03*
X43094Y-54330D03*
G54D15*
X47094Y-54330D03*
G54D14*
X41094Y-54330D03*
G54D16*
X42094Y-89370D03*
G54D17*
X44094Y-89370D03*
X46094Y-89370D03*
G54D16*
X43094Y-32350D03*
G54D17*
X45094Y-32350D03*
G54D18*
X34645Y-59055D03*
X53543Y-59055D03*
X34645Y-85826D03*
X53543Y-85826D03*
G54D19*
X41344Y-97751D03*
X41844Y-97751D03*
X42344Y-97751D03*
X42844Y-97751D03*
X40844Y-97751D03*
X40344Y-97751D03*
X39844Y-97751D03*
X39344Y-97751D03*
X45344Y-97751D03*
X45844Y-97751D03*
X46344Y-97751D03*
X46844Y-97751D03*
X47344Y-97751D03*
X47844Y-97751D03*
X48344Y-97751D03*
X48844Y-97751D03*
G54D20*
X38594Y-102395D03*
X49594Y-102395D03*
G54D18*
X53543Y-30708D03*
G54D21*
X45893Y-93240D03*
G54D22*
X45893Y-94240D03*
G54D18*
X34645Y-30708D03*
X34645Y-103149D03*
X53543Y-103149D03*
G54D23*
X42338Y-95338D03*
X39838Y-96464D03*
X44791Y-96523D03*
X45838Y-95531D03*
X41342Y-99275D03*
X41338Y-101551D03*
G54D24*
X42344Y-97751D02*
X42344Y-95757D01*
G54D25*
X42338Y-95338D02*
X42338Y-95751D01*
G54D24*
X42344Y-95757D02*
X42338Y-95751D01*
X46844Y-97751D02*
X46844Y-99852D01*
X40844Y-99915D02*
X40844Y-97751D01*
X41358Y-100429D02*
X40844Y-99915D01*
X46267Y-100429D02*
X41358Y-100429D01*
X46844Y-99852D02*
X46267Y-100429D01*
X45344Y-97751D02*
X45344Y-97076D01*
X39844Y-96470D02*
X39844Y-97751D01*
X39838Y-96464D02*
X39844Y-96470D01*
X45344Y-97076D02*
X44791Y-96523D01*
X45844Y-97751D02*
X45844Y-95785D01*
G54D26*
X45844Y-95785D02*
X45850Y-95779D01*
G54D25*
X45850Y-95543D02*
X45850Y-95779D01*
X45838Y-95531D02*
X45850Y-95543D01*
G54D24*
X45844Y-97751D02*
X46344Y-97751D01*
X45844Y-97751D02*
X45344Y-97751D01*
X39844Y-97751D02*
X40344Y-97751D01*
X39344Y-97751D02*
X39844Y-97751D01*
X47344Y-97751D02*
X47344Y-101529D01*
X41344Y-99273D02*
X41344Y-97751D01*
X41342Y-99275D02*
X41344Y-99273D01*
X41889Y-102102D02*
X41338Y-101551D01*
X46771Y-102102D02*
X41889Y-102102D01*
X47344Y-101529D02*
X46771Y-102102D01*
G54D10*
G36*
X54457Y-102305D02*
X54248Y-102095D01*
X53791Y-101906D01*
X53297Y-101905D01*
X52839Y-102094D01*
X52489Y-102444D01*
X52299Y-102901D01*
X52299Y-103395D01*
X52488Y-103853D01*
X52832Y-104197D01*
X50342Y-104197D01*
X50342Y-103371D01*
X50342Y-101419D01*
X50342Y-101320D01*
X50304Y-101228D01*
X50233Y-101158D01*
X50142Y-101120D01*
X50053Y-101120D01*
X50053Y-39125D01*
X49865Y-38671D01*
X49518Y-38324D01*
X49065Y-38136D01*
X48574Y-38135D01*
X48120Y-38323D01*
X47773Y-38670D01*
X47584Y-39123D01*
X47584Y-39614D01*
X47771Y-40068D01*
X48118Y-40415D01*
X48572Y-40604D01*
X49063Y-40604D01*
X49517Y-40417D01*
X49864Y-40070D01*
X50052Y-39616D01*
X50053Y-39125D01*
X50053Y-101120D01*
X49706Y-101120D01*
X49659Y-101167D01*
X49659Y-49439D01*
X49531Y-49130D01*
X49295Y-48894D01*
X48986Y-48765D01*
X48652Y-48765D01*
X48343Y-48893D01*
X48106Y-49129D01*
X47978Y-49438D01*
X47978Y-49772D01*
X48105Y-50081D01*
X48342Y-50318D01*
X48650Y-50446D01*
X48985Y-50446D01*
X49294Y-50319D01*
X49531Y-50083D01*
X49659Y-49774D01*
X49659Y-49439D01*
X49659Y-101167D01*
X49644Y-101182D01*
X49644Y-102345D01*
X50280Y-102345D01*
X50342Y-102283D01*
X50342Y-101419D01*
X50342Y-103371D01*
X50342Y-102508D01*
X50280Y-102445D01*
X49644Y-102445D01*
X49644Y-103608D01*
X49706Y-103671D01*
X50142Y-103671D01*
X50233Y-103633D01*
X50304Y-103563D01*
X50342Y-103471D01*
X50342Y-103371D01*
X50342Y-104197D01*
X49544Y-104197D01*
X49544Y-103608D01*
X49544Y-102445D01*
X49544Y-102345D01*
X49544Y-101182D01*
X49481Y-101120D01*
X49220Y-101120D01*
X49220Y-98202D01*
X49220Y-97301D01*
X49220Y-97202D01*
X49182Y-97110D01*
X49111Y-97039D01*
X49019Y-97001D01*
X48956Y-97001D01*
X48894Y-97064D01*
X48894Y-97701D01*
X49157Y-97701D01*
X49220Y-97639D01*
X49220Y-97301D01*
X49220Y-98202D01*
X49220Y-97864D01*
X49157Y-97801D01*
X48894Y-97801D01*
X48894Y-98439D01*
X48956Y-98501D01*
X49019Y-98502D01*
X49111Y-98464D01*
X49182Y-98393D01*
X49220Y-98301D01*
X49220Y-98202D01*
X49220Y-101120D01*
X49046Y-101120D01*
X48955Y-101158D01*
X48884Y-101228D01*
X48846Y-101320D01*
X48846Y-101419D01*
X48846Y-102283D01*
X48908Y-102345D01*
X49544Y-102345D01*
X49544Y-102445D01*
X48908Y-102445D01*
X48846Y-102508D01*
X48846Y-103371D01*
X48846Y-103471D01*
X48884Y-103563D01*
X48955Y-103633D01*
X49046Y-103671D01*
X49481Y-103671D01*
X49544Y-103608D01*
X49544Y-104197D01*
X48794Y-104196D01*
X48794Y-98439D01*
X48794Y-97801D01*
X48794Y-97701D01*
X48794Y-97064D01*
X48731Y-97001D01*
X48668Y-97001D01*
X48594Y-97032D01*
X48519Y-97001D01*
X48456Y-97001D01*
X48394Y-97064D01*
X48394Y-97701D01*
X48531Y-97701D01*
X48657Y-97701D01*
X48794Y-97701D01*
X48794Y-97801D01*
X48657Y-97801D01*
X48531Y-97801D01*
X48394Y-97801D01*
X48394Y-98439D01*
X48456Y-98501D01*
X48519Y-98502D01*
X48594Y-98471D01*
X48668Y-98502D01*
X48731Y-98501D01*
X48794Y-98439D01*
X48794Y-104196D01*
X48294Y-104196D01*
X48294Y-98439D01*
X48294Y-97801D01*
X48294Y-97701D01*
X48294Y-97064D01*
X48231Y-97001D01*
X48168Y-97001D01*
X48094Y-97032D01*
X48094Y-55031D01*
X48094Y-53531D01*
X48056Y-53439D01*
X47986Y-53368D01*
X47894Y-53330D01*
X47794Y-53330D01*
X47691Y-53330D01*
X47691Y-49439D01*
X47563Y-49130D01*
X47327Y-48894D01*
X47018Y-48765D01*
X46683Y-48765D01*
X46374Y-48893D01*
X46138Y-49129D01*
X46009Y-49438D01*
X46009Y-49772D01*
X46137Y-50081D01*
X46373Y-50318D01*
X46682Y-50446D01*
X47016Y-50446D01*
X47325Y-50319D01*
X47562Y-50083D01*
X47690Y-49774D01*
X47691Y-49439D01*
X47691Y-53330D01*
X46294Y-53330D01*
X46203Y-53368D01*
X46132Y-53438D01*
X46094Y-53530D01*
X46094Y-53630D01*
X46094Y-54132D01*
X45942Y-53764D01*
X45844Y-53666D01*
X45844Y-32201D01*
X45730Y-31926D01*
X45519Y-31714D01*
X45244Y-31600D01*
X44945Y-31600D01*
X44670Y-31714D01*
X44459Y-31924D01*
X44344Y-32200D01*
X44344Y-32498D01*
X44458Y-32774D01*
X44669Y-32985D01*
X44944Y-33100D01*
X45243Y-33100D01*
X45518Y-32986D01*
X45729Y-32775D01*
X45844Y-32500D01*
X45844Y-32201D01*
X45844Y-53666D01*
X45661Y-53483D01*
X45294Y-53330D01*
X44896Y-53330D01*
X44528Y-53482D01*
X44247Y-53763D01*
X44094Y-54130D01*
X44094Y-54132D01*
X43942Y-53764D01*
X43844Y-53666D01*
X43844Y-32800D01*
X43844Y-31800D01*
X43806Y-31708D01*
X43736Y-31638D01*
X43644Y-31600D01*
X43544Y-31600D01*
X42544Y-31600D01*
X42453Y-31638D01*
X42382Y-31708D01*
X42344Y-31800D01*
X42344Y-31899D01*
X42344Y-32899D01*
X42382Y-32991D01*
X42452Y-33062D01*
X42544Y-33100D01*
X42643Y-33100D01*
X43643Y-33100D01*
X43735Y-33062D01*
X43806Y-32992D01*
X43844Y-32900D01*
X43844Y-32800D01*
X43844Y-53666D01*
X43661Y-53483D01*
X43294Y-53330D01*
X42896Y-53330D01*
X42528Y-53482D01*
X42247Y-53763D01*
X42179Y-53927D01*
X42179Y-49439D01*
X42051Y-49130D01*
X41815Y-48894D01*
X41506Y-48765D01*
X41172Y-48765D01*
X40863Y-48893D01*
X40626Y-49129D01*
X40604Y-49182D01*
X40604Y-39125D01*
X40417Y-38671D01*
X40070Y-38324D01*
X39616Y-38136D01*
X39125Y-38135D01*
X38671Y-38323D01*
X38324Y-38670D01*
X38136Y-39123D01*
X38135Y-39614D01*
X38323Y-40068D01*
X38670Y-40415D01*
X39123Y-40604D01*
X39614Y-40604D01*
X40068Y-40417D01*
X40415Y-40070D01*
X40604Y-39616D01*
X40604Y-39125D01*
X40604Y-49182D01*
X40498Y-49438D01*
X40497Y-49772D01*
X40625Y-50081D01*
X40861Y-50318D01*
X41170Y-50446D01*
X41505Y-50446D01*
X41814Y-50319D01*
X42050Y-50083D01*
X42178Y-49774D01*
X42179Y-49439D01*
X42179Y-53927D01*
X42094Y-54130D01*
X42094Y-54132D01*
X41942Y-53764D01*
X41661Y-53483D01*
X41294Y-53330D01*
X40896Y-53330D01*
X40528Y-53482D01*
X40247Y-53763D01*
X40210Y-53851D01*
X40210Y-49439D01*
X40083Y-49130D01*
X39846Y-48894D01*
X39538Y-48765D01*
X39203Y-48765D01*
X38894Y-48893D01*
X38657Y-49129D01*
X38529Y-49438D01*
X38529Y-49772D01*
X38657Y-50081D01*
X38893Y-50318D01*
X39202Y-50446D01*
X39536Y-50446D01*
X39845Y-50319D01*
X40082Y-50083D01*
X40210Y-49774D01*
X40210Y-49439D01*
X40210Y-53851D01*
X40094Y-54130D01*
X40094Y-54528D01*
X40246Y-54896D01*
X40527Y-55177D01*
X40894Y-55330D01*
X41292Y-55330D01*
X41660Y-55178D01*
X41941Y-54897D01*
X42094Y-54530D01*
X42094Y-54528D01*
X42246Y-54896D01*
X42527Y-55177D01*
X42894Y-55330D01*
X43292Y-55330D01*
X43660Y-55178D01*
X43941Y-54897D01*
X44094Y-54530D01*
X44094Y-54528D01*
X44246Y-54896D01*
X44527Y-55177D01*
X44894Y-55330D01*
X45292Y-55330D01*
X45660Y-55178D01*
X45941Y-54897D01*
X46094Y-54530D01*
X46094Y-54380D01*
X46094Y-55130D01*
X46132Y-55222D01*
X46202Y-55292D01*
X46294Y-55330D01*
X46393Y-55330D01*
X47893Y-55330D01*
X47985Y-55292D01*
X48056Y-55222D01*
X48094Y-55130D01*
X48094Y-55031D01*
X48094Y-97032D01*
X48094Y-97032D01*
X48019Y-97001D01*
X47956Y-97001D01*
X47894Y-97064D01*
X47894Y-97701D01*
X48031Y-97701D01*
X48157Y-97701D01*
X48294Y-97701D01*
X48294Y-97801D01*
X48157Y-97801D01*
X48031Y-97801D01*
X47894Y-97801D01*
X47894Y-98439D01*
X47956Y-98501D01*
X48019Y-98502D01*
X48094Y-98471D01*
X48168Y-98502D01*
X48231Y-98501D01*
X48294Y-98439D01*
X48294Y-104196D01*
X47794Y-104196D01*
X47794Y-98439D01*
X47794Y-97801D01*
X47786Y-97801D01*
X47786Y-97701D01*
X47794Y-97701D01*
X47794Y-97064D01*
X47731Y-97001D01*
X47668Y-97001D01*
X47594Y-97032D01*
X47520Y-97002D01*
X47420Y-97001D01*
X47168Y-97001D01*
X47094Y-97032D01*
X47020Y-97002D01*
X46920Y-97001D01*
X46844Y-97001D01*
X46844Y-89221D01*
X46730Y-88945D01*
X46519Y-88734D01*
X46244Y-88620D01*
X45945Y-88619D01*
X45670Y-88733D01*
X45459Y-88944D01*
X45344Y-89220D01*
X45344Y-89518D01*
X45458Y-89794D01*
X45669Y-90005D01*
X45944Y-90119D01*
X46243Y-90120D01*
X46518Y-90006D01*
X46729Y-89795D01*
X46844Y-89519D01*
X46844Y-89221D01*
X46844Y-97001D01*
X46668Y-97001D01*
X46594Y-97032D01*
X46520Y-97002D01*
X46420Y-97001D01*
X46220Y-97001D01*
X46220Y-96291D01*
X46305Y-96234D01*
X46445Y-96025D01*
X46494Y-95779D01*
X46494Y-95543D01*
X46445Y-95296D01*
X46445Y-95296D01*
X46443Y-95295D01*
X46443Y-94131D01*
X46360Y-93929D01*
X46221Y-93790D01*
X46243Y-93790D01*
X46335Y-93752D01*
X46405Y-93681D01*
X46443Y-93590D01*
X46443Y-93490D01*
X46443Y-92890D01*
X46405Y-92798D01*
X46335Y-92728D01*
X46243Y-92690D01*
X46144Y-92690D01*
X45544Y-92690D01*
X45452Y-92728D01*
X45381Y-92798D01*
X45343Y-92890D01*
X45343Y-92989D01*
X45343Y-93589D01*
X45381Y-93681D01*
X45451Y-93751D01*
X45543Y-93790D01*
X45566Y-93790D01*
X45427Y-93928D01*
X45343Y-94130D01*
X45343Y-94349D01*
X45427Y-94551D01*
X45581Y-94706D01*
X45783Y-94790D01*
X46002Y-94790D01*
X46204Y-94706D01*
X46359Y-94552D01*
X46443Y-94350D01*
X46443Y-94131D01*
X46443Y-95295D01*
X46305Y-95088D01*
X46305Y-95088D01*
X46293Y-95076D01*
X46084Y-94936D01*
X45838Y-94887D01*
X45592Y-94936D01*
X45383Y-95076D01*
X45243Y-95285D01*
X45194Y-95531D01*
X45206Y-95590D01*
X45206Y-95779D01*
X45255Y-96025D01*
X45395Y-96234D01*
X45468Y-96283D01*
X45468Y-96669D01*
X45200Y-96401D01*
X45151Y-96283D01*
X45032Y-96163D01*
X44876Y-96098D01*
X44848Y-96098D01*
X44848Y-89499D01*
X44840Y-89201D01*
X44741Y-88962D01*
X44625Y-88910D01*
X44554Y-88980D01*
X44554Y-88839D01*
X44502Y-88723D01*
X44224Y-88616D01*
X43925Y-88624D01*
X43686Y-88723D01*
X43634Y-88839D01*
X44094Y-89299D01*
X44554Y-88839D01*
X44554Y-88980D01*
X44165Y-89370D01*
X44625Y-89829D01*
X44741Y-89778D01*
X44848Y-89499D01*
X44848Y-96098D01*
X44707Y-96098D01*
X44554Y-96161D01*
X44554Y-89900D01*
X44094Y-89440D01*
X44023Y-89511D01*
X44023Y-89370D01*
X43563Y-88910D01*
X43447Y-88962D01*
X43340Y-89240D01*
X43348Y-89538D01*
X43447Y-89778D01*
X43563Y-89829D01*
X44023Y-89370D01*
X44023Y-89511D01*
X43634Y-89900D01*
X43686Y-90016D01*
X43964Y-90123D01*
X44263Y-90115D01*
X44502Y-90016D01*
X44554Y-89900D01*
X44554Y-96161D01*
X44550Y-96163D01*
X44431Y-96282D01*
X44366Y-96438D01*
X44366Y-96607D01*
X44430Y-96764D01*
X44550Y-96883D01*
X44669Y-96933D01*
X44968Y-97232D01*
X44968Y-97251D01*
X44968Y-97301D01*
X44968Y-98301D01*
X45006Y-98393D01*
X45076Y-98463D01*
X45168Y-98501D01*
X45268Y-98502D01*
X45519Y-98502D01*
X45594Y-98471D01*
X45668Y-98501D01*
X45768Y-98502D01*
X46019Y-98502D01*
X46094Y-98471D01*
X46168Y-98501D01*
X46268Y-98502D01*
X46468Y-98502D01*
X46468Y-99696D01*
X46111Y-100053D01*
X43220Y-100053D01*
X43220Y-98202D01*
X43220Y-97301D01*
X43220Y-97202D01*
X43182Y-97110D01*
X43111Y-97039D01*
X43019Y-97001D01*
X42956Y-97001D01*
X42894Y-97064D01*
X42894Y-97701D01*
X43157Y-97701D01*
X43220Y-97639D01*
X43220Y-97301D01*
X43220Y-98202D01*
X43220Y-97864D01*
X43157Y-97801D01*
X42894Y-97801D01*
X42894Y-98439D01*
X42956Y-98501D01*
X43019Y-98502D01*
X43111Y-98464D01*
X43182Y-98393D01*
X43220Y-98301D01*
X43220Y-98202D01*
X43220Y-100053D01*
X42844Y-100053D01*
X42844Y-89820D01*
X42844Y-88820D01*
X42806Y-88728D01*
X42736Y-88658D01*
X42644Y-88620D01*
X42544Y-88620D01*
X41544Y-88620D01*
X41453Y-88658D01*
X41382Y-88728D01*
X41344Y-88820D01*
X41344Y-88919D01*
X41344Y-89919D01*
X41382Y-90011D01*
X41452Y-90081D01*
X41544Y-90120D01*
X41643Y-90120D01*
X42643Y-90120D01*
X42735Y-90082D01*
X42806Y-90011D01*
X42844Y-89920D01*
X42844Y-89820D01*
X42844Y-100053D01*
X42794Y-100053D01*
X42794Y-98439D01*
X42794Y-97801D01*
X42794Y-97701D01*
X42794Y-97064D01*
X42731Y-97001D01*
X42668Y-97001D01*
X42594Y-97032D01*
X42519Y-97001D01*
X42456Y-97001D01*
X42394Y-97064D01*
X42394Y-97701D01*
X42531Y-97701D01*
X42657Y-97701D01*
X42794Y-97701D01*
X42794Y-97801D01*
X42657Y-97801D01*
X42531Y-97801D01*
X42394Y-97801D01*
X42394Y-98439D01*
X42456Y-98501D01*
X42519Y-98502D01*
X42594Y-98471D01*
X42668Y-98502D01*
X42731Y-98501D01*
X42794Y-98439D01*
X42794Y-100053D01*
X42294Y-100053D01*
X42294Y-98439D01*
X42294Y-97801D01*
X42294Y-97701D01*
X42294Y-97064D01*
X42231Y-97001D01*
X42168Y-97001D01*
X42094Y-97032D01*
X42019Y-97001D01*
X41956Y-97001D01*
X41894Y-97064D01*
X41894Y-97701D01*
X42031Y-97701D01*
X42157Y-97701D01*
X42294Y-97701D01*
X42294Y-97801D01*
X42157Y-97801D01*
X42031Y-97801D01*
X41894Y-97801D01*
X41894Y-98439D01*
X41956Y-98501D01*
X42019Y-98502D01*
X42094Y-98471D01*
X42168Y-98502D01*
X42231Y-98501D01*
X42294Y-98439D01*
X42294Y-100053D01*
X41514Y-100053D01*
X41220Y-99759D01*
X41220Y-99685D01*
X41257Y-99700D01*
X41426Y-99700D01*
X41582Y-99636D01*
X41702Y-99516D01*
X41767Y-99360D01*
X41767Y-99191D01*
X41720Y-99077D01*
X41720Y-98501D01*
X41731Y-98501D01*
X41794Y-98439D01*
X41794Y-97801D01*
X41786Y-97801D01*
X41786Y-97701D01*
X41794Y-97701D01*
X41794Y-97064D01*
X41731Y-97001D01*
X41668Y-97001D01*
X41594Y-97032D01*
X41520Y-97002D01*
X41420Y-97001D01*
X41168Y-97001D01*
X41094Y-97032D01*
X41020Y-97002D01*
X40920Y-97001D01*
X40668Y-97001D01*
X40594Y-97032D01*
X40520Y-97002D01*
X40420Y-97001D01*
X40220Y-97001D01*
X40220Y-96653D01*
X40263Y-96549D01*
X40263Y-96380D01*
X40199Y-96224D01*
X40079Y-96104D01*
X39923Y-96039D01*
X39754Y-96039D01*
X39598Y-96104D01*
X39478Y-96223D01*
X39413Y-96379D01*
X39413Y-96548D01*
X39468Y-96681D01*
X39468Y-97001D01*
X39420Y-97001D01*
X39168Y-97001D01*
X39077Y-97039D01*
X39006Y-97110D01*
X38968Y-97202D01*
X38968Y-97301D01*
X38968Y-98301D01*
X39006Y-98393D01*
X39076Y-98463D01*
X39168Y-98501D01*
X39268Y-98502D01*
X39519Y-98502D01*
X39594Y-98471D01*
X39668Y-98501D01*
X39768Y-98502D01*
X40019Y-98502D01*
X40094Y-98471D01*
X40168Y-98501D01*
X40268Y-98502D01*
X40468Y-98502D01*
X40468Y-99915D01*
X40497Y-100059D01*
X40578Y-100181D01*
X41092Y-100694D01*
X41092Y-100694D01*
X41214Y-100776D01*
X41358Y-100805D01*
X46267Y-100805D01*
X46411Y-100776D01*
X46411Y-100776D01*
X46533Y-100694D01*
X46968Y-100260D01*
X46968Y-101373D01*
X46615Y-101726D01*
X42045Y-101726D01*
X41747Y-101428D01*
X41699Y-101310D01*
X41579Y-101191D01*
X41423Y-101126D01*
X41254Y-101126D01*
X41098Y-101190D01*
X40978Y-101310D01*
X40913Y-101466D01*
X40913Y-101635D01*
X40978Y-101791D01*
X41097Y-101911D01*
X41216Y-101960D01*
X41623Y-102368D01*
X41623Y-102368D01*
X41745Y-102449D01*
X41889Y-102478D01*
X41889Y-102478D01*
X46771Y-102478D01*
X46915Y-102449D01*
X46915Y-102449D01*
X47037Y-102368D01*
X47610Y-101795D01*
X47610Y-101795D01*
X47610Y-101795D01*
X47691Y-101673D01*
X47720Y-101529D01*
X47720Y-101529D01*
X47720Y-101529D01*
X47720Y-98501D01*
X47731Y-98501D01*
X47794Y-98439D01*
X47794Y-104196D01*
X39342Y-104195D01*
X39342Y-103371D01*
X39342Y-101419D01*
X39342Y-101320D01*
X39304Y-101228D01*
X39233Y-101158D01*
X39142Y-101120D01*
X38706Y-101120D01*
X38644Y-101182D01*
X38644Y-102345D01*
X39280Y-102345D01*
X39342Y-102283D01*
X39342Y-101419D01*
X39342Y-103371D01*
X39342Y-102508D01*
X39280Y-102445D01*
X38644Y-102445D01*
X38644Y-103608D01*
X38706Y-103671D01*
X39142Y-103671D01*
X39233Y-103633D01*
X39304Y-103563D01*
X39342Y-103471D01*
X39342Y-103371D01*
X39342Y-104195D01*
X38544Y-104195D01*
X38544Y-103608D01*
X38544Y-102445D01*
X38544Y-102345D01*
X38544Y-101182D01*
X38481Y-101120D01*
X38046Y-101120D01*
X37955Y-101158D01*
X37884Y-101228D01*
X37846Y-101320D01*
X37846Y-101419D01*
X37846Y-102283D01*
X37908Y-102345D01*
X38544Y-102345D01*
X38544Y-102445D01*
X37908Y-102445D01*
X37846Y-102508D01*
X37846Y-103371D01*
X37846Y-103471D01*
X37884Y-103563D01*
X37955Y-103633D01*
X38046Y-103671D01*
X38481Y-103671D01*
X38544Y-103608D01*
X38544Y-104195D01*
X35359Y-104194D01*
X35699Y-103855D01*
X35889Y-103398D01*
X35889Y-102903D01*
X35700Y-102446D01*
X35478Y-102223D01*
X35478Y-96962D01*
X35478Y-90635D01*
X33915Y-90635D01*
X33915Y-96962D01*
X35478Y-96962D01*
X35478Y-102223D01*
X35351Y-102095D01*
X34894Y-101906D01*
X34399Y-101905D01*
X33942Y-102094D01*
X33734Y-102301D01*
X33734Y-86674D01*
X33940Y-86880D01*
X34397Y-87070D01*
X34891Y-87070D01*
X35349Y-86881D01*
X35699Y-86532D01*
X35889Y-86075D01*
X35889Y-85580D01*
X35700Y-85123D01*
X35351Y-84773D01*
X34894Y-84583D01*
X34399Y-84582D01*
X33942Y-84771D01*
X33734Y-84979D01*
X33732Y-59900D01*
X33940Y-60108D01*
X34397Y-60298D01*
X34891Y-60299D01*
X35349Y-60110D01*
X35699Y-59760D01*
X35889Y-59303D01*
X35889Y-58808D01*
X35700Y-58351D01*
X35351Y-58001D01*
X34894Y-57811D01*
X34399Y-57811D01*
X33942Y-58000D01*
X33732Y-58209D01*
X33731Y-31552D01*
X33940Y-31762D01*
X34397Y-31952D01*
X34891Y-31952D01*
X35349Y-31763D01*
X35699Y-31414D01*
X35889Y-30957D01*
X35889Y-30462D01*
X35700Y-30005D01*
X35485Y-29789D01*
X52706Y-29786D01*
X52489Y-30003D01*
X52299Y-30460D01*
X52299Y-30954D01*
X52488Y-31412D01*
X52837Y-31762D01*
X53294Y-31952D01*
X53789Y-31952D01*
X54246Y-31763D01*
X54450Y-31560D01*
X54453Y-58206D01*
X54248Y-58001D01*
X53791Y-57811D01*
X53297Y-57811D01*
X52839Y-58000D01*
X52489Y-58349D01*
X52299Y-58806D01*
X52299Y-59301D01*
X52488Y-59758D01*
X52837Y-60108D01*
X53294Y-60298D01*
X53789Y-60299D01*
X54246Y-60110D01*
X54453Y-59904D01*
X54455Y-84980D01*
X54248Y-84773D01*
X53791Y-84583D01*
X53297Y-84582D01*
X52839Y-84771D01*
X52489Y-85121D01*
X52299Y-85578D01*
X52299Y-86073D01*
X52488Y-86530D01*
X52837Y-86880D01*
X53294Y-87070D01*
X53789Y-87070D01*
X54246Y-86881D01*
X54456Y-86672D01*
X54457Y-102305D01*
X54457Y-102305D01*
G37*
G54D26*
X54457Y-102305D02*
X54248Y-102095D01*
X53791Y-101906D01*
X53297Y-101905D01*
X52839Y-102094D01*
X52489Y-102444D01*
X52299Y-102901D01*
X52299Y-103395D01*
X52488Y-103853D01*
X52832Y-104197D01*
X50342Y-104197D01*
X50342Y-103371D01*
X50342Y-101419D01*
X50342Y-101320D01*
X50304Y-101228D01*
X50233Y-101158D01*
X50142Y-101120D01*
X50053Y-101120D01*
X50053Y-39125D01*
X49865Y-38671D01*
X49518Y-38324D01*
X49065Y-38136D01*
X48574Y-38135D01*
X48120Y-38323D01*
X47773Y-38670D01*
X47584Y-39123D01*
X47584Y-39614D01*
X47771Y-40068D01*
X48118Y-40415D01*
X48572Y-40604D01*
X49063Y-40604D01*
X49517Y-40417D01*
X49864Y-40070D01*
X50052Y-39616D01*
X50053Y-39125D01*
X50053Y-101120D01*
X49706Y-101120D01*
X49659Y-101167D01*
X49659Y-49439D01*
X49531Y-49130D01*
X49295Y-48894D01*
X48986Y-48765D01*
X48652Y-48765D01*
X48343Y-48893D01*
X48106Y-49129D01*
X47978Y-49438D01*
X47978Y-49772D01*
X48105Y-50081D01*
X48342Y-50318D01*
X48650Y-50446D01*
X48985Y-50446D01*
X49294Y-50319D01*
X49531Y-50083D01*
X49659Y-49774D01*
X49659Y-49439D01*
X49659Y-101167D01*
X49644Y-101182D01*
X49644Y-102345D01*
X50280Y-102345D01*
X50342Y-102283D01*
X50342Y-101419D01*
X50342Y-103371D01*
X50342Y-102508D01*
X50280Y-102445D01*
X49644Y-102445D01*
X49644Y-103608D01*
X49706Y-103671D01*
X50142Y-103671D01*
X50233Y-103633D01*
X50304Y-103563D01*
X50342Y-103471D01*
X50342Y-103371D01*
X50342Y-104197D01*
X49544Y-104197D01*
X49544Y-103608D01*
X49544Y-102445D01*
X49544Y-102345D01*
X49544Y-101182D01*
X49481Y-101120D01*
X49220Y-101120D01*
X49220Y-98202D01*
X49220Y-97301D01*
X49220Y-97202D01*
X49182Y-97110D01*
X49111Y-97039D01*
X49019Y-97001D01*
X48956Y-97001D01*
X48894Y-97064D01*
X48894Y-97701D01*
X49157Y-97701D01*
X49220Y-97639D01*
X49220Y-97301D01*
X49220Y-98202D01*
X49220Y-97864D01*
X49157Y-97801D01*
X48894Y-97801D01*
X48894Y-98439D01*
X48956Y-98501D01*
X49019Y-98502D01*
X49111Y-98464D01*
X49182Y-98393D01*
X49220Y-98301D01*
X49220Y-98202D01*
X49220Y-101120D01*
X49046Y-101120D01*
X48955Y-101158D01*
X48884Y-101228D01*
X48846Y-101320D01*
X48846Y-101419D01*
X48846Y-102283D01*
X48908Y-102345D01*
X49544Y-102345D01*
X49544Y-102445D01*
X48908Y-102445D01*
X48846Y-102508D01*
X48846Y-103371D01*
X48846Y-103471D01*
X48884Y-103563D01*
X48955Y-103633D01*
X49046Y-103671D01*
X49481Y-103671D01*
X49544Y-103608D01*
X49544Y-104197D01*
X48794Y-104196D01*
X48794Y-98439D01*
X48794Y-97801D01*
X48794Y-97701D01*
X48794Y-97064D01*
X48731Y-97001D01*
X48668Y-97001D01*
X48594Y-97032D01*
X48519Y-97001D01*
X48456Y-97001D01*
X48394Y-97064D01*
X48394Y-97701D01*
X48531Y-97701D01*
X48657Y-97701D01*
X48794Y-97701D01*
X48794Y-97801D01*
X48657Y-97801D01*
X48531Y-97801D01*
X48394Y-97801D01*
X48394Y-98439D01*
X48456Y-98501D01*
X48519Y-98502D01*
X48594Y-98471D01*
X48668Y-98502D01*
X48731Y-98501D01*
X48794Y-98439D01*
X48794Y-104196D01*
X48294Y-104196D01*
X48294Y-98439D01*
X48294Y-97801D01*
X48294Y-97701D01*
X48294Y-97064D01*
X48231Y-97001D01*
X48168Y-97001D01*
X48094Y-97032D01*
X48094Y-55031D01*
X48094Y-53531D01*
X48056Y-53439D01*
X47986Y-53368D01*
X47894Y-53330D01*
X47794Y-53330D01*
X47691Y-53330D01*
X47691Y-49439D01*
X47563Y-49130D01*
X47327Y-48894D01*
X47018Y-48765D01*
X46683Y-48765D01*
X46374Y-48893D01*
X46138Y-49129D01*
X46009Y-49438D01*
X46009Y-49772D01*
X46137Y-50081D01*
X46373Y-50318D01*
X46682Y-50446D01*
X47016Y-50446D01*
X47325Y-50319D01*
X47562Y-50083D01*
X47690Y-49774D01*
X47691Y-49439D01*
X47691Y-53330D01*
X46294Y-53330D01*
X46203Y-53368D01*
X46132Y-53438D01*
X46094Y-53530D01*
X46094Y-53630D01*
X46094Y-54132D01*
X45942Y-53764D01*
X45844Y-53666D01*
X45844Y-32201D01*
X45730Y-31926D01*
X45519Y-31714D01*
X45244Y-31600D01*
X44945Y-31600D01*
X44670Y-31714D01*
X44459Y-31924D01*
X44344Y-32200D01*
X44344Y-32498D01*
X44458Y-32774D01*
X44669Y-32985D01*
X44944Y-33100D01*
X45243Y-33100D01*
X45518Y-32986D01*
X45729Y-32775D01*
X45844Y-32500D01*
X45844Y-32201D01*
X45844Y-53666D01*
X45661Y-53483D01*
X45294Y-53330D01*
X44896Y-53330D01*
X44528Y-53482D01*
X44247Y-53763D01*
X44094Y-54130D01*
X44094Y-54132D01*
X43942Y-53764D01*
X43844Y-53666D01*
X43844Y-32800D01*
X43844Y-31800D01*
X43806Y-31708D01*
X43736Y-31638D01*
X43644Y-31600D01*
X43544Y-31600D01*
X42544Y-31600D01*
X42453Y-31638D01*
X42382Y-31708D01*
X42344Y-31800D01*
X42344Y-31899D01*
X42344Y-32899D01*
X42382Y-32991D01*
X42452Y-33062D01*
X42544Y-33100D01*
X42643Y-33100D01*
X43643Y-33100D01*
X43735Y-33062D01*
X43806Y-32992D01*
X43844Y-32900D01*
X43844Y-32800D01*
X43844Y-53666D01*
X43661Y-53483D01*
X43294Y-53330D01*
X42896Y-53330D01*
X42528Y-53482D01*
X42247Y-53763D01*
X42179Y-53927D01*
X42179Y-49439D01*
X42051Y-49130D01*
X41815Y-48894D01*
X41506Y-48765D01*
X41172Y-48765D01*
X40863Y-48893D01*
X40626Y-49129D01*
X40604Y-49182D01*
X40604Y-39125D01*
X40417Y-38671D01*
X40070Y-38324D01*
X39616Y-38136D01*
X39125Y-38135D01*
X38671Y-38323D01*
X38324Y-38670D01*
X38136Y-39123D01*
X38135Y-39614D01*
X38323Y-40068D01*
X38670Y-40415D01*
X39123Y-40604D01*
X39614Y-40604D01*
X40068Y-40417D01*
X40415Y-40070D01*
X40604Y-39616D01*
X40604Y-39125D01*
X40604Y-49182D01*
X40498Y-49438D01*
X40497Y-49772D01*
X40625Y-50081D01*
X40861Y-50318D01*
X41170Y-50446D01*
X41505Y-50446D01*
X41814Y-50319D01*
X42050Y-50083D01*
X42178Y-49774D01*
X42179Y-49439D01*
X42179Y-53927D01*
X42094Y-54130D01*
X42094Y-54132D01*
X41942Y-53764D01*
X41661Y-53483D01*
X41294Y-53330D01*
X40896Y-53330D01*
X40528Y-53482D01*
X40247Y-53763D01*
X40210Y-53851D01*
X40210Y-49439D01*
X40083Y-49130D01*
X39846Y-48894D01*
X39538Y-48765D01*
X39203Y-48765D01*
X38894Y-48893D01*
X38657Y-49129D01*
X38529Y-49438D01*
X38529Y-49772D01*
X38657Y-50081D01*
X38893Y-50318D01*
X39202Y-50446D01*
X39536Y-50446D01*
X39845Y-50319D01*
X40082Y-50083D01*
X40210Y-49774D01*
X40210Y-49439D01*
X40210Y-53851D01*
X40094Y-54130D01*
X40094Y-54528D01*
X40246Y-54896D01*
X40527Y-55177D01*
X40894Y-55330D01*
X41292Y-55330D01*
X41660Y-55178D01*
X41941Y-54897D01*
X42094Y-54530D01*
X42094Y-54528D01*
X42246Y-54896D01*
X42527Y-55177D01*
X42894Y-55330D01*
X43292Y-55330D01*
X43660Y-55178D01*
X43941Y-54897D01*
X44094Y-54530D01*
X44094Y-54528D01*
X44246Y-54896D01*
X44527Y-55177D01*
X44894Y-55330D01*
X45292Y-55330D01*
X45660Y-55178D01*
X45941Y-54897D01*
X46094Y-54530D01*
X46094Y-54380D01*
X46094Y-55130D01*
X46132Y-55222D01*
X46202Y-55292D01*
X46294Y-55330D01*
X46393Y-55330D01*
X47893Y-55330D01*
X47985Y-55292D01*
X48056Y-55222D01*
X48094Y-55130D01*
X48094Y-55031D01*
X48094Y-97032D01*
X48094Y-97032D01*
X48019Y-97001D01*
X47956Y-97001D01*
X47894Y-97064D01*
X47894Y-97701D01*
X48031Y-97701D01*
X48157Y-97701D01*
X48294Y-97701D01*
X48294Y-97801D01*
X48157Y-97801D01*
X48031Y-97801D01*
X47894Y-97801D01*
X47894Y-98439D01*
X47956Y-98501D01*
X48019Y-98502D01*
X48094Y-98471D01*
X48168Y-98502D01*
X48231Y-98501D01*
X48294Y-98439D01*
X48294Y-104196D01*
X47794Y-104196D01*
X47794Y-98439D01*
X47794Y-97801D01*
X47786Y-97801D01*
X47786Y-97701D01*
X47794Y-97701D01*
X47794Y-97064D01*
X47731Y-97001D01*
X47668Y-97001D01*
X47594Y-97032D01*
X47520Y-97002D01*
X47420Y-97001D01*
X47168Y-97001D01*
X47094Y-97032D01*
X47020Y-97002D01*
X46920Y-97001D01*
X46844Y-97001D01*
X46844Y-89221D01*
X46730Y-88945D01*
X46519Y-88734D01*
X46244Y-88620D01*
X45945Y-88619D01*
X45670Y-88733D01*
X45459Y-88944D01*
X45344Y-89220D01*
X45344Y-89518D01*
X45458Y-89794D01*
X45669Y-90005D01*
X45944Y-90119D01*
X46243Y-90120D01*
X46518Y-90006D01*
X46729Y-89795D01*
X46844Y-89519D01*
X46844Y-89221D01*
X46844Y-97001D01*
X46668Y-97001D01*
X46594Y-97032D01*
X46520Y-97002D01*
X46420Y-97001D01*
X46220Y-97001D01*
X46220Y-96291D01*
X46305Y-96234D01*
X46445Y-96025D01*
X46494Y-95779D01*
X46494Y-95543D01*
X46445Y-95296D01*
X46445Y-95296D01*
X46443Y-95295D01*
X46443Y-94131D01*
X46360Y-93929D01*
X46221Y-93790D01*
X46243Y-93790D01*
X46335Y-93752D01*
X46405Y-93681D01*
X46443Y-93590D01*
X46443Y-93490D01*
X46443Y-92890D01*
X46405Y-92798D01*
X46335Y-92728D01*
X46243Y-92690D01*
X46144Y-92690D01*
X45544Y-92690D01*
X45452Y-92728D01*
X45381Y-92798D01*
X45343Y-92890D01*
X45343Y-92989D01*
X45343Y-93589D01*
X45381Y-93681D01*
X45451Y-93751D01*
X45543Y-93790D01*
X45566Y-93790D01*
X45427Y-93928D01*
X45343Y-94130D01*
X45343Y-94349D01*
X45427Y-94551D01*
X45581Y-94706D01*
X45783Y-94790D01*
X46002Y-94790D01*
X46204Y-94706D01*
X46359Y-94552D01*
X46443Y-94350D01*
X46443Y-94131D01*
X46443Y-95295D01*
X46305Y-95088D01*
X46305Y-95088D01*
X46293Y-95076D01*
X46084Y-94936D01*
X45838Y-94887D01*
X45592Y-94936D01*
X45383Y-95076D01*
X45243Y-95285D01*
X45194Y-95531D01*
X45206Y-95590D01*
X45206Y-95779D01*
X45255Y-96025D01*
X45395Y-96234D01*
X45468Y-96283D01*
X45468Y-96669D01*
X45200Y-96401D01*
X45151Y-96283D01*
X45032Y-96163D01*
X44876Y-96098D01*
X44848Y-96098D01*
X44848Y-89499D01*
X44840Y-89201D01*
X44741Y-88962D01*
X44625Y-88910D01*
X44554Y-88980D01*
X44554Y-88839D01*
X44502Y-88723D01*
X44224Y-88616D01*
X43925Y-88624D01*
X43686Y-88723D01*
X43634Y-88839D01*
X44094Y-89299D01*
X44554Y-88839D01*
X44554Y-88980D01*
X44165Y-89370D01*
X44625Y-89829D01*
X44741Y-89778D01*
X44848Y-89499D01*
X44848Y-96098D01*
X44707Y-96098D01*
X44554Y-96161D01*
X44554Y-89900D01*
X44094Y-89440D01*
X44023Y-89511D01*
X44023Y-89370D01*
X43563Y-88910D01*
X43447Y-88962D01*
X43340Y-89240D01*
X43348Y-89538D01*
X43447Y-89778D01*
X43563Y-89829D01*
X44023Y-89370D01*
X44023Y-89511D01*
X43634Y-89900D01*
X43686Y-90016D01*
X43964Y-90123D01*
X44263Y-90115D01*
X44502Y-90016D01*
X44554Y-89900D01*
X44554Y-96161D01*
X44550Y-96163D01*
X44431Y-96282D01*
X44366Y-96438D01*
X44366Y-96607D01*
X44430Y-96764D01*
X44550Y-96883D01*
X44669Y-96933D01*
X44968Y-97232D01*
X44968Y-97251D01*
X44968Y-97301D01*
X44968Y-98301D01*
X45006Y-98393D01*
X45076Y-98463D01*
X45168Y-98501D01*
X45268Y-98502D01*
X45519Y-98502D01*
X45594Y-98471D01*
X45668Y-98501D01*
X45768Y-98502D01*
X46019Y-98502D01*
X46094Y-98471D01*
X46168Y-98501D01*
X46268Y-98502D01*
X46468Y-98502D01*
X46468Y-99696D01*
X46111Y-100053D01*
X43220Y-100053D01*
X43220Y-98202D01*
X43220Y-97301D01*
X43220Y-97202D01*
X43182Y-97110D01*
X43111Y-97039D01*
X43019Y-97001D01*
X42956Y-97001D01*
X42894Y-97064D01*
X42894Y-97701D01*
X43157Y-97701D01*
X43220Y-97639D01*
X43220Y-97301D01*
X43220Y-98202D01*
X43220Y-97864D01*
X43157Y-97801D01*
X42894Y-97801D01*
X42894Y-98439D01*
X42956Y-98501D01*
X43019Y-98502D01*
X43111Y-98464D01*
X43182Y-98393D01*
X43220Y-98301D01*
X43220Y-98202D01*
X43220Y-100053D01*
X42844Y-100053D01*
X42844Y-89820D01*
X42844Y-88820D01*
X42806Y-88728D01*
X42736Y-88658D01*
X42644Y-88620D01*
X42544Y-88620D01*
X41544Y-88620D01*
X41453Y-88658D01*
X41382Y-88728D01*
X41344Y-88820D01*
X41344Y-88919D01*
X41344Y-89919D01*
X41382Y-90011D01*
X41452Y-90081D01*
X41544Y-90120D01*
X41643Y-90120D01*
X42643Y-90120D01*
X42735Y-90082D01*
X42806Y-90011D01*
X42844Y-89920D01*
X42844Y-89820D01*
X42844Y-100053D01*
X42794Y-100053D01*
X42794Y-98439D01*
X42794Y-97801D01*
X42794Y-97701D01*
X42794Y-97064D01*
X42731Y-97001D01*
X42668Y-97001D01*
X42594Y-97032D01*
X42519Y-97001D01*
X42456Y-97001D01*
X42394Y-97064D01*
X42394Y-97701D01*
X42531Y-97701D01*
X42657Y-97701D01*
X42794Y-97701D01*
X42794Y-97801D01*
X42657Y-97801D01*
X42531Y-97801D01*
X42394Y-97801D01*
X42394Y-98439D01*
X42456Y-98501D01*
X42519Y-98502D01*
X42594Y-98471D01*
X42668Y-98502D01*
X42731Y-98501D01*
X42794Y-98439D01*
X42794Y-100053D01*
X42294Y-100053D01*
X42294Y-98439D01*
X42294Y-97801D01*
X42294Y-97701D01*
X42294Y-97064D01*
X42231Y-97001D01*
X42168Y-97001D01*
X42094Y-97032D01*
X42019Y-97001D01*
X41956Y-97001D01*
X41894Y-97064D01*
X41894Y-97701D01*
X42031Y-97701D01*
X42157Y-97701D01*
X42294Y-97701D01*
X42294Y-97801D01*
X42157Y-97801D01*
X42031Y-97801D01*
X41894Y-97801D01*
X41894Y-98439D01*
X41956Y-98501D01*
X42019Y-98502D01*
X42094Y-98471D01*
X42168Y-98502D01*
X42231Y-98501D01*
X42294Y-98439D01*
X42294Y-100053D01*
X41514Y-100053D01*
X41220Y-99759D01*
X41220Y-99685D01*
X41257Y-99700D01*
X41426Y-99700D01*
X41582Y-99636D01*
X41702Y-99516D01*
X41767Y-99360D01*
X41767Y-99191D01*
X41720Y-99077D01*
X41720Y-98501D01*
X41731Y-98501D01*
X41794Y-98439D01*
X41794Y-97801D01*
X41786Y-97801D01*
X41786Y-97701D01*
X41794Y-97701D01*
X41794Y-97064D01*
X41731Y-97001D01*
X41668Y-97001D01*
X41594Y-97032D01*
X41520Y-97002D01*
X41420Y-97001D01*
X41168Y-97001D01*
X41094Y-97032D01*
X41020Y-97002D01*
X40920Y-97001D01*
X40668Y-97001D01*
X40594Y-97032D01*
X40520Y-97002D01*
X40420Y-97001D01*
X40220Y-97001D01*
X40220Y-96653D01*
X40263Y-96549D01*
X40263Y-96380D01*
X40199Y-96224D01*
X40079Y-96104D01*
X39923Y-96039D01*
X39754Y-96039D01*
X39598Y-96104D01*
X39478Y-96223D01*
X39413Y-96379D01*
X39413Y-96548D01*
X39468Y-96681D01*
X39468Y-97001D01*
X39420Y-97001D01*
X39168Y-97001D01*
X39077Y-97039D01*
X39006Y-97110D01*
X38968Y-97202D01*
X38968Y-97301D01*
X38968Y-98301D01*
X39006Y-98393D01*
X39076Y-98463D01*
X39168Y-98501D01*
X39268Y-98502D01*
X39519Y-98502D01*
X39594Y-98471D01*
X39668Y-98501D01*
X39768Y-98502D01*
X40019Y-98502D01*
X40094Y-98471D01*
X40168Y-98501D01*
X40268Y-98502D01*
X40468Y-98502D01*
X40468Y-99915D01*
X40497Y-100059D01*
X40578Y-100181D01*
X41092Y-100694D01*
X41092Y-100694D01*
X41214Y-100776D01*
X41358Y-100805D01*
X46267Y-100805D01*
X46411Y-100776D01*
X46411Y-100776D01*
X46533Y-100694D01*
X46968Y-100260D01*
X46968Y-101373D01*
X46615Y-101726D01*
X42045Y-101726D01*
X41747Y-101428D01*
X41699Y-101310D01*
X41579Y-101191D01*
X41423Y-101126D01*
X41254Y-101126D01*
X41098Y-101190D01*
X40978Y-101310D01*
X40913Y-101466D01*
X40913Y-101635D01*
X40978Y-101791D01*
X41097Y-101911D01*
X41216Y-101960D01*
X41623Y-102368D01*
X41623Y-102368D01*
X41745Y-102449D01*
X41889Y-102478D01*
X41889Y-102478D01*
X46771Y-102478D01*
X46915Y-102449D01*
X46915Y-102449D01*
X47037Y-102368D01*
X47610Y-101795D01*
X47610Y-101795D01*
X47610Y-101795D01*
X47691Y-101673D01*
X47720Y-101529D01*
X47720Y-101529D01*
X47720Y-101529D01*
X47720Y-98501D01*
X47731Y-98501D01*
X47794Y-98439D01*
X47794Y-104196D01*
X39342Y-104195D01*
X39342Y-103371D01*
X39342Y-101419D01*
X39342Y-101320D01*
X39304Y-101228D01*
X39233Y-101158D01*
X39142Y-101120D01*
X38706Y-101120D01*
X38644Y-101182D01*
X38644Y-102345D01*
X39280Y-102345D01*
X39342Y-102283D01*
X39342Y-101419D01*
X39342Y-103371D01*
X39342Y-102508D01*
X39280Y-102445D01*
X38644Y-102445D01*
X38644Y-103608D01*
X38706Y-103671D01*
X39142Y-103671D01*
X39233Y-103633D01*
X39304Y-103563D01*
X39342Y-103471D01*
X39342Y-103371D01*
X39342Y-104195D01*
X38544Y-104195D01*
X38544Y-103608D01*
X38544Y-102445D01*
X38544Y-102345D01*
X38544Y-101182D01*
X38481Y-101120D01*
X38046Y-101120D01*
X37955Y-101158D01*
X37884Y-101228D01*
X37846Y-101320D01*
X37846Y-101419D01*
X37846Y-102283D01*
X37908Y-102345D01*
X38544Y-102345D01*
X38544Y-102445D01*
X37908Y-102445D01*
X37846Y-102508D01*
X37846Y-103371D01*
X37846Y-103471D01*
X37884Y-103563D01*
X37955Y-103633D01*
X38046Y-103671D01*
X38481Y-103671D01*
X38544Y-103608D01*
X38544Y-104195D01*
X35359Y-104194D01*
X35699Y-103855D01*
X35889Y-103398D01*
X35889Y-102903D01*
X35700Y-102446D01*
X35478Y-102223D01*
X35478Y-96962D01*
X35478Y-90635D01*
X33915Y-90635D01*
X33915Y-96962D01*
X35478Y-96962D01*
X35478Y-102223D01*
X35351Y-102095D01*
X34894Y-101906D01*
X34399Y-101905D01*
X33942Y-102094D01*
X33734Y-102301D01*
X33734Y-86674D01*
X33940Y-86880D01*
X34397Y-87070D01*
X34891Y-87070D01*
X35349Y-86881D01*
X35699Y-86532D01*
X35889Y-86075D01*
X35889Y-85580D01*
X35700Y-85123D01*
X35351Y-84773D01*
X34894Y-84583D01*
X34399Y-84582D01*
X33942Y-84771D01*
X33734Y-84979D01*
X33732Y-59900D01*
X33940Y-60108D01*
X34397Y-60298D01*
X34891Y-60299D01*
X35349Y-60110D01*
X35699Y-59760D01*
X35889Y-59303D01*
X35889Y-58808D01*
X35700Y-58351D01*
X35351Y-58001D01*
X34894Y-57811D01*
X34399Y-57811D01*
X33942Y-58000D01*
X33732Y-58209D01*
X33731Y-31552D01*
X33940Y-31762D01*
X34397Y-31952D01*
X34891Y-31952D01*
X35349Y-31763D01*
X35699Y-31414D01*
X35889Y-30957D01*
X35889Y-30462D01*
X35700Y-30005D01*
X35485Y-29789D01*
X52706Y-29786D01*
X52489Y-30003D01*
X52299Y-30460D01*
X52299Y-30954D01*
X52488Y-31412D01*
X52837Y-31762D01*
X53294Y-31952D01*
X53789Y-31952D01*
X54246Y-31763D01*
X54450Y-31560D01*
X54453Y-58206D01*
X54248Y-58001D01*
X53791Y-57811D01*
X53297Y-57811D01*
X52839Y-58000D01*
X52489Y-58349D01*
X52299Y-58806D01*
X52299Y-59301D01*
X52488Y-59758D01*
X52837Y-60108D01*
X53294Y-60298D01*
X53789Y-60299D01*
X54246Y-60110D01*
X54453Y-59904D01*
X54455Y-84980D01*
X54248Y-84773D01*
X53791Y-84583D01*
X53297Y-84582D01*
X52839Y-84771D01*
X52489Y-85121D01*
X52299Y-85578D01*
X52299Y-86073D01*
X52488Y-86530D01*
X52837Y-86880D01*
X53294Y-87070D01*
X53789Y-87070D01*
X54246Y-86881D01*
X54456Y-86672D01*
X54457Y-102305D01*
M02*
