M48
;FILE_FORMAT=2:4
INCH
;TYPE=PLATED
T01C0.018
T02C0.028
T03C0.032
T04C0.038
T05C0.042
T06C0.063
T07C0.064
;TYPE=NON_PLATED
T08C0.125
%
T01
X+071250Y+043375
X+069500
X+071420Y+048750
X+071250Y+064340
X+073125Y+043375
X+073580Y+051420
X+073920Y+055750
X+074500Y+059250
X+073750Y+061330
X+076500Y+043375
X+076660Y+052840
X+076000Y+055830
X+075420Y+056250
X+077580Y+054590
X+075840Y+054840
X+075500Y+055250
X+078375Y+043375
X+079625Y+044000
X+079160Y+047250
X+080500Y+050500
Y+050000
X+080160Y+054500
X+079500Y+054420
X+080160Y+055420
X+079000Y+055750
X+082000Y+049500
X+082500
X+083000
X+083500Y+049580
X+082840Y+053000
X+083375Y+055375
X+084340Y+052590
X+074250Y+051160
X+073580Y+050750
X+073250Y+060250
X+077080Y+047840
X+076750Y+057250
X+077580Y+054080
X+075840Y+054160
X+080340Y+048080
X+083250Y+047750
X+081580Y+054250
X+082250Y+054080
X+082660Y+053750
X+069080Y+048750
Y+056500
X+069000Y+055250
X+072090Y+060875
X+074750Y+043375
X+084160Y+052090
X+080750Y+053670
X+084250Y+051590
X+081160Y+055340
X+083750Y+056125
X+072250Y+062910
X+080840Y+048080
X+083920Y+050750
X+082133Y+051255
Y+051767
Y+052279
X+081110Y+051255
X+081622
X+081110Y+051767
X+081622
X+081110Y+052279
X+081622
T02
X+070500Y+047250
X+076500Y+050000
X+079660Y+048080
T03
X+081000Y+043000
X+079750Y+041000
X+082250
T04
X+064000Y+047500
Y+046500
Y+044500
Y+043500
X+065000Y+047500
Y+046500
Y+044500
Y+043500
X+064000Y+048500
Y+045500
X+065000Y+048500
Y+045500
X+067000Y+047500
Y+046500
Y+044500
Y+043500
X+068000Y+047500
Y+046500
Y+044500
Y+043500
X+067000Y+048500
Y+045500
X+068000Y+048500
Y+045500
X+071250Y+053250
X+072250
X+071500Y+052000
Y+051000
Y+050000
X+076420Y+059100
X+077220
X+078020
X+079620
X+080420
X+076570Y+058100
X+080270
X+081270
X+078820Y+059100
X+075570Y+058100
X+064000Y+063000
X+065000
X+064000Y+062000
X+065000
X+064000Y+061000
X+065000
X+064000Y+060000
X+065000
X+064000Y+059000
X+065000
X+064000Y+058000
X+065000
X+064000Y+057000
X+065000
X+064000Y+056000
X+065000
X+064000Y+055000
X+065000
X+064000Y+054000
X+065000
X+064000Y+053000
X+065000
X+064000Y+052000
X+065000
X+064000Y+051000
X+065000
X+064000Y+050000
X+065000
X+067000Y+063000
X+068000
X+067000Y+062000
X+068000
X+067000Y+061000
X+068000
X+067000Y+060000
X+068000
X+067000Y+059000
X+068000
X+067000Y+058000
X+068000
X+067000Y+057000
X+068000
X+067000Y+056000
X+068000
X+067000Y+055000
X+068000
X+067000Y+054000
X+068000
X+067000Y+053000
X+068000
X+067000Y+052000
X+068000
X+067000Y+051000
X+068000
X+067000Y+050000
X+068000
X+071250Y+058500
X+072250
X+073250
X+071250Y+057000
X+072250
X+073250
X+071250Y+055750
X+072250
X+073250
X+071250Y+054500
X+072250
X+073250
T05
X+081750Y+046375
X+083750
Y+044375
X+081750
T06
X+065000Y+041250
X+067000
X+063000
T07
X+075170Y+064750
X+081570
T08
X+075920Y+063500
X+080920
T00
M30
